<mxfile host="app.diagrams.net" modified="2024-07-07T10:03:47.145Z" agent="Mozilla/5.0 (Windows NT 10.0; Win64; x64) AppleWebKit/537.36 (KHTML, like Gecko) Chrome/126.0.0.0 Safari/537.36 Edg/126.0.0.0" etag="2orMfzTS_p6be9gZNI7k" version="24.6.4" type="device" pages="2">
  <diagram id="tEVkNcCIu-73DqXoTBks" name="Componentes">
    <mxGraphModel dx="1826" dy="359" grid="1" gridSize="10" guides="1" tooltips="1" connect="1" arrows="1" fold="1" page="0" pageScale="1" pageWidth="827" pageHeight="1169" background="#ffffff" math="0" shadow="0">
      <root>
        <mxCell id="0" />
        <mxCell id="1" parent="0" />
        <mxCell id="DlE1reFhoXXIZxfw-ELK-4" value="Envía datos del usuario" style="edgeStyle=orthogonalEdgeStyle;rounded=0;orthogonalLoop=1;jettySize=auto;html=1;sketch=0;exitX=1.004;exitY=0.326;exitDx=0;exitDy=0;exitPerimeter=0;" parent="1" source="z63i-Olkcntedy6qG_Ib-4" edge="1">
          <mxGeometry x="-0.024" y="13" relative="1" as="geometry">
            <mxPoint x="120.96000000000004" y="601.04" as="sourcePoint" />
            <mxPoint x="320" y="600" as="targetPoint" />
            <Array as="points">
              <mxPoint x="121" y="601" />
            </Array>
            <mxPoint as="offset" />
          </mxGeometry>
        </mxCell>
        <mxCell id="DlE1reFhoXXIZxfw-ELK-5" value="" style="endArrow=classic;html=1;rounded=0;sketch=0;endSize=6;entryX=1.004;entryY=0.642;entryDx=0;entryDy=0;entryPerimeter=0;" parent="1" target="z63i-Olkcntedy6qG_Ib-4" edge="1">
          <mxGeometry width="50" height="50" relative="1" as="geometry">
            <mxPoint x="320" y="640" as="sourcePoint" />
            <mxPoint x="120" y="640.04" as="targetPoint" />
            <Array as="points" />
          </mxGeometry>
        </mxCell>
        <mxCell id="DlE1reFhoXXIZxfw-ELK-6" value="Envía datos de la comunidad" style="edgeLabel;align=center;verticalAlign=middle;resizable=0;points=[];fontColor=default;labelBackgroundColor=none;sketch=1;" parent="DlE1reFhoXXIZxfw-ELK-5" vertex="1" connectable="0">
          <mxGeometry x="0.2484" y="-2" relative="1" as="geometry">
            <mxPoint x="28" y="-7" as="offset" />
          </mxGeometry>
        </mxCell>
        <mxCell id="DlE1reFhoXXIZxfw-ELK-10" value="" style="shape=image;imageAspect=0;aspect=fixed;verticalLabelPosition=bottom;verticalAlign=top;strokeColor=#000000;image=data:image/png,iVBORw0KGgoAAAANSUhEUgAAAgAAAAIACAYAAAD0eNT6AAAABHNCSVQICAgIfAhkiAAAAAlwSFlzAAAOxAAADsQBlSsOGwAAABl0RVh0U29mdHdhcmUAd3d3Lmlua3NjYXBlLm9yZ5vuPBoAACAASURBVHic7N13eFRV+gfw78xk0kN6LxBCgCT0GnroVTq7q6uuZV2VtYGo6+r+nN21rAXsfe1tMYqV3iK9d0IJJEB6AimkZzIzvz8wLrIkJHPOnbkz8/08j38onPe+psx97znnvgcgIiIiIiIiIiIiIiIiIiIiIiIiIiIiIiIiIiIiIiIiIiIiIiIiIiIiIiIiIiIiIiIiIiIiIiIiIiIiIiIiIiKiK2nsnQBRO/UB8CcAYwB0BOBp33TIxdUDOAdgDYBXAGTZNx0iIufjDeBtAGYAFv7Df1T4jwnA+wB8QeQAOANAjsALwCoAI+2dCFEb7AAwDkCNvRMhao3O3gkQtcHrAGbbOwmiNor5+Z9v7Z0IUWs4A0Bq1w/AbgBaeydC1A4WACMAbLV3IkQt4YcqqZ0B/Dklx6PBpZ9dItXiDACpWT8Ae8CfU3JcowBssncSRFfDJytSMwN48yfH9jd7J0DUEn64klrx6Z+cxUgAm+2dBNGVOANAamUAb/7kHDgLQKrED1hSIz79k7PhLACpDmcASI0M4M2fnAtnAUh1+CFLasOnf3JWnAUgVeEMAKmNAbz5k3N63N4JEF2OH7SkJnz6J2fHWQBSDc4AkJoYwJs/OTfOApBq8MOW1ELK03+vfv0x/8EH5WREdJk3Fi/GoX17ZYTiLACpAmcASC0MkFCQTpk1UzwToqu4bs4caDRSnpk4C0CqwAKA1KAfgGmiQXr1649OnRMkpEP0v2I7dULPvv1khJoAYLiMQEQiWACQGhjAp39yAJwFIGfCAoDsjU//5DAkzgJMBGcByM5YAJC9GcCnf3IgnAUgZ8ECgOyJT//kcDgLQM6CBQDZkwF8+icHxFkAcgYsAMhe+PRPDouzAOQMWACQvRjAp39yYBJnAR6TEYSovVgAkD3w6Z8cnsRZgEngLADZAQsAsgcD+PRPToCzAOTIWACQrfHpn5wGZwHIkbEAIFszgE//5EQ4C0COigUA2RKf/snpSJ4FGCYjEFFbsAAgWzKAT//khDgLQI5Iyk8sURv0A7AHDvYz99ZnnwuNv+v3N9j1+mQ7byxejEP79soIlQpgp4xARK3hDADZigEOdvMnag+JswBPyAhCdC0sAMgW+kLC2j+RmkncCzAZwGAZgYhawwKAbMEAPv2TC5A4C/B/MoIQtYYFACmtL4Dr7J0EkS1InAWYAs4CkMJYAJDSDODTP7kQzgKQo2ABQEri0z+5HM4CkKNgAUBKMoBP/+SCOAtAjoAFACmFT//ksiTPAgySEYjoSiwASCkG8OmfXBhnAUjtWACQEvj0Ty5P4izAVHAWgBTAAoCUYACf/ok4C0CqxgKAZOPTP9HPOAtAasYCgGQzgE//RL/gLACpFQsAkolP/0RX4CwAqRULAJLJAD79E/0PibMAf5MRhAjghzXJ0xfAXgj+TPXq1x/zH3xQTkZEKvLG4sU4tG+vjFCDAeySEYhcG2cASBYDJBSUU2bNFM+ESIU4C0BqwwKAZJCy9t+rX3906pwgIR0i9ZG4F2AagIEyApFrYwFAMhjAp3+ia+IsAKkJCwASxad/ojaSOAtwHTgLQIJYAJAoA/j0T9RmnAUgtWABQCL49E/UTpwFILVgAUAiDODTP1G7cRaA1IAFAFmLT/9EVuIsAKkBCwCylgF8+ieymsRZgMdlBCHXwwKArMGnfyJBEmcBpoOzAGQFFgBkDQP49E8kjLMAZE8sAKi9+PRPJAlnAcieWABQexnAp38iaTgLQPbCAoDag0//RJJxFoDshQUAtYcBfPonkk7iLMBjMoKQa5DyE0dOLQhATwCDADwL/swQqZkFwCMAdgE4DKDMvumQmvHDnK4UC2ACgPEARgCIsm86RCQgH8AWAGt+/ifPvumQmrAAIACIBPB7ADcB6GXnXIhIOQcBfAzgcwBFds6F7IwFgGsbDeBBABMBuNk5FyKynSYAKwEsBvCTnXMhO2EB4Jqm4NJmoaH2ToSI7G4rgKdwqSAgF8ICwLV0A/AKLq3xExFd7icA9wA4Yu9EyDZ09k6AbMIPwL8AfAQg0c65EJE6dQJwBwB/ANsANNo1G1IcZwCcX38AX4A3fiJqu5MArgewz96JkHI4A+C8NLi0we9zAGF2zoWIHEswgFsAVAPYad9USCmcAXBO7gDeA3CjvRMhIof3MS4tDXBJwMmwAHA+gQCWAUizcx5E5Dw2AJgDoMLeiZA8LACcSzCAjbjUupeISKYDAMaC7YWdBg8Dch4dAKwCb/5EpIw+ANbj0iwjOQEWAM7BG5eaeAywdyJE5NT6APgBlz5zyMGxAHB8Glza8MeufkRkC8NwaWMgl5AdHF8DdHyPArjf3kkQkUtJBlCLS22EyUGxgnNs4wCshsIzOe4+AfCPS4ZfRBd4BUXBMyAMbp6+0Ll7QqNlDUlkLxazCabGejTVV6O+ogR1ZQWoKjyFytxMNNYovmHfhEttxTcofSFSBgsAx+UP4DCAWCWCu3n5IjRpGMKSh8M3vLMSlyAiBVUXZaMkcwtKj29FU121Upc5i0tHiF9U6gKkHBYAjuvfAG6XHdTdLwjRA6YioucYaPXussMTkY2ZjA0oPrQR+Xt+RGN1uRKXeBfAn5QITMpiAeCYxgJYC4nfP41Wh+gBUxGTOhM6vYessESkEiZjA3K3L0PB3pWwmE0yQ1tw6TNpo8ygpDwWAI5HC2AvLr2OI4VXUCS6TbsPPqFxskISkUrVlJzFiR9fRV15ocyw+wAMBGCWGZSUxR1cjucmAHfLChacOAjJcx6Gh1+wrJBEpGLuPgEISxmJuvIC1JUVyAobCSALl/YlkYPgDIBj0QM4BUDKo3pE77HoPPYWaDRsB0HkaiwWM7LXfYCiQ9I28Z/BpWPHm2QFJGVxBsCx3ADgVhmBInqNRcL426DRsAYkckUajQZBCf3QVF+D6qLTMkIGAMgEcFRGMFIeCwDH8m8A0aJBghMHIXHynbz5ExECOvVEbWmurOWAGFzqTEoOgHO/jmMILm2yEeIVFPnzzZ/feiICNBotEiffDa/ACBnhUn/+hxwA7wKO4ybRABqdG7pNuw86vaeMfIjISejcPdFt2r2yOnveKCMIKY8FgGPQAZgtGiS6/xS+6kdEV+UT1glR/SbJCDUHXF52CCwAHMMoAOEiAdx9AxGTOlNSOkTkjGKHzoa7T4BomAgAwyWkQwpjAeAYpokGiB44jR3+iKhVOr0nogdOlRFK+DOLlMcCwDGMEBns5uWLiJ5jZOVCRE4svNdYuHn5ioYR+swi22ABoH6+EGz7G5o0jAf7EFGb6PQeCO02RDRMPwA+EtIhBbnZOwG6psEQ/D6FJdt3Oa6xpgKV5zJRVXQKdWUFqK8oQVN9NUyN9bIPJSFyKBqtDjp3T7h5+sIzIAxeQVHwi+wC/9hkGWvxVgtLGYHCA2tFQugBDAIPCFI1FgDqlywy2N0nAL7h8bJyabOmumqUHtuKkswtqC7Otvn1iRyBxWxCU30NmuprUF9RjIozh1GI1QAA34jOCEsejtDuw2RMybeLb0Rn6L39YaytFAmTBBYAqsYCQP26iAz2j0uGLY98aKwqQ/6e5Sg6vAFmY6PNrkvkbKqLslFdlI2zm5civNdoRA+YBnffQBtdXQP/2CScP7FDJIjQZxcpjwWA+gn9EvlF2OZ30GI2ofDAWpzbkg6Tsd4m1yRyBSZjAwr2rkLRoQ2IHjANMYOnQ6vTK35dv8hE0QIgUVYupAwWAOon1LnHKyhKVh4tqisrxIkfX0FN6TnFr0XkqszGRuRuX4ay03vRbdq98AqMVPR6XsHC8dl1TOX4FoD6+YkM9gwU6h90TReyduHgp4/z5k9kIzUlZ3Hw08dxIWuPotfxChA+G6CDjDxIOSwA1E+oAHDz8JaVx/8oOboJJ358jVP+RDZmaqzHiR9eRtHB9YpdQyf+2SH02UXK4xKA+glt/1Xq4J+iQ+txeu37isQmomuzWMw4ve59WMxNiOw7UXp8nbvwZwcLAJXjDID6CXXw0ejk13gXsnYhe92H0uMSUfvlbPwUF07JXw6QsNGQ3cdUjgUAtUt9RTGyVr0Di8Vs71SICJdmArJWvIm6sgJ7p0IOhgUAtZnF1ITj378EU2OdvVMhosuYjPU4sfx1dtakdmEBQG2Wv3cFd/sTqVRNyRkU7Ftl7zTIgbAAoDZprC5H3o5v7Z0GEbUid9syNNZU2DsNchAsAKhN8nf/CJOxwd5pEFErTMZ65O9ebu80yEGwAKBraqqrRtHhDfZOg4jaoPjQejTVVds7DXIALADomkqPbeXBPkQOwmRsQOmJ7fZOgxwAGwHRNZVkbpEWK7hjV3QfPxsxvYfALywaek8vabGJHI2xvg5VJfnIO7gdx9Z+jbKzWVLilhzdjMg+46XEIufFAoBa1VhTgeriHOE4Or07ht3+CJIn/QYaDSeeiABA7+mFoLguCIrrgp5Tb8DRVV9i63vPwtxkFIpbXZQNY+1F6L3Zjp9axk9ialVlbiYAi1AMnd4dU594GymTf8ebP1ELNFodeky5HtOeeBtaN9EufJaff3eJWsZPY2pVVeEp4RjD/vgXRPccJCEbIucX3Wswht32sHCcqkI5ywnkvFgAUKtE24sGd+yK5InzJGVD5BpSJv8WQXFdhGLUXSiUlA05KxYA1Kr68mKh8d3Hz+a0P1E7abQ6dB8/RyhGXUWRpGzIWfGTmVrV1FArND62z1BJmRC5ltjeQ4TGNzXUSMqEnBULAGqVyVgvNN43NFJSJkSuxS8sSmi8uZGdO6l1LACoVRZTk9B4vae3pEyIXIvey0dovNkk9iohOT8WAERERC6IBQAREZELYgFARETkglgAEBERuSAWAERERC6IBQAREZELYgFARETkgngcMNFV1JafR1VJPqpKC9BYU42G6oswNtTCTe8BjVYHnbs7vAND4BMUDt+QCPiFRgIajc3yq7lQjOrSQtSUn0f9xXI01Fz85dBGnV4PvZc3PP0C4RsaAb+waHj6BdgsNyJyDCwAyOUZ62uRd3AHio7tR+mpIyg9nYnG2up2xXD39kVwp24I6ZyE6J6DEN1rENy9/aTk11hbhfzDu1FweBfO5xzHhZzjaKipalcMD19/hCX2QFjXnojo3hdRPQbAzd1TSn5E5JhYAJBLaqi+iKxNy5GzYz0Kju6BuUmsa1pjbTUKM/eiMHMvDv/4KbQ6HcK79UaXEVOQMGwivPyD2hWvrrIMp7eswqktK1F84iDMJpNQfg3VlcjdvxW5+7cCANw8PBHdczA6DxmHhGEThbvOEZHjYQFALqUwcx+OrPgCOTvXw6Rgr3SzyYTCzH0ozNyHrf/+FzoOGIle029GVI+BrY7LP7QTh374BOf2bhK+6bemqaEeZ/f8hLN7fsKWd59G56ET0HPa7xGakKLYNYlIXVgAkEs4u/sn7F/2bxRm7rP5tc2mJuTs3ICcnRsQmpCCfnPvQOch4/67Z8Biwenta7Ev/R2czz5m8/yM9XU4seE7nNjwHWL6DEW/uXcguucgm+dBRLbFAoCc2vnsY9j63rMoOLLb3qkAAEpPH8XqZx9AWGJPDLl1EXR6d2z/4AUUZu61d2oAgLwD25B3YBtieg/BsNsfQVDHRHunREQKYQFATslYV4PtHy5G5up0WCxme6fzP0qyDuO7v/7B3mm0KO/gdqQvmIte02/CoBvuhc7dw94pEZFk7ANATqfo+AGkL5iLo6uWqvLm7yjMpiYc+OYDpC+Yi5KsI/ZOh4gk4wwAOQ+LBXvT38buz1/njV+i8rxsfPPIDRhyyyL0mn6zvdP5lTdn2HfT4t3fHbXr9YlEcAaAnIKxvg5rnluIXZ+9ypu/AswmE7a+9yzWLX4ITQ319k6HiCTgDAA5vKaGevxouANFx/bbOxWnl7VpBeoqyzDlb29Cp3e3dzpEJIAzAOTQzKYmrH52AW/+NpR3cAfWPv+gon0KiEh5LADIcVks2PjK4zi3d5O9M3E5OTs3YPPb/7R3GkQkgAUAOayDP3yCkxk/2DsNl5W5Oh2Zq9PtnQYRWYkFADmkkqwj2PHREnun4fK2/PsZu3QvJCJxLADI4TTWVl9agxY8wIfEmRobsPYFvhlA5Ij4FgA5nN1fvI6LxXmKX8dXp0c3nwDEefoi1N0THlodAKDBbEJJYx1y62twoqYC1Sb7FCJqya8iPwd709/G4BvvV/Q6RCQXCwByKBfOnMSR5Z8pFr+PXzAmh8RhdFAUunoHQNd8YE8LTBYLTtRWYGNZAVaeP4eDVRcUy03N+R345gN0Gz0dAdHxisQnIvlYAJBD2fz2P6W/fuam0WJeeGfcGt0NST6B7Rqr02iQ7BOIZJ9A/Dk2BZk15fgg/wS+Ks5Gk6SGRGrPDwDMTUZsfudpXPf3d6XFJCJlcQ8AOYzc/dukH+c7JSQOGQOuw3NdU9t9c72aZJ9APN81FRsHXIfJIXFOn9/l8g5sU82phkR0bSwAyGHs++odabGC9Z74d8oovJ08Eh29/KTFbdbJyw/vJI/Eu8mjEKRv/0l6as+vJfvS5X2PiEhZLADIIRSfOIiCI7ulxOrlF4wV/aZgYnCslHitmRQSixX9pqCXX3Cbx6g9v9ac27cFpaczpcQiImWxACCHcGTFF1LiJHr744ueYxHl4S0lXltEe/jgm94T2jTlPi4oGl/1Hm/z/Jb2GidliQEAMlctlRKHiJTFAoBUz1hfh5wd64XjBOk98GnPsejgZvtDbNy1OryRNAJzwzu3+HfmhnfGuylp8NLafm+ur06P91PSECDha3N662qYGhskZEVESuJbAKR6Z3auh7G+VjjOU10G2fTJ+kpuGg2WdBuKMHcvvJH763Pkb4vujicS+kOL1l/rU1KMpw+e65qKP2WKna3QUFOFM3t+QsLQCZIya9nd3x299l8ioqviDACp3qktq4RjTA6Jw7TQjhKyEaMB8Gh8XzzeuR80P//745374e8JA+x68282OSQO44NjhOOclvA9IyJlcQaAVM1iNqHgyB6hGHqNFo/F95WUkRx3xiQjSO8JAJjXyrKAPfytc39sLMtHk8VidYyCI7sBiwW4RqMiIrIfzgCQqp3PPo7G2iqhGDPDOinyKp2oeeGdVXfzB4B4Lz/h2ZK6yjJcOJclKSMiUgILAFK1gqNiT/8AcGt0dwmZuJbbo5OEYxQc3iUhEyJSCgsAUjXRo2a7eHdAT98gSdm4jj5+wYgXnDW5cOakpGyISAksAEjVKgvOCo2fFCy33a0rmSDYiKgiP0dSJkSkBBYApGoVggXAYP8wSZm4ntSAcKHxFfln5CRCRIpgAUCq1VBThYbqSqEYslrcuqLegksndZVlUvo3EJEyWACQahlrq4XG+7u5Sz3oxtWEunvBV6cXitFYI/YGBxEphwUAqZaxoU5ofJi7l6RMXFe44NeQMwBE6sUCgFSrSbAA8NGxz5UoPzexGQBjHQsAIrViAUCqZTGb7Z2Cy+N3gMh5sQAg1XL38hUaX2NqkpSJ66oV/Brqvex3+BIRtY4FAKmW3ttHaHxxo9gSAgHFjWJT+Hovse8hESmHBQCplru3WCe6i02NKDPyXHprlRkbUNVkFIrh7i02i0NEyuEuKVItvacXPDsEov5iudUxDlZdwOigKIlZuY6DVReExnv5B0HvqewSwJszUhSNfy13f3fUrtcnEsEZAFK1wBix0/J2VhZLysT17L5YIjQ+ILqTnESISBEsAEjVAmPihcavOp8rKRPXs/p8ntD4gGix7x0RKYsFAKlaUMeuQuNP113E4eoySdm4jsyacpysrRCKEdypm6RsiEgJLABI1aJ6DhSO8V7+cQmZuJYP808Ix5DxvSMi5bAAIFULjkuEd2CIUIzvS87gTB170rdVXn01vi4RO8rXyz8IwXGJkjIiIiWwACB102gQ3XOwUAijxYwns/dJSsj5PXvmABrNJqEYUT0HARqNpIyISAksAEj1Og8ZLxxj9YVc/FB6VkI2zm1DWT6+LTkjHKfLsEniyRCRolgAkOp1GpQGzw6BwnEeO7ULefU1EjJyTqWNdXj45A7hOB4+fug4YKSEjIhISSwASPW0bnokjpwiHKfc2IBbjm5EtUmsu50zqjM34U+Zm6S0T04YNhE6dw8JWRGRklgAkENImjBXypryiZoK/O7QOhQ28JjaZnn11Zh9YA32XCwVD6bRIGXy78TjEJHiHKIA+MOgoe8+Nm1atL3zIPsJ7tgV8YNGS4l1sOoCJu1bjq0VRVLiObKdlSW4bv8qHJHUKyGu3wiEdE6SEovIkRjmzXO/eWDqJ0vmzfOydy5tpfoC4O5haQ98vHv7Hz/cvOXMfcPT/mzvfMh+BvxuvrSd5WXGBtx4eD3eyHXdXu6fFWbhd4fW4byxXlrMfnPvkBaLyFEsTBuX+t32ncUf795x445TZ76xdz5tpeoCwDBxYtCKzEPPWSwW5FdWuL2+bdNrM3r23m647joeMu6CQjonodPANGnxmiwWPJOzHwtPbEeD4GtvjqTebMJ9x7fiL1k70WQxS4sb23cYIpP7SYtH5AhuSx3+wvs7t23bn3cuAAC+O7x/4sLR48U3LdmAqguAAwXFP54tL9M3/7vJbMZ3hw+mLtu7r+jBMRO4zdgFDb/jr9B7yp1hSy8+jZkHViOvvlpqXDUqbKjF3INr8I1go58rad30GH7Ho1JjEqnZXyfOjhyTmHTq/R1bHqyoq/1larKhqQmbTp38xJ65tZVqC4CFoyaOXnnsyJCr/dmhgny/d7Zuyrh5YKpDfJFJHr+wKPT/zV3S4x6pLsPU/Sudel/AzsoSTNm/QviY36vpO/t2Hv5DLuPeEWm3fLYr4+yGrGMJV/vzPblng+5IHfGsrfNqLzd7J9CSHedOfdHQ1NTin1c11Gs+3r3jxpEJiWkjo+NHPrlpjdxHGlKt3jNvQdbmFbiQI96v/nKX9gVswP917o9bo53rIJt384/h6ex9aLJYpMcOiIm329r/3d+57h4Osr0/9e+vv9Bk+fqtbZuvM5paXzZcnnlo4YIhE599cftq1Z5GpsoZgDuHjXp0W87p8Lb83U2ns2I+OLjr5H0jxsh/LCRV0urcMPHhF+Hu7Sc9dpPFjP87vRv3Hd+KOnPLBaijaDCbsPDEdvzj9F5Fbv46dw+MX/QC3Dw8pccmUpMHRo8ftrOw5PzXB/dd8+YPAAUXK93y6s7/xwapWU11BYDBYNBuOnXy8faMya+scHt9a8ab3CDoOvyjOmLMA08r1m/+m5IczD6wxqH3BRQ21GLOwTVILz6t2DVG/OmvCInvrlh8IjW4PXX44g92bNl8sCC3Q3vGrTx2ZNz9w0ardjpRdQVA3sr1i48VF7b7Jt68QTB9996SB0dNEG8eT6oXP3gM+s6+TbH4R6rLcN3+VdhRWazYNZSytaIIk/YtV2S9v1nKpN8iafxcxeIT2dvD46dHTUxKyXxvx5aFlXV17X7aqG5o0GRXlql2r5qqCgBDWprn+qzM+SIxjhYV+Ly946fV7BngGlJvWoDkifMUi3/eWI/rD61zqH4BnxVm4cbDG1BmbFDsGvGpYzHizscUi09kb/ePndTr892bz64+dlSos9XaE5kDF6SNHyArL5lUVQDkVDe8nVN2wV00jrfe3dJB675CRk6kchoNRt71N3QZPlmxS/y3X8A2VfcLUOr9/ivF9E7F+EUvQKPVKXYNInt7ef2qw5EdOlSKxqk3GnG0sOBjGTnJppoCwHDddd7rso7dICPWjJ59nuVbAa5Do9Vh7MJ/KT4dnV6cjdkH16BAhecI5NXXYNaB1dLf779S97EzMeXxN6DTC9fpRGpnSUvoOsdLws/6hqxjSQ+MHj9MQk5SqaYAOFty4cX8ygrh1xJHJSTmvrt9819l5ESOQ6tzQ9o9f8eo+QZo3fTXHmClQ1UXMHnfcmxRUb+AnZUluO7ASmn9/K9Gq9Mh9eaFGH3fUzzpj1zG8xvX/jQ9pfePonGazGacLCp8Q0ZOMqmiADAYDNrN2af+IBrHS++OwbFdfiMjJ3JMyRPnYcZTH8I7MFSxa5QZG3CTSs4R+KWff6O8fv5X8uwQiGmGd9F3zu2KXYNIrZICfOYlhoYJ/4KtzzrRa8Ho0SkycpJFFQVA/qoNT58qLRF+rJiW0mPdcxkrd8jIiRxXRPc+mLvkS4R3663YNZr3Bdx7fItd+gU0v9+v9Hp/SOckzF38JaJ7DVbsGkRqZsjIqB/XNen/ROM0NBlx5kL5WzJykkUVBcD2s6eEd+xH+wc0pQTEKbcdnByKT1AYZjz1oeL7Ar4tOYNZNj5HwBbv9wNA4qhpmPXsp/ALi1L0OkRq9+bWn54f0qmz8PvAG06eGPbw+Omq+YWyewEwf8SoBUcKC3xF40zonvy+IePbChk5XWlSUsrR3/YdwLcKHIxO726TfQFHq8sxdf9Km+wLULKff7Pm9f5xC5+Fmzs7/JFjuGdE2l2D4jpdeGbq1EAl4g/uFH+XVrDxWGV9nebMhYJ3JKUkzO4FwKG8/EWiMbqEhjV0jIu+V0Y+V/pj6vAXVh07mrx0/57JYxO7nzZMnBikxHVIOckT52HGkx84/L4ArvcTXd3NA1M/eWfb5jd3nTsTtP1s/kYlrvFSxvpv07p0yxaNs+XUqYmGefNU8RqNXQuAh8ZP6bPzXI7wdMjoLt2WGNLTG2XkdLmH0yanph/cu7D539dnHe/85YFDuQ+nTU6VfS1SVkRSX5vtC7hH8r4A2673L+V6PzkMw+TJHcZ1Szr+8e4dNzb+3J//h6MHe987YvRzSlyvV0zszR5uYi+rFVyscMvPK/mLpJSE2LUAyC4pfrEthyq0JiUiqiZ64th2nR3QFoa0NM+VJw6tubL9Y2Zxofd7uzdtvXtY2gOyr0nKstW+gO8k7guw6Xr/vz6FX1i0otchkmXhuHF9aTjGAAAAIABJREFUvzpwMG/diWO/6rVvsVjw2d5diwwTpw2Sfc2XNq7dOiax+xHROEcKc4U63spitwLAkJbmuTXn1AjROEM7dXnNYDBIfyzaf6F84+HC/KseN3ehpkb77vZNL3JfgOOx5b6AKYL7Amy+3s8T/chB3DMi7a5Pd+zcc6Sw4Kqf0WW1NZrvjx5ao8RUe3xo2J1uWrFb586zOeFqaAxktwIgv95sKLpYKdRLtHNwSGO0p1b60/+9I0ff9sORQ61O8zeZzVi6f8/kid1TjhkmT27XCVFkf//dFxCi2DXKBfYFcL2f6Opu7J/66TvbNr9ZUl3V6v1rX945/9Nncr+Qff03Nm3YNiIhUajlptliwZnS0n/JysladisADhac+6NojJEJiZ8YMjKkvoRtSEtz23jyxCvmNp6dvvr40e5f7j9QuGjspCEy8yDlRST1xdzF6toXwPV+oqt7eNh0v/Hdko99unfH7xvbuHT87aEDs/4yeXJf2bkkR0Qt0Ai+EbD1zOmhiyZM8JGUklXsUgA8nDY5dU/u2WCRGJEd/E0pAV3ul5VTs6yq+s+OFBW065uSWVTo/cGOzVv+PHz0wmv/bVITn+Dwn/cFzFH0Os37AnJb2Rdgs/X+kVO53k8OZeG4cX1XZO/JX3sis3t7xlU11Gv2Zp9ZJjuf1zdv/G5wx/gSkRil1VXaisoa6TPY7WGXAuDcxfOPtfUJuyWjunRb9dCaT2okpQQAeHDs5OQfMw9a1UzoQk2N9u1tPy3mvgDHc2lfwD9s1i9gc3nh//zZLluu9z/4HNf7yWHcOzLtztbW+69l3cnjne4bJf/hrG9M7LOiMU6eL5FyAJ617FIAHMrPGyMy3sPNDXFBoQ/JyqfZgXNnvr9y1397NO8LGNO1e87TY2cJzXCQ7dlsX8CRDb/aF/BZYRZ+a4P1/qlPvMP1fnIoNw9M/eTtrZvfutZ6f2ssFgtWHs185vV584Qbzl3uzS0/vRgfFCz0+vnuc2fjFk2YECYrp/ayeQGwcNTE0ZnFhd4iMYbHd8l5bt3yY7JyAoD7Ro25dcOp4wkyYp0rL4t0924SWyAiu4hI6os5i79EWGIPxa5h+nlfwP3Ht+L+41sVX+8PTUjBvCXpiOnN9hXkWPIrKoa2db2/NVnni913nsn7WEJKl7MM7hi/UiRAnbER5yuq7bYMYPMC4FzFeeH/2ZTw6MUycrncrrNnnrUILksAl2Ynpqf0+cOiH344LyEtsgPf4HDMfOYTxfcFLCvJwbISoc3E15Q4cipmPvMxfEMjFb0OkRJGxMcNEX3Kbrbq2JEZsmdmEwI73O+lF3vTMKu0WNnGJK2weQFwoCBX6N3HhJDQhqBxI96UlQ8A3D9y9A07z+ZI6RM7q2eftUsy1iyVEYvsx1b7ApTC9X5yBoY1a0qm9eh1t2gPfgAoqa7Snqgqlnoa31MbNpwd2ilBaNfu7nNnIh8cOqajrJzaw6YFwILR42aIHvs7OK7zj7Ib/+zOPbdExtN/fFBwY/eIULtVcyRf8sR5mP7P9xXdFyAb1/vJmby6aeP747olH5cRa+3xo7NenDkzQEasZknhEUJthxtNJpQaa+2yDGDTAuDshTKhnZhuWi1iQ8OekJUPADwwasz1289kh4vG0Wg0mJzU8zHDypUXZeRF6hGZ3O9Sv4CuveydyjWFxHfH3MVLud5PTmVQWPSUEB9f4Qe/gouVuoP5JVJnkEPGjfp3TECgUD+a4yXFM2Tl0x42LQAyiwsGiozvFxNX9uzqH6Qet7bn3LkXZDz9j03slv3G1owXJKREKuQTHI4ZT3+E7uNm2zuVFiWOnIJZz37G9/vJ6Ty5aU3OdSl93pYRa13WsbnPT7hJWgMeg8Fg7h8bt0ckxsH83NBFQ23/NoDNCoCHxk/pc6Kk2EskRkpE5I+y8gEuNSTadua08GmEAV5elv7xidNl5ETqpdO7Y/S9/7y0L0AndiKYTP9d73+e6/3ktD7YtWX+gNiOZaJx8irK3bJrz/1DRk7N4oOCXxEZ39DUhEpL3Z9l5dNWNisAiivKHhB50tbrdOgYEviUxJRwqqzoX6INiQBgUlLKWtkzE6ReyRPnYbrC/QLaytMvgOv95DKGd+pyp4wNgQfz826WkM4vXvppwxcdA4OE3lbIqyi3+fSizQqAM2UXxoqM7xcTd96wYsVJWfkY0tLcdp7NET6NKcTH19w9Iv4PMnIix9G8LyAssafdcgiJ7465S77kej+5jJc2r/9qROeu50Tj7DiTHfLYhCkjZeTUrF903G6R8YcK8trV5lgGmxQABoNBe6SwQGiqPTki8ntZ+QBAkdHyaH5lhfA87qSklG8MK9KtP/OVHJZPcDhmPvOxXfYFcL2fXFW/jnF3iB7Ha7ZYkFVS8k9JKQEA4gKCXhYZn19Z4bZg9OhRsvJpC5sUABXrN88uq62x+loajQZhfgEvyczpSFHBXaIxQnx8zSnhIXfIyIcck633BWi0XO8n1/bihrVrRiQknhGNsyU7a9grkycLvZZ+uZe3bEiP8g8QehvgQnWdTWeTbVIAlNRUXy8yvmtYeN2z61YclpXP4yPHJ+48ky28+W9M16SMR5cvL5eREzm2S/sC3odXgHJHQHj6BWCa4W2u95PL6xUZ8xfRGAUXK3WnahoWycinWXJEpFBrz7yKCuebAcirLBM6dLxbaESmrFwAIL+hZpFRsL+0l94dXcOD50tKiZxAZHJ/zF2Srsi+gJD47pizeClieg+RHpvI0by8af3SgXEdhY/OzD5//ncy8mkWExC0RmR8ZnGhTTsC2qQAOFFSHCEyPtLfX+r6f/b50smiMcZ06Xb0yVWrTsjIh5yHb3A4Zj79EbqPnSUtZvN6f4fwGGkxiRxdv9hOwmfCHCjI7W6xWKQd3Bbo7fumRuAthaKLlboFI8YMkpXPtSheADycNjm1uOqiztrx7jod4sKD35WVj+G667wP5OcJf5ImR0ZIfSWRnIfO3QOj73tSeF8A1/uJWhY5fvSzHQODjCIx8irK3R4dO1la+/YXN64+2iUkTOhc76rGBpu1k1e8ACirrxL6n0mJjK58bNmyQln5lJRVza+srxOq+BJDw+uf37D2C1k5kXMS2RfA9X6i1hkMBvOAuPitonFyyi/8SUY+zbqFhQv1hCmtrZb6emJrFC8ASqurRoiMTwgO3S8rFwA4V1F2g2iMwXFiZ0CT6/jvvoAebR7D9X6itukYHPyYaGOgY8WFQnvUrhTlH/CDyPjc8vJusnK5FsULgPzKii4i48P8/FbLygUAjpcUJYuMd9fpEBsc+ldZ+ZDzu7Qv4GN0Hzvzmn+X6/1Ebbdkw5pt/WPihNoDHy0q8HtyxoxYWTkFad0/EdkHcOp8ib/BYLDJ/jzFL3Km7ILVRy9qNBrEevp8KSuXv06cHZl9vlTovc++MXEXnlnzg5SjKcl1XNoX8FSL+wK43k9kne4RkUIzsiazGcVlF6W9DfCvLeuyY/0Drd6bcLG+XlP90zahg/PaStEC4NGxU7qer6m2+hqdAoMaH123PFtWPmU1ZTeI9v7vEhr+k6R0yAUlT5yH6/753q/2BbjSer+uIh8l37yCzf/3e3zy+8H49MZUrHhgGnK/+Bc0uTxOg9ov1N93scgTNwCUVFWNk5QOAKBzcGiByPjK+oaJsnJpjaKtyyoba6aKjO8UFFqUUyb8qucvymuqhc4jAIBov4A3ZORCrisqZQDmLknH6mfug6nJiEmPvuL0U/4aswkl37+JZR+9DbP518e6V1VV4WxODvCfTzBl7g3o9NsFsLh72ylTcjRL1q3b3z08ou54cZHVp80WVFW2fZNOG4T5+x0BYPU7/ZV1NVL3JbRE0QLgYm2D0C6mUF9faYf/AEDhxcpeIuO7hIQ1Prdx1XpZ+ZDr8g0Ox4ynPgIA55/yN5uw/8X7sX3Txmv+1RVffY5+57KR+pe3YNHpbZAcOYPk8Kjdx4uLrN49f7q0JFxmPoHe3jsAWP0AfKGmxiYbARVdAiivq00UGR/g7bVPVi4AcOp8qdA3OTki8oisXIjcPDyd/+YPoOT7N9t082+2b9cOnP3P8wpmRM4mOsD/I5HxBRcrdX+dOLGfrHy89B5t/4G/igs11aGycmmNogVARV2NUAdAfy9voS/i5R6bMCG2QPD0v8gOHTIkpUPkErT5mVj24VvtHrf8y89gzNyiQEbkjIK1IV96uIlNaFfWNk6SlA4CRg3b7uPuYfWGs6KqSh9ZubRG0QKgtKba6jcA3LRaRAZ1kLbhrq7BInxoelAH/69k5ELkCjQWEzLe/CcsVm68/eGlJ6Ctr5acFTkjQ0Z6dWJIWI1IjJr6BqFXxH+Vj8FgjgsMqrN2fEl1le6RceP8ZeXTEkULgILKCqtfuQv3829amJ5u9RfwSlWN9X1Fxof6+pqfWfXjdln5EDm7uh3f4ejhQ1aPLy4uwumlSyRmRM4sLjBY6I2xqsa6eFm5AECQt3eltWPNFguajFrFzwRQrAB4fMzkhOqGBqvfzQjz8xOq5q5U3dDQXWR8Ymj4eVm5EDk7XW0Flr0lfFYLVi1biqZjwt1eyQWE+vntFBlfXlcXLSsXAAj08hFqYV9jbBB6aG0LxQqAWkuT0C7GIG9vee//AahurBc6ZjHSz5/Nf4jaKPurV1FZUSElFpcCqC1CvH2Xi4w/X10dJCsXAPDz9DwnMr6hydRJUiotUqwAaDQ2dRIZ38HDs1hSKgCA8ppa0Q2JLACI2kCXn4mVy5ZKi1dUVIjsL1+UFo+ckx88hHaNllRdlNp8wtvdXWhJor6pMVJWLi1RrABoMDUJrad46t2lTrlXNzT4ioz39HCT2pOAyBlpLCZseMP6jX8tWfn1f7gUQK0yZPxwPsDL2+ofvAu1NVYfW381ep0uT2R8nbExTFYuLVGsAKgzNgqtp3i6uUmdAag3GYW6igTova3fzUTkImq3f4vMI8r8qnApgK4lzM+vwdqxRpMJ702/zU9WLh5ardASQG2jsf3niLeTcksAJrPQeoqHTi+0geJKDUajUHUXEeRzQFYuRM5IV1uBb95Wbtd+UVEhstNfUiw+Ob5gb5+LIuNLGsuk3XTdPd1Oi4yvb2oUmrVuC8UKgCaTyeq+zADgqZc8A9DUZHUBEOTtY7kvPb1UZj5EzuZ0uryNfy1Z+dUXMB3nUgBdnb+Xl9DScbWpMURWLm5mc67I+EaTyV1WLi1RrgAwixUAFmiqZOUCAPVNRqv/XwM8vaw+2pHIFejyM7HqG3kb/1rz/YtPQNsg9S1hchKebnqhCtRiRqCsXE4FBQnl0tjUpPhhGIoVAEaTWagA0LrJLQDqGo1W9yRw1+tNMnMhciZKbfxrSVFRIXK4FEBX4abV1YuMbzQ1SVsCSE9PN+l11q88N5qaFD2sD1DwNECjqUnolBOdWSu1AIDAcdHuOi0LAFIFbWkO8jK+weEdm1CQd2mGMSomFj1TRyImbTbMoZ1snpOSG/9asiL9c9w1eDw0iYo3SyMH4qbT1to7h8u569wsRpPJqrtPQ5PJcQsAi8UiNLug0WultQEGAC+93lJvtHYWQGObRxuiFmhMRuR99RJ+/M/HMJvNv/qz7FNZyD6VBe3nH2Da9X9AzJz7bXaUrqyOf9b4bsljmP3ytzC72+TcFHIAovcdd52b1AZ0bjrr0zFbzAKPrW2j3FkAGrGbpsVksvocgavxdNObr/23rs5kNkt9P5SoPTSNtdj13J/x/ecf/s/N/3Jmsxnff/YBdj03H5pG2zwInf7qVVystLrluZDCggLkfMmlAPovk9ksdN8wm5vKZOUCAE0mq2870AreQ9t0DcUCayA2bW4R20NwJS+BdXyjyaTooUlELdEYG7B7yQPYs6PtO9/37NiG7c/dA63CRYA2LxOrJHb8s8aK9M9hOr7NrjmQepgtEJr68tF7yC0AzNZN/wOAxpELAI1Ga33pA8Bs1khty+jhpm+ydmx1Y4Nt5lOJLqMxNmD34nuxe3v7X3vbv3sntilZBJhN2Chw1K9M37/EtwLoknpjo9VH0ANAkL+n1Ne9jSbrn4N1Gq3jFgCiMwBmjUnqwp6Hzs3qAqC8tpZLAGRTIjf/ZkoWAbXbvrH5xr+WFBUW4OxXr9g7DVKBOqPR39qxep0Of05Pl9Zq8k/9++vNAgWyRgPHLQDcRV/HaDILHd5zJV8vT6u/sXXGRhhmzVK8LzMRAGgba7HjuflCN/9mzUWAzD0Blzr+2WfjX0t+/PJT4PQee6dBdlbVUG91K99gbx+pb3sF+YUInUDr7mb9Q2tbKVYA6N3chFoyNjY1ST0JKcjTS6i18MWK6lRZuRC1RGNswK4lD2Dfrh3SYu7fvVPqnoDT6a/g4kWhX28AQIcOHXDHP16CRiNns/M3zz/KpQAXV1J10eoCIMLPX+oPj9FiEToQz0fvLvVNuKtR7DVAD52+XGR8g6kpXFYuAODr4XUWQH9rx9c0NqYC+F5eRq7hzRkp9k6hVR38/REdE4eUwSMQOWI6moJi7ZaLtrEW25+/V+rNv9n+3TuB5+7BkIdfg8Xd+u012twjWPXNl1JymjP/Ybj1Ho8pc6/H8vTPheMVFRbg9d+wL4CrMqSleT61ebPV+7WCfH2kbgA0mpuEZgA83dwVr2YVmwHw0OuEejLXNzVJ68kMAL6eHsdExlfV1fWUlQupx8XKShw7ehhfvf8GXrttMoqXvQyNyfadnzXGBux+cYEiN/9mwjMBZjM2vvWUlI1/3ZNT4Dl4BgCg028eQHRMjHBMcm0XNfphIpvuAr28CiSmg7omU5TIeC93N8WPvlRuCUDnJrSbsrq+Qe4eAL3HQZHxJdUXk2XlQupksViw7KN3cPCVB6Ex2675Y/Oa/65tWxS/lsiegNpty6Rs/NNoNBh3jwHQXvr4Mbv7YMbCJ4Xjkmu7WFs/TWS8r7tXtqxcAKDe2JggMt5d56bsyVpQcgbATSt0ElJ5bY3UJQAvPw+hl4XPlJVFy8qF1G1rxnrkf22bBjNKTvu3pHkmoD1FgLamXNrGv8lzfgdT9K/raUvCQEz9ze+lxCfXVFpzcajIeG93j0xZuQBAdWNdZ5HxXnp3xU+gVa4A0LkfEBlfWn2xg6xcAOCpH3/Mj/YPsHpXZU7ZeY+nZs+WujGR1Ou7T9+HRuFd5baY9m9Je5cDZG786zznz1f9s07z7udSAFktt6K8q8j4QG+vlbJyAYCKujqhh0Zvd/csWbm0RLECwDfEf7/ISUgFFyvdDQaD1PwSQkKLrB1rMpuRV1x+h8x8SN2WKbirXGNswJ4l99lk2r8lbe0ToM3LxOpv06Vcc878h2HyvvqJq2Z3H8xY9Iy0twLIdRjSZgZkFhda3QQo2j/A9PTaFUIPrVcqq6kVOlnQW+92RFYuLVGsADCkpzeG+fpZ/cRdZzSifvMOq3ftX02Uv7/QPoD8yrIZsnIh9VOqwYwabv7NrlkEmM3Y8MY/pG/8a4klvh+mzLtB+FrkWoqN5fPrjdZv3u0SEmb1w2FLCi9WCDWz83D33i8rl5Yo2uM+1M9P6PGpoq52iqxcACDQy3edyPhjxUXqfqeNpPvxy0+lLgWo6ebfrLUioHbb1zh29LDwNTQaDcbO/9svG/9aw6UAaq/8yvJZIuMjO/iL/5Bf5tEJE7qXVFdZPQXuqdfDe/jAEzJzuhpFC4BgLx+hoxXL6+qGyMoFAAKDO3yha8MHUEuySos9Hhk3daLElMgByFoKUOPNv9nVigBdbQW+eedFKfEnz/kdzLFte5PW7O6DGQ/9i0sB1GYH8/N6i4wP8fVdIysXAKioabhOZHxUB/9Gg8EgdJ5OWyhbAPj6CW1iKK2q6i4rFwB4+vvvizsHhwi1KM45X7xIVj7kGGQsBaj55t/syiIga+lLUo76bW3jX0ssnfpyKYDa5L6RY/9wtrzM6gZAOq0WIb6Bcja5/KysrnaEyPiogEChPjptpWgBEOjpvVNk/LnKMqm9AAAgKSziqMj4gwV5w2XlQo5DZCnAEW7+zZqLAJzajTXffSUlZmsb/1rDpQBqizNlpfeIjO8REVVlWLksT1Y+AHC+qlqob0yEj9jDc1spWgD4+nitFRmffb7U45lxU4XepbxSTFDgZyLjT5QUeT4wavxNsvIhx/Ht4r9C29i+pQCtsU6xJj8DUodiQKrQq89XtX/3Try16FYpG/+Se/SCV+p0q8ZeahD0lHAO5LwMafN8t+Vk9xOJ0T08UqhHzNWcOl8cJzI+wNvbJidbKVoA+A1P3ebn4Wn1p4jZYkFuXfUtElNCmE7zpr+nl9An2/Higsdk5UOOoyA/H2e/erXNf19rrMMOhZr8DEgdisGLXsXgRa8qUgTIuPlrNBqMmf83WDTWvw5sSRiAGTfeJpwLOafc+oJnztdUC93HOgYFviUrHwBYOHpib5ElCQDw8/QQ2rDeVooWAAaDwdwpKFion3FBZaXUTXeGjIz6PtFxQl0Kfzqd1c0geWaCHMPyLz8Fsq9dnDff/Pfu3C49h+abv1nvCbPeU7EiQNTVOv5ZI3rOAxiWNlZCRuRs9uadE5qNjfYPaHpu/ZpvZeUDAOW1NbeKjPfS6xHv5b5RVj6tUbQAAIC4wODTIuOzy0ql9+BPCA1ZITK+ztiIk2Ulr8nKhxyHxWLBN8+1/laAxtiA3UsWKHLz7z94CAYvegVmvecv/82s98SgRa9h0DChfUdSWbPxryUWrQ69738RN9zzEHQCzcXIuTwwavxNB/Jy/UVi9I6JFTok7mqKLlaMERnfLTTi4n0rVzbIyqc1ihcAER38hCqZY8VFvk/OmCH1jNYod+8l7oIfJGtPHpv49OTJoZJSIgdSVFiAs19ffSlAa6zDzuf/jF3bNku/7oDUoUh96DWY9V7/82cWvQcGLnhJNTMB1m78a4lFq4P/+Fsw/98rMPf2+Ujp2Qv+AVY3fiMnsPtc9nOiMeIDg4X2hF3NidJioZbEHYODpJ5J0Bo3pS8Q6OP3IYAF1o43mkw4W3LhQQAPyMrpyU1rs0YmJOZvOp1lda/m0upq7dHSsncBzJSVlzO6+zuhly6k0jbW4tsFs5CfJ77h98eln2D+4HGwJAz45b/Z+sn/Ss0zAdoX78eurfILkLZqS8c/azUFxSB0+p8ROl3O7ILavTmDvceu5v6RY3/7yuYNQm+JRXbwN4VGhsppdPGzB9LGpb2Usc5DJEaEb4DUngStUXwG4IX1qw7FBQQKHbB++sJ56Z8mKRFRb4jGWHs887qnpl8v9dRCUo7Z3Vtqg5nLGwRdetXvfkWe/PsPHoLUh1696pP/lSx6DwxY8LLdlgPa0/GPyFq7c8+8LLpRdVh8l82G9PRGSSkBAAoqK6x+2AUu/f5Eenh+Iiufa7HJb2liaMQ5kfH7c891XDJv3rU//dohXK95TuR0QAAoqa7S7jt7fJmsnEh5lk59MXWenGNnm5cC1HLzb2bPIqA9Hf+IrDF/WNqibTmnhR68tBoNOoWE/lVWTs2ySktGioxPCAltMGSsPiUrn2uxSQEQGxjwk8j48rpazamikrtk5QMAhoyMptROCcIvZy8/emTo38ZPHiUjJ7KNjvPuQ1S00Emdv1j+5adY+9gNNl/zvxZ77AnwDwhA5zlCPVmIWmWYN8997clj/xSNM7hjfOkL61dJXav7y/BxnQ8X5AltTEkMCbdJA6BmNikAgv0CFmsFp11zzl/4o6R0fhEfFPwXkbMBAKC+yYjNOaelbyQh5ZjdfTBT0lKAxWJB1onjErL6tbas+V+Lrd8OmH3XIpi8uTGPlJOVfe6zrNJi638pftY7JvYDGflcLq++6u9NZrH2/XFBQVJbEl+LTQqAxetXZiaHRwqdprI151SSYeLEIFk5AcALG9fsHBKfUCAaJ+PUyeg7h40S3pFKtqPmY2etmfZvia2WA5Tc+EcEAA+OmzT828MH5ojGiQkIbOoaGWaQkNKvHC7It67l5c+89O7o6Bn0uqx82sJmO3W6hUfsEhl/sb5ek19Z+7isfJr1j45bKONJ8JuD+x58esosodc/yLbU2Gte5s2/mdJFADf+kdIMBoN288nj39Y0Ngh/WI9NTPrPwvT0Ohl5Nbt39OhRhwrzO4jE6BcTW/TX9d8InaDbXjb7jY3pEPi+aIwjRflydm9d5uVN65cO7dS5SDROSXWVdv2pY6tl5ES2YXb3wbQFwsuJ0ihx82+mZBHAjX+ktOzlqz7ade5MsGicKP8AU7xP9N0ycrpcQVmFQfSthISQUJu0/72czQqAwLEjPo/w62ASibH73Jmwh8ZMFDr44WoGxnWUMguw/uTxTrcOGvquhJTIRrRdBmGqCpYClLz5N1OiCJDZ8Y/oahaMHjcj/cC+G2XEGp/YPd2QkS7Unv5KhrQ0t11nzwwTiaHRaBDh4/eyrJzaymYFgMFgMA/s2OmgSIwmsxmnz5dK/yK99NOGL1I7xpfIiLX0wJ4//mX8pFkyYpFtdPrNA9LeCrCGLW7+zWQXAbI7/hFdzjBhQtj3hw8trTOKv64f2cHf1CcmQvrTf26D6R+5FeVCh//0iY6tfC5jrU1OALycTRftEoJDXhCNsSHr+DAlWvAOjIt/WMYsQG1jI746sO+L52fNCpOQFtmA2d0H19lpKcCWN/9msooAbvwjpW05k7v19PkSoc56zcYmJi1b8O23FTJiXW5f7lnhoqJnRPT3MnJpL5sWAC/9tOGLxNDwepEYFXW1mpMXKhbLyqnZK5vWfzQ2sbuUBgzdQsPOdXBzs8lhDiSHNnEwpsy93qbXtMfNv5loEcCNf2QLUf7+O0TPbQGAxNDwhi5RobeIZ/Rr9wwfNW9/3jmhd1893fSI7eD1N1k5tYfNf3v7xcQKH3O4Jef0bwwGg/TcUyNipgR6e1u9k8PDzQ13Dhm5bHnmka53pqdXysyNlNfjS4OtAAAY3UlEQVTpNwsQERllk2uJNPmRRaRZ0Oxb7uTGP1Lcx7t33HTnsBF3hfn6Wf2CvUajwcRuPR4x/PBDrczcACCzuOQZ0RiDOnbKe2rDhrMy8mkvmxcAMR38nxBtCnSqtMSjeO3GJySl9IsnN63Nmpbcc6k1Y8P9Opj/PHzsPW9v3yT8nirZh8XDB7MefFLx6wxIHYrBi14VavIji1nvicGLXm3XTMCwtLEInz5fwayI/uvVTRlv35g6eEDPyOgqa8aPS+x+6rUt66XvHVuYNi51S/bJBNE4SWERNuv9fyWbFwCLf1q/e2Bsp/OicTJOnVykxCxAgq/XTT0io9q1S7R3dGzN3alpg5dkrLZpEwdSQOJgTJ7zO8XCq+nm38ys98SARa9jzi13QtfKdKubmxvm3HInet3/Eixa8WlZorZasm7d/jl9esVM6J7SrrabAV5eltQuXWcrkdORwoL3G01CL7Yh1NfPHOkR8bSklNrNLgt4fWPjXhGNcay40LtwzQbpXzhDRkbTmMSke9o6SzGxe8rxG/r3jTSs/d7mOzhJGfG/XYjwiEjpcdV4829m0eoQNus+zH9/Febcehd69O6DgMBABAQGIqVnL8y99W7c/d5KhM26j+v+ZBeGlSsvrjl+NOnGAYO/aOu+gGnJvdP/ueK7w7JzeWD0+GEZp04kicYZmZD4k+zXEtvDLr/JEeNHP9U5OET4vY4NWSceMKSlucnI6XKvbFr/0fQevVs9KMJdp8OdQ0YuW338aNIj339v1dQUqZPFwwczJC8FyOjtbwtNAVEIm3kvRvzjM1z/4RZc/+EWjHzyC4TOvAdNAbbZH0HUmk/37LyhLfsC+sXEVXTpHHuTEjkcysv7UPTp38PNDfEhYQ9ISskqdikADAaDeUinLt+KxskqLfbIqzcukZHTlfoEB4zpFXX1Nadwvw7me0aM43q/E9N1TcXk2b+VEsueu/2JnNFl+wKu+vQc7ONjTuvedYwhPV28gcAVHhw1YfxPp090EY0zvHPi6RfWrzokIydr2W0uL9Ev9M8BXtbvuG+2+sSxu5dMnCf1kCAAMGRk1E/oljLe38vrVzn2iorher+L6Hz9g4iMEnvq5c2fSBk/7wuIntAt5cTl/12j0WBu7/5PL1m3br8S19129tTHJsFT/wCgZ2TM3yWkI8RuBYAh44fzIzt32ScaJ7e8zG17cfZXMnK60gsb1+yc17v/LzMMYxO7Z8/umRLH9X7XYHb3wcyF1i8F8OZPpCzDypUX15w42v3mgamfNu8LmJbSc9/b2zYp8l79HUNHPr79THaEaJw+MbGVL/201m67/5vZdTdPt6iYP3rqhTooAgB+OHpo9IPjJg2XkNL/+PeOLYsmJ/U8ctPA1M/WZx1PMKxeXabEdUilEgdj6m/b34ZcDe/5E7mKj3fvuOmuISPuGRwXf75/bPRoJa5hSJvnu+74USmFxZCOnVVxfLz0DXTt8fzaFQempfTa/+PRQ31F4tQbjdidc/o/ABQ523XlscPseOLCOv52EQbmnsHubVva9PcHDRuBgQteUv2GPyJn8sqWjNcBvL7zXI4i8TMrcpbmlF1wF43TKyq66s2tP9nt1b/L2f19nu4RUbd46YW/pth0Oiv67uFpj0hIiehXLDo9Bi56DTNuvB3aVl6B0+l0mP2HOzBg0Wu8+RM5kQVp4wcszzw8WUas4fGJ/5ARRwa7FwAvrF91aHy3pN0yYn1/+OCThunT+a4SSWfR6RE1byHmv7cSs26+A8k9ekGv18PHxwfdk1Mw59a7MP/fyxE++wFYtHadWCMiybZmZ/1Y09ggfFpc76jYi29szRA+FE8WVXxSpYRH37gh6/jx6gaxL3B+ZbnbzqzstQBSJKVG9CumoBhEzHkAEXOAUVf8WZNdMiIiJd04MPXDT3fvCJcRa2h8whMHC3JlhJLC7jMAAPDM+hUnx3dL3iYj1qrjR5PvHjb6URmxiIjIdS0YMWbQ94cP3Cwj1sC4jhfe3JrxkoxYsqiiAACA3kExM6P8A4QfoiwWC745tPefj4+cEC8jLyIickmaredyfrxYXy889e+m1WJYQuc/yUhKJtUUAIaMH85P6p7ytoxYNY2N2iqzScqGDSIicj0Lxk3pUVRZESAj1qSkHvtf2rhxmYxYMqmmAACA93duvadvTFyFSIweEVE1dwwdMf7lLevfkJUXERG5lhfXrTh84+DRHScmpRwTiRPi42vuHR4yS1ZeMqmqAACAkZ0T79JZcdqYTqvFjJ69d8wd2D9syca16xVIjYiIXMjTq5cVrj52NPm21OGLrW1dPyW5xydPbdhwVnZuMqiuAHh50/ql47slZbZnTLR/QNP8YSPv/e7wwSGGH36oVSo3IiJyPe/v2LLotsFDh/aJia1sz7ik8Mjazj6ef1QqL1GqKwAAoH9s9KSIDv5tOmtxZEJi3q29B3V9dXPGa0rnRURErmlJxrodM7skhFzfb9A3zecOtMZNq8XE7j3uMmRkqPYNYVUWAE+tWZM7s0fvVk9h8fPwtNw5dMQHm05nxT65aY0yvR+JiIh+ZsjIaPpi367Zdw1Lu6VTYLCxtb87vUefTWo48Kc1qiwAAOCtbZsM47omnbran/WIjKq+c9jIcW9v23ybrfMiIiLX9sqm9R/dMGhUixsEu4aF1/UKSphq67zaS7UFAAAM7hQ7JvKypQC35o1+A/qHv7BhzQZ75kZERK6reYPgHUNGvHD5BkE3rRaTu/X4kyEjvdqe+bWFqguAp9asyZ3Ro89fNRrNpY1+Q0few41+RESkFu9u3/zQH1OHD2l+hX1Gz74ZL29e/6m982oLVRcAAPDWtp+e+8PA1PdvGTG808/HPRIREanGCxvX7JwxZHD4TQNTP+sZF6X6qf9mqjgM6Fo+3LX9dnvnQERE1BJDenojgBvtnUd7qH4GgIiIiORjAUBEROSCHGIJgKjZhbMncWzN18g/tANVJfkw1tfZNR+9pxf8wqIR03sIksbPQVDHRKnx35yRIjWeo7n7u6P2ToHIabEAIIdgMjZi63vPInPVl7BYzPZO5xfG+jqUnTuFsnOncHj550iZ9BsMu/0RaN309k6NiKhVLABI9UzGRiz/+53IP7zL3qm0ymI24ciKL1Cel41pT7zNIoCIVI17AEj1tv77X6q/+V8u/9BObH3/OXunQUTUKhYApGoXzp5E5up0e6fRbkdXLkXZuat2siYiUgUWAKRqx9Z8rao1/7aymE04vvZre6dBRNQiFgCkankHt9s7BavlOnDuROT8WACQqlWXFto7BatVlRTYOwUiohaxACBVM9Y77rlPxroae6dARNQiFgBEREQuiAUAERGRC2IBQERE5IJYABAREbkgFgBEREQuiAUAERGRC2IBQERE5IJ4GiA5tf05RULj+8ZHSMrEOnd/d9Su1yci58UZACIiIhfEAoCIiMgFsQAgIiJyQSwAiIiIXBALACIiIhfEAoCIiMgFsQAgIiJyQSwAiIiIXBALACIiIhfEAoCIiMgFsQAgIiJyQSwAiIiIXBALACIiIhfEAoCIiMgFsQAgIiJyQW72ToBISX3jI+ydgpA3Z6TYOwWHdvd3R4XGi379Ra9PpCTOABAREbkgFgBEREQuiAUAERGRC2IBQERE5IJYABAREbkgFgBEREQuiAUAERGRC2IBQKqm9/KxdwpWc/f2tXcKREQtYgFAquYb4riNfHxDI+2dAhFRi1gAkKrF9hlq7xSs5si5E5HzYwFAqpY0fg40Wp2902g3jVaHpPFz7J0GEVGLWACQqgV1TETKpN/YO4126zHlegTGJtg7DSKiFrEAINUbdvsjiOmdau802iym9xAMve0he6dBRNQqFgCkelo3Pab+31voMfUGVS8HaLQ69Jx2I6Y+8Ra0Oh60SUTqxk8pcghaNz1G/OkxpEz6LY6v/Rq5B7ejqjgfxvpau+al9/SGX3g0YvsMRdL4OZz2JyKHwQKAHEpQXBcMvf0Re6dhMzxP3r749SdnxiUAIiIiF8QCgIiIyAWxACAiInJBLACIiIhcEAsAIiIiF8QCgIiIyAWxACAiInJBLACoVRrBjnbGuhpJmRC5lsbaaqHxWp1eUibkrFgAUKt0ek+h8dXniyRlQuRaqksLhcbr3MV+d8n5sQCgVrl5+giNzz2wTVImRK4l9+B2ofE6D29JmZCzYgFArfIMCBcaf2zt17CYTZKyIXINFrMJx9Z8JRTDKzBCUjbkrFgAUKu8giKFxpedzcLRVV9KyobINRxZ8QXKc08LxRD93SXnxwKAWuUX2UU4xtb3nkXewR0SsiFyfnkHt2Pb+88Lx/GLTJSQDTkzFgDUKv/YZAAaoRjmJiOW/+MuHFn+OZcDiFpgMZtw+MdPsfzvd8FsahKMpvn5d5eoZTwOmFrl7hMA34h4VBdlC8UxNxmx+Z2ncHTVUnQfPwexvYfALzwaek9uVCLXZaz///buNUauuozj+Hd2OstuaSsFetlide1aWosUKCVQQeUOgnjjjYqa4BtMvCRiTIzyYpRggom+QKLERGKMEC+p14JcCipCUYG2FinlUllY6bZdbu22u9tOd8cXwxoE2t3tOWf+/3Pm+0n6cp55ks6eeZ7fucwQgzuep2/jOh6/e3Xi2H/czK4eKtNnpVJLxeUAoAnNXXZW4gFg3EvPPc26H1+fSi1Jb27OsrNCt6Ac8BSAJjRn6ZmUK0eEbkPSJJQrRzBnyarQbSgHHAA0oWmdM5i3/JzQbUiahPknnce0zhmh21AOOABoUo5b+UFTACly5fYOFqy8NHQbygkHAE1K+4zZvPWMj4ZuQ9IhLFx1Oe1HHhW6DeWEA4Am7biVl3Dk3O7QbUh6EzPmdbNgxUWh21COOABo0kptZZZe9iXK7Z2hW5H0GuVKB8df8gVKbeXQrShHHAA0JR1HzWPxxZ+jVPKjI8WgVGrj+Es/76N/NWUexeO3P8mL64mfKPZGxyxeyaLzr0y9rqSpKtFzwWc5umdF6pXHRmtJSyQ6dil7DgDx25PkxaO1kbT6+D/zl5/L4ouvMnKUAimV2ui54ErmnZjNLbqj+xMfOwbT6EPZcQCIX6I/ogMje9Pq4w3mnvA+llz2JcrtHZm9h6Q3Krd3svTDX2b+8vMye4/RfUNJSzgARM4BIH6J/ohGXtmRVh9v6ph3ruSkT13n3QFSk8yY183Jn74uk9j/tYZf3p60xO40+lB2HADi91ySFw+/1J9WHwfVOXs+J13xLd5xzqdNA6SMtFXaWbjqYyz/xDfpOGpe5u+XwrHj2TT6UHb8MaD4PZ3kxYP9T9NF9vcGl9rKLFhxMccuOYPnH1rDjk33Mlrbl/n7SkVXrhzBvOXncdxplzb1IT+D/U8lLZG4gLLlABC/RAPAK889BtSBUjrdTKD9yKN4x9mfYuHpH2FgyzoGHn+Awf6tr/YgaXJKzOzqYc6ys5izdBXTOpr9bP86u/oeT1ok0bFL2XMAiN9jSV5cG9rFnu3PMGP+orT6mZRpnTPoOuVCuk65kNrQbnb1bWaw/ymGX+xnZPdOakODjNZGMrlNUcqLUnka5UoHlekz6Zg1l85jupjZtZi3LFxGZfqsYH0N9m+lNrQraZnEE4Sy5QAQv78DNaByuAV2br6/6QPAa1Wmz+LYJWdw7JIzgvUgafIGNt+ftEQN+EcKrShDXgQYv73AxiQFBrY84Pl4SZMyWtvHwBMPJi3zCJD4PkJlywEgH/6a5MUHhvewY9Of0upFUoFt/+c9HBhO9PwxSHjMUnM4AOTDmqQFnn94jSmApEMa3T/CtodvS6NU4mOWsucAkA9/ARLdlLt/z8v852+/SakdSUXU9+Bq9u99JWmZ7UDiiwiUPQeAfBgDfp20yPMP387enb3Ju5FUOHt29LJt/Z1plPoVjWOWIucAkB8/S1qgPjbKE2tuTONHPiQVyOj+YZ5YcwP1sdE0yiU+Vqk5HADy4280bglMZPjlfp6644fU6w7okqBeH+PJ23+Q1u+GrMPb/3LD33LNl73A5UmLDL+0jdreXZn/mIik2NXZevfNvLAl8W1/464GNqdVTNlqzvNhlZYKjedrvz2NYvOXn8ui86+kVDIIklpNvT7G1rU3p3mL8FZgKeDjPXPCBCBfxoAXgI+lUWzPjmcYGuhj9qJTaCv7UEipVTTO+X8/zc0f4PPApjQLKlsmAPnTBjwEpJbfd86ez5IPfpEj53anVVJSpPbs6OWJNTekdc5/3EPA6firX7niAJBPZwP3kuL/X6mtzIJTP8DCVR+lXOlIq6ykSIzuH6HvwdVsW39nWlf7j6vTOCbdl2ZRZc9TAPnUCywATk2tYr3O4LYn2fmv+yiV2pg+522eFpAKYLS2j+0b7+LJ227klWcfhXrqS/pNwA/SLqrsmQDk10zgUVK6IPD1pnXOYM7S9zDnXWcys6sHPypSntQZ7N/KwOb7GdjyIAdGEj/b/2CeAZYDmb2BsuNRPd/OBe4i4ySnMn0Wb1m4jJldi+k8pouOWXOpTJ9JudJByZRACqY+eoDR2gi1oUFGdu9k+MV+BvufYlffZmpDu7N++wPA+TQeVa4ccgDIv68C3wndhKSW8xXge6Gb0OHzGoD8Wwd0AycH7kNS67iVxvKhHDMBKIbpNE4FnBm6EUmFdz9wITAcuhEl4wBQHLOAtcBpoRuRVFgbaFx7lPg3gxWeA0CxHE3j+QAnhW5EUuFsAM4DXg7diNLhQ+CL5SXgvcAdoRuRVCj3AOfgl3+heBFg8ewHfgHMJ80HBUlqVT8BPg4MBe5DKXMAKKYx4DYa5+nOAbxZX9JU7aNxq9/XaRxTVDBeA1B8JwA/B94duhFJubEF+ASwMXQjyo4JQPENAD8F2mncIeD/uaSDqQHfBT4J9AXuRRkzAWgtxwM3ABeFbkRSdP4MfAF4LHAfahLvAmgtTwIX07hTYG3gXiTF4QHgQzTu7/fLv4WYALS29wFXA5cAlcC9SGqeGnA7jbj/r4F7USAOAAKYC1wBfAZ/U0Aqso00rgm6BdgZuBcF5gCg11tA4znfFwJnAQvDtiMpgT4az+6/69V/28K2o5g4AGgis4ETgdOB6/EzI8XuGhpf+pvwyX06BA/mmorf0bhYKJGvXXst3Yt6UmhHKoa+3l6+fc03qNfrSUvdTSO9kybkXQCaiiqQ+Ah1+29+m7wTqUD+sHp1Gl/+ANemUUStwQFAU7EB+EPSIpvWP0Lvv7em0I6Uf329vTy6YX0ape7GK/o1BQ4AmqoqpgBSatz+FYoDgKbKFEBKidu/QnIA0OGoYgogJeb2r5AcAHQ4TAGkhNz+FZoDgA5XFVMA6bC5/Ss0BwAdLlMA6TC5/SsGDgBKooopgDRlbv+KgQOAkjAFkKbI7V+xcABQUlVMAaRJc/tXLBwAlJQpgDRJbv+KiQOA0lDFFECakNu/YuIAoDSYAkgTcPtXbBwAlJYqpgDSQbn9KzbTQjegwhhPAT6UpMh4CtC9qCedrlRon7vik4lef9Mtt6bUyaG5/StGJgBKUxVTAOkN3P4VIwcApclrAaTXcftXrBwAlLYqpgDS/7j9K1YOAEqbKYD0Krd/xcwBQFmoYgoguf0rag4AyoIpgFqe279i5wCgrFQxBVALc/tX7BwAlBVTALUst3/lgQOAslTFFEAtyO1feeAAoCyZAqjluP0rLxwAlLUqpgBqIW7/ygsHAGXNFEAtw+1feeIAoGaoYgqgFuD2rzxxAFAzbADWJC1iCqCYpbj9r8XtX03gAKBmqWIKoAJz+1feTAvdgFrGehopwGVJioynAN2LetLpSrl20y23hm4BSH37vy+NQtJETADUTFVMAVRAbv/KIwcANdN4CpCI1wIoJm7/yisHADVbFVMAFYjbv/LKAUDNZgqgwnD7V545ACiEKqYAKgC3f+WZA4BCMAVQ7rn9K+8cABRKFVMA5Zjbv/LOAUChmAIot9z+VQQOAAqpiimAcsjtX0XgAKCQTAGUO27/KgoHAIVWxRRAOeL2r6JwAFBopgDKDbd/FYkDgGJQxRRAOeD2ryJxAFAMTAEUPbd/FY0DgGJRxRRAEXP7V9GUQjcgvcbvgctCNyFlaC1wQegmJHAAUFxWAA/j51LF9X6M/xUJTwEoJqlcCyBFynP/ioqblmJjCqCicvtXVEwAFBtTABWR27+i45alGJkCqGjc/hUdEwDFyBRAReL2ryi5YSlWpgAqCrd/RckEQLEyBVARuP0rWm5XipkpgPLO7V/RMgFQzEwBlGdu/4qam5VitwJ4CIdV5UsdeC/wQOhGpIPxoKrYrQd+FLoJaYp+il/+ipwJgPKgA/gjcHbgPqTJWEfjB3+GQjciHUo5dAPSJBwAfgkcDZyKg6viNAbcDFyBX/7KAQ+kypsTgauAc4FuoDNoN2p1w8CzwJ3AjcDTYduRJEmSJEmSJEmSJEmSJEmSJEmSJEmSJEmSJEmSJEmSJEmSJEmSJEmSJEmSJEmSJElSEv8Fu+N5yZ6X+aMAAAAASUVORK5CYII=;sketch=0;" parent="1" vertex="1">
          <mxGeometry y="780" width="125" height="125" as="geometry" />
        </mxCell>
        <mxCell id="DlE1reFhoXXIZxfw-ELK-14" value="Guarda los datos para análisis&amp;nbsp;" style="edgeStyle=orthogonalEdgeStyle;rounded=0;orthogonalLoop=1;jettySize=auto;html=1;sketch=0;strokeColor=default;entryX=0.5;entryY=0;entryDx=0;entryDy=0;" parent="1" source="DlE1reFhoXXIZxfw-ELK-11" target="DlE1reFhoXXIZxfw-ELK-11" edge="1">
          <mxGeometry x="0.3563" y="-16" relative="1" as="geometry">
            <mxPoint x="302" y="540" as="targetPoint" />
            <Array as="points">
              <mxPoint x="480" y="620" />
              <mxPoint x="480" y="520" />
              <mxPoint x="385" y="520" />
            </Array>
            <mxPoint as="offset" />
          </mxGeometry>
        </mxCell>
        <mxCell id="DlE1reFhoXXIZxfw-ELK-11" value="" style="shape=image;imageAspect=0;aspect=fixed;verticalLabelPosition=bottom;verticalAlign=top;strokeColor=#000000;image=data:image/png,iVBORw0KGgoAAAANSUhEUgAAAgAAAAIACAYAAAD0eNT6AAAABHNCSVQICAgIfAhkiAAAAAlwSFlzAAAMOAAADDgB22m8jwAAABl0RVh0U29mdHdhcmUAd3d3Lmlua3NjYXBlLm9yZ5vuPBoAACAASURBVHic7d15nF11Yf//15kl2yTkJCEQyEYIIMi+I1pBFhFE8ViX1lr92vrtz9YudnNpq79a269L26+11Wrbb1u/1paKheNuBVTABSL7vgQIkIQkJCEHMkuSycz5/nFvIPtM5px7P/fe83o+HvNIMnPnc95kyJz3fM45n0+U5zmSJKlaukIHkCRJzWcBkCSpgiwAkiRVUE/oAJI6V5RmETALmAscvNuvs4EIGAa21992/v3Ofx4G1gFPAU/lSby5qf8hUgeKvAlQUhFRmi0CTqq/nQgczq4n+e4GHDajXgb28rYSWJknsd/cpP2wAEgalyjN+oATePFkfzK1E34cMtc+PAf8DFgG3AIsy5N4Q9hIUmuxAEjaqyjNDgFeDVwCnAMspTZl364eo14G6r/elSfxcNhIUjgWAEkARGnWC5xL7YR/CXAq7X3CH8sW4E7gh8A1eRLfHjiP1FQWAKnCojRbyosn/AuA6WETBfUkcA1wNXBznsSjgfNIDWUBkComSrMFwDuBdwDHBI7TqtYAX6NWBm7Mk3h74DxS6SwAUgVEaTYJuAL4FWrX9V0DZPw2At+gVgauy5N4W+A8UiksAFIHi9LsJGon/bcDcwLH6QRrgb8HvpAn8frQYaQiLABSh4nSLAZ+kdqJ/4zAcTrVFuA/gL/Jk/je0GGkibAASB0iSrN5wB8C7wGmBY5TJT8A/gb4losPqZ1YAKQ2F6XZ4cD7gV8DpgaOU2XLgb8FvpgncX/oMNJYLABSm6rfzf9B4N3A5MBx9KLngC8An8iTOAsdRtoXC4DUZupr73+I2jX+SYHjaN82Ah8FPu9jhGpFFgCpTURpthj4Y+B/AL1h0+gAPAy8P0/ib4QOIu3MAiC1uPoSvX8AfBiv8bezG4Dfz5P4jtBBJLAASC0tSrPzgM8Dx4XOolLkwJeAP86TeHXoMKo2C4DUgqI0mwv8JbUle9V5BoG/Bj6ZJ/FA6DCqJguA1EKiNIuo3dX/CWB24DhqvMeAX86T+ObQQVQ9FgCpRdSX7f0C8LLQWdRUI9QK30fzJB4OHUbVYQGQAqvf5Pcx4PeBnsBxFM7t1GYDHgwdRNVgAZACitJsIfAV/KlfNUPUFnf6O5cVVqNZAKRAojS7jNod4e7Sp91dB7zLJwXUSBYAqcmiNOumNuX/QSAKHEetaxPw63kSfyV0EHUmC4DURFGaHQb8J/DK0FnUNv4JeK83CKpsFgCpSaI0u5DaHvKHhM6itvMD4E15Em8KHUSdwwIgNViUZl3UlvH9CNAVOI7a18PA5XkSPxo6iDqDBUBqoCjNJgP/Dvx86CzqCBuBN+ZJfFPoIGp//jQiNUiUZjOA7+LJX+WZA1wXpZlLRKswZwCkBojS7BBqJ//TQmdRx/o4tU2F/CauCbEASCWL0uwI4Frg6MBR1PmuBt6RJ/Fg6CBqPxYAqURRmp0IfA84LHQWVcYtwKvzJN4cOojai/cASCWJ0uwVwE148ldznQN8J0qzvtBB1F4sAFIJojR7HbVp/zh0FlXSK4BvRmk2NXQQtQ8LgFRQlGZvBq4B/OarkF4FpPVHT6UxeQ+AVECUZhdQu9t/UugsUt23qK0V4NLB2i8LgDRBUZqdAtwIHBQ6i7Sba4C35km8PXQQtS4vAUgTEKXZkdR+8vfkr1b0RuDf6jtPSntlAZAOUH2Rn+8B80JnkfbjF4B/qe9FIe3B/zGkAxCl2XTgO8BRobNI4/AO4C9Ch1Br8h4AaZyiNOsFvg1cHDqLdIB+IU/ir4QOodZiAZDGIUqzCPgy8LbQWaQJGARenifxXaGDqHV4CUAan/+FJ3+1r2nA16I0mxs6iFqHMwDSGKI0ey3wTSAKnUUq6EbgIh8PFDgDIO1XlGbzgS/iyV+d4TzgM6FDqDVYAKR9qD9DfSVwcOgsUol+I0qzd4cOofAsANK+/Snwc6FDSA3wuSjNzg0dQmF5D4C0F1GaXUhtdz9LsjrVWuDEPIk3hA6iMPzmJu0mSrNDgX/Hfx/qbPOAz4YOoXD8BiftpL5s6peBQ0NnkZrgrVGavSF0CIVhAZB29SHgotAhpCb6fJRms0KHUPNZAKS6KM1OBz4aOofUZPOAT4cOoebzJkCJF5b6vQU4K3QWKZDL8iT+bugQah5nAKSaX8WTv6rtH6M0Oyh0CDWPBUCVF6XZbODjoXNIgS0A/jJ0CDWPBUCqbfTjan8S/Fp9DQxVgPcAqNKiNDsDWIZlWNphBXBcnsRbQwdRY/lNT5VVv/Hvc/jvQNrZEuA3QodQ4/mNT1XmjX/S3v2xNwR2PguAKskb/6T9mgO8P3QINZYFQFX1F3jjn7Q/74vSbF7oEGocC4AqJ0qzIwD3Q5f2rw/4SOgQahyfAqiIKM0OAU4GTgIOA6bW36bs9uvOv98OrAJW13/d5fftuo1olGafw5ucpPHYDrw0T+LloYOofBaADhOlWS9wHLUT/ck7/dqI3e22UisEjwA/BK4H7sqTeLQBxypFfavfJ6iVHEljuypP4reGDqHyWQDaXH372lcCbwFeTu3k3xsw0rPUysD3getb7SeHKM0+AXwgdA6pjeTAmXkS3x46iMplAWhD9efXzwXeCryZ2m5erWoltTLwfeA7eRI/GypIlGYx8BQwI1QGqU1dnyfxxaFDqFwWgDYSpdlZ1E76b6G2bne72QJcCXw2T+I7mn3wKM3+BPhYs48rdYgz8yS+LXQIlccC0OKiNDua2h3rbwGOCJumVDcDnwX+K0/ibY0+WJRm04An8dE/aaK+mCfxu0KHUHksAC2q/qjaR4B3AN1h0zTUOuAfgX/Ik3h1ow4SpdnvAH/TqPGlCtgCLMiTeGPoICqHBaDFRGk2H/gTasvUhryZr9m2AynwN3kS/7TMgaM0mwQ8RnteNpFayfvzJHbL4A5hAWgR9ef0PwS8Bx9RuxL4/TyJ15QxWJRmvwr8nzLGkipuBXBUKz/qq/FzJcDAojSbHaXZx4HHgffhyR/gF4GHozT73SjNekoYz0V/pHIsAS4LHULlcAYgkCjNuqlttvFBwF239u1e4L15Ev9oIp8cpdlxwAPlRpIq7b/zJL40dAgV5wxAAFGaLQZuBP4XnvzHciJwU5Rm/7d+meRA/VLZgaSKuyRKs6NCh1BxFoAmi9LsrcBd1Fbt0/i9g9plgd+sz56Mqb5gkgVAKlcE/HroECrOSwBNEqVZH/B3gM/RFvcT4I15Ej+zvxdFafZy4MfNiSRVyiZqjwQOhg6iiXMGoAmiNDsduBNP/mV5OXBrlGYnjfG6tzcjjFRBs/BmwLZnAWigKM2iKM3+kNqqd0eHztNhFgE/jdLsDXv7YH1XxDc3N5JUKXv9t6f2YQFokPrGM98DPkW1FvRppj7gmijN/mgvH7sUmNPkPFKVvLakx3QViAWgAaI0m0Nt9zt3z2q8CPiLKM2+HKXZzmsoePOf1FgxcF7oEJo4bwIsWf1RteupPb6m5lpGbVpyEFgLTA0bR+p4n82T+LdCh9DEOANQoijNDqf2fL8n/zDOBm4F/hRP/lIzXBE6gCbOGYCSRGm2CPgBsDR0FklqotPzJL4jdAgdOGcAShCl2VLgR3jyl1Q9Pg3QpiwABUVpdixwE7XH0iSpaiwAbcpLAAXUN5q5AZjIGvWS1CmOzJN4RegQOjDOAExQlGYzgBRP/pLk7oBtyAIwcf8CvCR0CElqAWeHDqADZwGYgCjNfhd4U+gcktQizgodQAfOewAOUH2HuRsAl8CUpJocmJUn8XOhg2j8nAE4APVV/q7Ck78k7SwCzggdQgfGAjBOUZp1A/8JHB46iyS1IC8DtBkLwPj9OfCq0CEkqUVZANqMBWAcojR7LfCB0DkkqYVZANqMNwGOob7F7EPA4tBZJKnFzc+T+OnQITQ+zgCM7X148pek8XAWoI1YAPajftf/H4XOIUltwgLQRiwA+/cxYEboEJLUJo4LHUDjZwHYhyjNTgB+NXQOSWojC0IH0PhZAPbtr4Hu0CEkqY0sDB1A4+dTAHsRpdllwLdD55CkNpMDU/Ik3hY6iMbmDMBuojTrAf4qdA5JakMRMD90CI2PBWBPv4I3skjSRHkfQJuwAOzpN0IHkKQ25n0AbcICsJMozU4HTg6dQ5LamDMAbcICsKtfCR1AktqcMwBtwgJQV1/z/22hc0hSm3MGoE1YAF6UAHHoEJLU5pwBaBMWgBe56p8kFXdQ6AAaHwsAEKXZEcAFoXNIUgfoCR1A42MBqPkf1BawkCQV0xs6gMan8gUgSrOIWgGQJBXnDECbqHwBAM4AFocOIUkdwgLQJiwAcG7oAJLUQbwE0CYsABYASSqTMwBtwgJgAZCkMlkA2kSlC0CUZgtx1SpJKpOXANpEpQsA8LLQASSpw3TVn65Si6t6AXD6X5LK52WANmABkCSVaXv9TS2usgUgSrOpwCmhc0hSh9mQJ3EeOoTGVtkCAJyJN6tIUtmeCR1A41PlAnBS6ACS1IEsAG2iygVgbugAktSBLABtosoF4ODQASSpA1kA2oQFQJJUJgtAm7AASJLKZAFoE1UuAHNCB5CkDmQBaBNVLgDOAEhS+SwAbcICIEkqkwWgTVSyAERpNh2YHDqHJHWYEWBN6BAan0oWAPzpX5Ia4ZE8ibeEDqHxqWoBmB06gCR1oLtCB9D4VbUAuFOVJJXv7tABNH5VLQADoQNIUgeyALQRC4AkqSxeAmgjFgBJUhmeyZN4begQGj8LgCSpDP7032YqWQDyJB4FfFRFksrj9f82U8kCUOcsgCSVxwLQZiwAkqQyeAmgzfSEDhBQf+gAktRBLo7S7DXAFCAHngc27/T2/G6/78+TeCRQVgFRnuehMwQRpdnPgDND55CkChsEVgKPAA/v/JYnsZsKNViVC8A1QBI6hyRprzJqZWBHObgPuClP4k1BU3WQKl8CWBE6gCRpn2Lg7PrbDqNRmt0F/KD+9qM8ib2cO0FVngF4L/DZ0DkkSRM2DPyMFwvBzXkSbw0bqX1UuQBcCnwndA5JUmmGgB8BVwJX50m8OXCellblAvAS4KHQOSRJDTEIfA34EnC9TxzsqcoFYDK1thiFziJJaqg1wH8A/5YnsQsW1VW2AABEabYKmB86hySpae4B/o1aGVgXOkxIVV4JEODx0AEkSU11EvCXwBNRmv19lGZHBM4TTNULgI8CSlI1TQF+HVgepdkXozQ7NnSgZqt6AXgsdABJUlA9wDuB+6M0uypKs1NCB2qWqheA20MHkCS1hC7gzcCdUZp9O0qzc0MHarSq3wQ4B9gQOockqSV9H/jtPIkfCB2kESpdAACiNHsYOCZ0DklSSxoGPg38WZ7EHbWNfNUvAQDcHDqAJKll9QLvBx6M0qyjNpCzAFgAJEljWwhcU78/4MjQYcpgAbAASJLG7zJqTwx8uL6ibNuyANT2mHbDCEnSeE0B/gy4N0qz80KHmajKF4A8iUeBZaFzSJLaztHAD6I0+0iUZm13Pm27wA3iZQBJ0kR0AR8FrovSbF7oMAfCAlDzk9ABJElt7QLgrijNLgwdZLwqvw4AQJRmk4D1wEGhs0iS2too8OfU1g0YCR1mf5wBAPIk3gZ8J3QOSVLb6wI+AlwfpdlhocPsjwXgRdeEDiBJ6hjn0+KXBCwAL/ousCV0CElSxzgE+G6UZm8LHWRvLAB1eRL3A9eGziFJ6ii9wJejNHtf6CC7swDsKg0dQJLUcSLg01GafTx0kJ35FMBOojSbDawDekJnkSR1pH8F/mcrPCHgDMBO8iR+FrgxdA5JUsd6F5BGaTY1dBALwJ68DCBJaqTXUVs5cFbIEF4CqIvSbCbwVuDdwJmB40iSOt99wAV5Eq8PcfBKF4AozbqBVwPvBK6gtsOTJEnNcjtwfv1JtKaqZAGI0uwEaif9XwJaeqUmSVLHux54bX1V2qapTAGI0mwu8IvUTvynBY4jSdLOvgK8rb5FfVN09ONu9U1+XkvtpH8ZtQUZJElqNW+ltindbzXrgB05AxCl2QLgD6lN8c8JHEeSpPH6kzyJ/6IZB+qoAhCl2aHAh4D3AJMDx5EkaSJ+LU/if2r0QTqiANRX8Hs/tamTaYHjSJJUxAjwpjyJv9bIg7R1AYjS7CDg94DfBQ4KHEeSpLIMAWfnSXxvow7QlgUgSrM+aj/t/yEwO3AcSZIa4SHgjDyJBxoxeFs9BRCl2RRq1/c/RG2fZUmSOtWxwOeBdzRi8LaYAYjSrJfaEr1/DMwPHEeSpGb6lTyJ/7XsQVu+AERpdgm1BrQkdBZJkgIYBM7Kk/j+Mgdt2QIQpVkM/G9qWydKklRlDwBn5kk8WNaALbkdcJRmrwPux5O/JEkALwU+V+aALTUDEKXZHOBvgbeFziJJUgt6Z57EXypjoJYpAFGaXQR8GTg0dBZJklrUAPDSPImfKjpQ8EsAUZp1RWn2EeB7ePKXJGl/+oDPlDFQ0BmAKM0OpvZT/yXBQkiS1H4uz5P420UGCFYAojQ7B7gKWBgkgCRJ7WsFcHyexEMTHSDIJYAozd4L3IQnf0mSJmIJ8EdFBmjqDECUZhHwCWo790mSpInbBpyYJ/EjE/nkps0A1Jfz/b948pckqQyTKLA2QFMKQJRm04FvAr/cjONJklQRF0Vp9taJfGLDLwFEaTYX+A5wRkMPJElSNT0NHJsn8eYD+aSGzgBEaXYY8BM8+UuS1CiHA+870E9q2AxAfVnfG4HjG3IASZK0w0bgiDyJ+8f7CQ2ZAYjSbCa1lf08+UuS1HhzgPccyCeUPgMQpdk04Frg5aUOLEmS9mctsCRP4i3jeXGpMwBRmk0Gvo4nf0mSmm0e8O7xvri0GYD6Ij9fBX6+lAElSdKBWgkszZN4eKwX9pR40A/iyX9C3rz2J0wb3Ro6hiQ1xWDXZL46z4niBlkIvAP457FeWEoBiNLs1cCflzFWFR07sJrpIxPez0GS2kp/99TQETrdB6M0+2KexCP7e1HhewCiNDsC+I8yxpIkSYUdBYy5OmChk3aUZlOAa6g9fiBJklrD7431gqI/tX8BOLXgGJIkqVynR2n20v29YMIFIEqzNwPvnOjnS5KkhnrH/j44oQJQ3+BnwlsQSpKkhvulKM32eZ6f6AzA54C5E/xcSZLUeAuAV+3rgwdcAOpT/28ukkiSJDXFL+/rAwdUAJz6lySprfx8fY+ePRzoDMDf4dS/JEntYjrwxr19YNwFIEqzcxjHwgKSJKml7PUywIHMAHyipCCSJKl5LozS7PDd3zmuAhCl2WXAeaVHkiRJjdYNXLb7O8csAPVnCD/eiESSJKkpLtj9HeOZAXgbcFL5WSRJUpPssR7AfgtAlGa9wJ81LI4kSWqGeVGaHbvzO3rG+IQ3A0sal0dqDb29PURRsb2xcnKGtw0XztLd3U13d3fhcYaHh8nzvNAYURTR29tbOMvIyAgjI/vdmnxceif1EhEVGiPPRxke3l44S09PD11dxXdB37ZtW+Exurq66OkZ69v52Mr6OqllXQA8tOMPY/0f81uNzSK1hte9/lIOObTYEhf9/QN8+UtfKZzlpJOP5+xzzig8zlev+jobN2wsNMbsObN581uuKJxl2S23cecd9xQe562/8EamT+8rNMYz69ZzzdXfLJzl7HPO4MST9rvZ2rh86YtXMjg4VGiMeYcdyuuvuLRwlptu+ikP3PfQ2C9Uu3oV8Pc7/rDP+hql2enAOc1IJEmSGu78KM1emELb3/yVP/1LktQ5DgZO3PGHvRaAKM0OxlX/JEnqNC88DbCvGYD/CUxpThZJktQkL6wHsK8C8GtNCiJJkprnrB2/2aMARGl2BnBEM9NIkqSmmBel2UGw9xmAvW4bKEmSOsJLwAKgkk2ePJlZs2Jmz5nFlCneRiJJLeglsNtCQFGaHb/jA9JYoijisMPnsWTJIhYtWsD0GdP3WMFudHSUgYFBVq1czYoVT7J61RpXGpOksPYsAPjTv8ahp6ebE086npNPOZEpUybv97VdXV3MmDGd4176Eo576UsYHh7m/vse4s477mHr1q1NSixJ2okFQAfu2OOO4cyzTqOvb9qEPr+3t5dTTj2R4156DHfcfg/33nM/o6OjJaeUJO3HMbBTAYjSbD5wSrA4amnd3d2cf8ErOPropaWMN3nyZF527pksWryAa//7B84GSFLzHBOl2S7bn50bLIpa2rRpU7niDZeVdvLf2fz5h/Hzb3o9s2bFpY8tSdqrqcDCnQvAy0IlUevq7e3l8te9pvBOeftz0MwZvP6KSwvv8iZJGreXWAC0Xxdc+Epmz5nV8ONMnTaV11x2USl7mkuSxnR0F0CUZpOB0wKHUYs5/YxTWHLk4qYd7+CD53De+S9v2vEkqcJm7/hx63RgUsgkai19fdM49bSTm37co49Zyv33Pcjatc809bgrHn+CDRs2Fhpj65ZybmTcsH4jD9z/UOFxtmzZUsoYZWTZsL7Y3+0Oyx9+lMljPHo6ls3Pby4ly5q16+ju3t+O6uMzvH174TEGBwZL+Tpt2pgVHkNtY0aU5zlRmv0+8Feh01TVhx+7iukjQ6Fj7OL8V72CY487Jsix165Zx9fSbwc5tqTG6++eyseWviV0jKr7/I76enbQGGopM2cexEuOPTrY8ecddiiLFi0IdnxJqoAZOwrAUUFjqKUsPWoJURQFzXDU0UcGPb4kdbiDdhSAI0KmUGs5Yknzbvzbl8VHLKSrq/j1VUnSXs3oqu8L3PjnvNQW+vqmccghB4eOweTJkznssENDx5CkTjWjC1gSOoVax+w5s0NHeEErZZGkDjOjC6f/tZOJbvLTCNP6poaOIEmd6iALgHbRUgVgmgVAkhrEGQDtasqUKaEjvGDy5GILvkiS9mlqFzA/dAq1jqGh1lmQaMtQ8ZXsJEl7NdgFuAWbXjAwMBg6wgsGB1unjEhSh+m3AGgXFgBJqoTNFgDtYsP6DeR5HjoGAOuf2RA6giR1KmcAtKstW7ayZs260DEYHBxk3brm7ggoSRXiDID29MSKJ0NH4IkVT4WOIEmdzBkA7emxR1cwMjISNMMjjzwW9PiS1OGcAdCeBgYGue/eB4Id/8knVrK2BS5DSFIH6+8BekOnUOu54/Z7OPa4Y5q+GE+e5yy75bamHhPg5175MmbNLrYn1tDAINddd0PhLEcffSTHHX9s4XFu/OGPee655wuNMXPmQZz3qlcUzvLg/Q+xfPnjhce5+OLzmVpwtcpNz27iRzfdXDjLCSccx5FHFd9K5Xvf/T5bt24tNMacg+fw8lecXTjLPXfdxxNPePmtIjb3AP3AzNBJ1Fq2bt3KLTffynnnF//mfyDuuft+nn12U1OPCTB37sEccujcQmP09w+UkmX6jOkcfvi8wuP09Bbv9j29vaVkWfnUqsJjABx62KFMn15s0rKnu7uULDPjmaX83XR3F9/2evLkSaVkefTR4iVNbeP5LmBz6BRqTQ8+8EhTLwWsfGoVt9x8a9OOJ0kV9kQXtRkAaa9+8uNlrFq5uuHH2bQp47prb2iZNQgkqcMttwBov/I857+/ez2PlnD9dl/WPL2Wb3ztO2zbtq1hx5Ak7WJ5D14C0Bi2bx/h+utuYNOmjDPPOq3UsR944GF+fNPNjI6OljquJGmfns+T+JkdNwFKY7r9trtYvXoN5557VuEb5rJNz3HzzbfypHccS1KzLQdwBkAHZO2adVxz9TdZetQSTj3tZA4+ePYBff5z2XPcfff9PPTgI/7UL0lhvFAAnAHQAXvs0RU89ugKpk/vY/ERi1i4aD4HzZhB3/RpL6wdsG3bMAMDA/Rv7mfVqjU8+cRTZNlzgZNLUuU5A6Di+vsHuP++B7n/vgdfeF9PTzdR1MXw8HDAZJKkfXihAJSzQodUt337CBB2LwFJ0j4tB+gCHgkcRJIkNc8jUCsADwcOIkmSmuPhPImfhVoBeALwYq0kSZ3vph2/6cqTeARw83VJkjrfj3b8Zsc2VN4HIElS53txBqD+qwVAkqTOtjJP4id3/KGn/qsFQJW2ZctWBgeHCo0xNFTs83cY3jZcOAtAXsJKi/noaClZhreVc5vR0NAQXV1dY79wP7Zs2VpKlm3btpXzdSphB8zRkZFSsmwf3l54DLW0m3b+Q5TnOVGavRK4MVCgyvvwY1cxfaSck4cktbr+7ql8bOlbQseoovfkSfwPO/6wo0rfD7gRuyRJnWuXGYAugDyJN1IrAZIkqfNsyJP4wZ3fsfPFtBuam0WSJDXJdbu/Y+cC8MMmBpEkSc3zn7u/Y+cCcCPeByBJUqfJgP/e/Z0vFID6fQD3NjORJElquKvzJN62+zt3f6D2huZkkSRJTXLl3t65ewHwPgBJkjrHOvbxw/3uBeAmvA9AkqROcVV907897FIA6nsE39GUSJIkqdH2Ov0Pe84AwF4eFZAkSW3niTyJb97XB/dWAK4Eiu8iIkmSQvr3/X1wjwKQJ/Fq3BhIkqR2Ngz8/f5esK99Nb9cfhZJktQkV+ZJ/PT+XrCvAnA1UM6m2ZIkqdn+eqwX7LUA5En8HPCt0uNIkqRGuy5P4nvGelHPfj72ZeDny8ujfVkWH8Pk0T1WaZSkjrS1a1LoCJ1uzJ/+AaI83/u6P1GaTQLWArNKDCVJkhrn3jyJTxrPC/d1DwD1jQP2uYCAJElqOf97vC/cZwGo+2tgr0sISpKklrIG+I/xvni/BSBP4seBrxRNJEmSGu6v97bt776MNQMA8AncIEiSpFb2OPDZA/mEMQtAnsT34iOBkiS1svfnSXxA6/eMZwYA4OMTCCNJkhrvR3kSX32gnzSuAlDfTeiGAx1ckiQ1VA787kQ+cbwzAOAsgCRJreZLeRLfPpFPHHcByJP4WmBCB5EkSaUbAP5oop98IDMAAB+Y6IEkSVKpPjXWjn/7c0AFIE/i7wNfnejBJElSKVYCf1VkgAOdAQD4PWrTDpIkA60owgAAFUBJREFUqfly4N15Eg8WGeSAC0CexKuAPy9yUEmSNGGfrd+XV8hEZgCgttnAI0UPLkmSDshDlHQ/3oQKQH2t4d8qI4AkSRqXYeDteRIPlTHYRGcAdjwWeE0ZISRJ0pg+OtFn/vemp+Dn/y7wGmBaCVkq612rv8+0kS2hY0hSUwx2T+Ff518YOka7uZna5nylKVQA8iR+KkqzDwGfKSlPJS3YspHpI6XM6EhSy+vvnho6QrvpB345T+KRMged8CWAHfIk/lvgGyVkkSRJe3pfnsSPlT1o4QJQ9y5qixJIkqTyfD5P4n9uxMClFIA8iZ8FfhHYXsZ4kiSJ64HfbtTgZc0AkCfxT4D/v6zxJEmqsIeBN+dJ3LAfrEsrAHWfoNZYJEnSxDwLXJ4ncdbIg5RaAPIkHgXeDqwrc1xJkipiGHhTnsSPNvpAZc8AkCfxOuCXgdGyx5YkqcO9N0/iHzbjQKUXAIA8ia8D3tuIsSVJ6lCfzpP4n5p1sIYUAIA8ib8A/GmjxpckqYN8GfiDZh6wYQUAIE/ijwJfaOQxJElqc18C3lm/j65pGloA6t4LXN2E40iS1G6+CLyr2Sd/aEIBqP9H/RJwQ6OPJUlSG/kX4FdDnPyhOTMA5Em8FbgCuKsZx5MkqcX9H+DdoU7+0KQCAJAn8fPApcDjzTqmJEkt6B+BX8uTOA8ZomkFACBP4rXAecADzTyuJEkt4gvAe0Kf/AF6mn3APIlXRWn2CuBbwLnNPr60N3190+jqKtaHR/Ocgf6BwlkmTZrE5MmTCo8zODjEyEix7cO7u7uZNq343u1bt25j27Zthcfpm95HVxQVGmN0dJSBgcHCWSZPnsykSb2Fx+nvHyDPi50Lenq6mTq1+Ndpy5atDA8PFx5HezUK/EmexB8PHWSHphcAgDyJN0VpdhFwFXB5iAzSzi55zYUccujcQmP09w/w5S99pXCW4084lrPPOaPwOF+96uts3LCx0BjxrJg3v+WKwlmW3XIbd95xT+FxkjdezvTpfYXGeGbdeq65+puFs5xx5qmceNJLC4/zpS9eyeDgUKExDjn0EF5/xaWFs9x000954L6HCo+jPWwG3p4n8TdCB9lZUy8B7CxP4iEgofYIhCRJnWgFcG6rnfwhYAEAyJN4e57E7wI+GTKHJEkNcANwZp7E94UOsjdBC8AOeRJ/EPg9IPhNEZIkleAfgFfnSVzsOlwDtUQBAMiT+NPALwD9obNIkjRB24HfzJP4PXkSt/QdlS1TAADyJL4KOA0XDJIktZ/lwCvzJP5c6CDj0VIFACBP4uXAOcBnQ2eRJGkccuBzwCl5Et8cOsx4BXkMcCz1pYN/K0qzHwD/DMwKHEmSpL1ZCfxKnsTXhw5yoFpuBmBneRKnwKlA2zSqKuvp6WbGjOnMm3cIhx02j5kzD6KnpyU7piSV4UvAie148ocWnQHYWZ7ET0Zp9krgz4H3A8WWAVNpenq6WbhwAUccuZhFi+bvcyWybdu2seqp1axY8SRPPrmqlBXhJCmgZ4D/L0/ir4UOUkTLFwCorRcAfDBKs29Su85ycuBIlTZp0iROO+0kTjjpeHp6usf1+iOPWsKRRy1hdHSUhx9azm233lnKcqyS1EQ5cCXwvjyJ14cOU1RbFIAd8iT+SZRmpwO/AfwZEAeOVClRFHHSScdz2hknM3ny5AmN0dXVxXEvfQlHH3MU99x9L3fcfjfbtxdbr16SmuBHwB/kSfyz0EHK0tL3AOxNnsQjeRL/HfASassIu3hQE/T29vKayy7iZS8/a8In/5319HRz2umn8Po3XEZf37QSEkpSQywH3pgn8Ss76eQPbVgAdsiT+Jn6MsIvB+4MnaeTzZgxneSNl7N48cLSxz7kkLm88U2vZ+7cg0sfW5IK2Aj8NnB8/Yb0jtO2BWCH+jOXZwDvBTYFjtNxJk+exOWvfw2z5zTuScy+vmlc/vrXMHPmQQ07hiSN01bgU8DSPIn/rtVX8yui7QsAQJ7Eo3kS/z1wBPAhandoqqAoirj4kguacmKePHkSr7nsInpL2F9dkiZgM/C3wEvyJP5AnsTPhQ7UaB1RAHbIk/j5PIk/Qa0I/CbwZNhE7e2ss09nwYLDm3a8WbNiLrjwlU07niRRO0/8PrAwT+LfyZO4MueNtnoKYLzyJB4CPhel2T8AbwM+CBwXNlV7mTFjOiedfHzTj7tkyWLmLzic1auebupxH374UZ5evabQGFtKWt9g3dpnuOuOewqPs2VoqJQxysiybm05k3L33fcgUyZNKjTG5v6BUrKsWrmake3bC48zPFx8hrl/c38pX6cN61t247pG+CnwaSDNk7iSjyJFed75N9FHaRYBb6B2eeDMwHH28OHHrmL6SPFv1mW68OLzOfroI4Mce/36jVz91a8HObakxuvvnsrHlr4lxKG3A/8FfLrT7uifiI6cAdhdnsQ5kAJpfR2Bt1Pbenhe0GAtatbsONjJH2Du3DksWbKYFSsqMxMnqbFuBb4KXJkn8arQYVpFJQrAzvIkvh24PUqzPwAupFYGEmB60GAtZOnSJaEjsPSoJRYASUX8jNpJ/6tVuq5/ICpXAHaoX/O5Frg2SrNpwBXALwGXUOG/F4AlSxaFjsDixQvp7u5mZKSSl+YkTcwyaif9//KkP7ZKn+h2yJN4kNr6zldGaXYw8Grg/Prb0eGSNd/06X3MOXhO6Bj0TurlsMMPZdXK5t4MKKmtPAn8BPgx8O08iZ8KnKetWAB2kyfxBuA/6m9EaTafF8vA+cBRgaI1RSMX/DlQs2fNsgBI2mE7cBe1E/5PgJ/mSbw6bKT2ZgEYQ/1/sH+vv+1cCM4Ejqm/HQGMvS1eG+jr6wsd4QVT3SNAqqpNwOP1t3uonfB/lidxOc9wCrAAHLDdCwFAlGaTgKW8WAh2vC2ltmPhNCBqetgJaKWNeVopi6Qy5TnwGC+e5Hd5q8IqfK3AAlCCPIm3AQ/W3/YQpVkX0AfMoPa0wS6/Th7d9g9ASyyEX8ZOf2WZ5LLAUkeaPrLlmTyJK3V/VSuyADRBnsSj1NaZ3ry3j3/qkyN/Q4sUgMHB1lmQaGhoS+gIktSxOmovABU3MNA6l9iGBgZDR5CkjmUB0C4GWuikO9BCsxGS1GksANrF+mc2MDo6GjoGAM+sc1dnSWoUC4B2sW3bNtYU3BWvDAOb+1lfrZ3JJKmpLADaw4onVoaOwIonw2eQpE5mAdAeHnt0BdtL2Oe8iIcfXB70+JLU6SwA2sPQ0BB333VfsOM//ugK1q/fEOz4klQFrgOgvbrrznt56fHHMnXqlKYed3R0lGXLbm/qMQEuuOg85swutg/CwOAg3/nWtYWzHHvs0Zx40vGFx7nu2h+SZcUWVIvjmVz86lcVznLvPffz0EPFZ3Uuu/zV9E0rtkLkxmc38YPrbyyc5ZRTT+Too5cWHueb3/guW7ZsLTTG3LkHc/6rXlE4y+23383jj60oPI7agwVAezU8PMxPfnwLF118flOPe8ftd/Pcc8839ZgA8cyDmHPw7EJjTO4vZxXFqdOmFs4C0N1T/J93d09PKVmmTptaeAyA2bNnMX16sf0qytpiuq+vr5S/m66u4hOxvZN6S8kyZWrrrASqxvMSgPbp0eWPc+ftdzfteCsee4Lbbr2zaceTpCqzAGi/li27nRWPP9nw42zYsJHvf7/4tKwkaXwsABrTddf+kAfuf6hh4z/55Eq+/rXvsH17OVOzkqSxeQ+AxjQ6OspNN/6UZ5/dxMtfcQ5RVN7OxnfeeS8/u+U28jwvbUxJ0tgsABq3++59kDVPr+Psl53BokULCo21bu0z3HLzraxZs66kdJKkA2EB0AHZuPFZvvOtazl8/mGceupJHD5/Ht3d3eP63DzPWbt2HffcfX9T7iuQJO2bBUAT8vTqNTy9eg29k3pZvHghixYtYMZB0+nr66OvbxpRFDE4OMRA/wCbN/ezatXTPPnEUwwNbQkdXZKEBUAFDW8b5tHlj/Po8sdDR5EkHQCfApAkqYIsAJIkVZAFQJKkCrIASJJUQRYASZIqyAIgSVIFWQAkSaog1wGQgM3Pb2bS5EmFxhjoHygly5YtW8my5wqPMzqyvZQxysiyZcvWwmMAPJc9x/btxf67Nj+/uZQsg4ND5XydRovvg7F9uJyv09at2wqPofYRuQlLeJ/65GfWAoeGziFJTbLu/R/4nXmhQ1SdlwAkSaogC4AkSRVkAZAkqYIsAJIkVZAFQJKkCrIASJJUQRYASZIqyAIgSVIFWQAkSaogC4AkSRVkAZAkqYIsAJIkVZAFQJKkCrIASJJUQRYASZIqyAIgSVIF9YQOIAD+CpgeOoQkNUl/6ACCKM/z0BkkSVKTeQlAkqQKsgBIklRBFgBJkirIAiBJUgVZACRJqiALgCRJFWQBkCSpgiwAkiRVkAVAkqQKsgBIklRBFgBJkirIAiBJUgVZACRJqiALgCRJFWQBkCSpgiwAkiRVUE/oAIJPffIzPwLmhs4hSU2y/v0f+J2fCx2i6iwAreFo4NDQISSpSeLQAeQlAEmSKskCIElSBVkAJEmqIAuAJEkVZAGQJKmCLACSJFWQBUCSpAqyAEiSVEEWAEmSKsgCIElSBVkAJEmqIAuAJEkVZAGQJKmCLACSJFWQBUCSpArqCR1AagUzZx5Eb2+xfw4jI6Ns2pQVzjJ16hT6+qYVHifLnmP79pFCY/T0dBPHMwtnGRgYZGhoS+FxZs2K6e4u9nPL8PB2nnvu+cJZ+vqmMXXqlMLjPPtsxujoaKExent7mTlzRuEs/f0DbNmytfA4ag8WAAm48KLzOOTQuYXG2Ly5n3//t6sKZzn2uGM4+5wzCo/zX1d9jQ0bni00RhzP5E1veUPhLMtuuY0777in8DiXXf5qZsyYXmiMZ9at55qrv1k4yymnnsiJJx1feJwvffFKBgeHCo0x95CDef0VlxbOctONP+WB+x8qPI7ag5cAJEmqIAuAJEkVZAGQJKmCLACSJFWQBUCSpAqyAEiSVEEWAEmSKsh1AFSKKIqYOnUK06ZNY1rfVKKoi8HBQQbrC8AUXehEklQuC4AmbMqUKSw+YiFLlixmwcL59PR07/V1o6OjPL16DStWPMUTK55kYGCwyUklSbuzAOiATZs2jTPOPIVjjzuGrq6xryJ1dXWxYOF8Fiycz8+98mU89tgKfnbL7aUsxypJmhgLgMatq6uL0884hZNPPoGeAuvmL126hCVLFvPAAw+z7ObbGB4eLjGlJGk8LAAalylTJvPq11zI4YfPK2W8rq4uTjjhOA4/fB7//Z3ref75zaWMK0kaH58C0JjiWTN545teX9rJf2ezZ89q2NiSpH2zAGi/pk6dwuWvu4SDDiq+1ei+TJkymUtfezGz58xq2DEkSbuyAGifurq6uOQ1FzJ9erHtV8ejt7eXSy+9iClTiu+vLkkamwVA+/Syc89i3mGHNu14Mw6awYUXn9e040lSlXkToPYqjmdy/AnHNv24CxfOZ/HihTz55MqmHve++x6kb8WThcbYtm1bKVmeXr2WZbfcVnicMtZbGBgYLCXL06vXFh4D4K4772HSpEmFxihrHYonnljJ4OBQ4XG2lfAUzPPPbS7l6/TMumcKj6H2YQHQXp19zunjesa/Icd+2Rk89dQq8jxv2jEfefjRph1rLOvWPcO6FvlGPDS0hTvvuCd0jBfcf99DoSO8YPWqp1m96unQMQDo7+9vqa+T2oOXALSHOQfPZsmRRwQ7/uzZszhyabjjS1IVWAC0h6VLl4SO0BIZJKmTWQC0hyOWLAodgUWLFtDdvfe9BSRJxVkAtIuDDprB7Nnhn8fv6e1h/oLDQseQpI5lAdAuZs2OQ0d4QRy3ThZJ6jQWAO2ir68vdIQX9PVNDR1BkjqWBUC76OubFjrCC6ZOa50sktRpLADaxaRJvaEjvGBSb+tkkaROYwHQLgYHiq9sVpahodbJIkmdxgKgXQwMDISO8IIyllmVJO2dBUC76C9pnfQylLVmuyRpTxYA7eKZZ9YzMjISOgYAa9esCx1BkjqWBUC72D68nVUrw29w8txzz/Pss5tCx5CkjmUB0B6eeKLYtrilZFjxVOgIktTRLADaw+OPPcHWrVuDHT/Pcx568JFgx5ekKrAAaA9bt24Lurf4ww8tZ9OmLNjxJakKekIHUGu6954HOOHElzJ9enOXBt6+fYRbb72zqccEuOTSC5k79+BCY/Rv7udr6bcLZzn+hOM49bSTCo/z7W99j03PFitSs2bHvPbySwpnufOOe7j/vgcLj/OG5LVMnzG90Bjr12/ge9/9fuEsp595Kscdd0zhca7+6tcZGtpSaIxDD53LxZdcUDjLsptvY/nyxwqPo/ZgAdBejYyMcNMNP+HS115MFEVNO+6yW25loL/5axH0TZvW9LKzL5Mm9ZaSpaur+HbKXV3dpWQpa4XJ6TOmF84zWNLjpVMmTy7l76aMf1/dPT2lZOmd7OqbVeIlAO3TU0+tYtkttzXteA89+Aj33vNA044nSVVmAdB+3XXnvTz88PKGH2fNmnXcdONPG34cSVKNlwA0pht+8GMGB4c49dTi16X35tHlj3PDD3/E6OhoQ8aXJO3JAqAx5XnOsptvY9OzGeed/3K6u4tfW94x7s+W3cGdd9xdyniSpPGzAGjcHnn4UdasWcdZZ5/G0UcvLTTWyqdWccvNt7Fx47MlpZMkHQgLgA7I5uc38/3rbuTuu+7jlFNOZNHiheO+w3tkZIRVK1dzz933s3r1mgYnlSTtjwVAE7Jh/Uauv+4Gurq6mL/gcBYtWsCMGdOZ1jeVadOmEUURg4ODDA4MMTAwwMqVT7Ny5Sq2D28PHV2ShAVABY2OjrLyqVWsfGpV6CiSpAPgY4CSJFWQBUCSpAqyAEiSVEEWAEmSKsgCIElSBVkAJEmqIAuAJEkV5DoAErDx2U2FxxgYLGef+YH+AZ5Zt77wONuHh0sZo4wsA/0DhccAWL9+A4MDxf6ey/haQ21VzDL+bkZGim+CtW3rtlKyDA0OFR5D7SPK8zx0hsr71Cc/sxY4NHQOSWqSde//wO/MCx2i6rwEIElSBVkAJEmqIAuAJEkVZAGQJKmCLACSJFWQBUCSpAqyAEiSVEEWAEmSKsgCIElSBVkAJEmqIAuAJEkVZAGQJKmCLACSJFWQBUCSpAqyAEiSVEEWAEmSKqgndAAB8GGgL3QISWqSgdABBFGe56EzSJKkJvMSgCRJFWQBkCSpgiwAkiRV0P8D7KnKf+IO7OUAAAAASUVORK5CYII=;base64,iVBORw0KGgoAAAANSUhEUgAAAgAAAAIACAYAAAD0eNT6AAAABHNCSVQICAgIfAhkiAAAAAlwSFlzAAAN1wAADdcBQiibeAAAABl0RVh0U29mdHdhcmUAd3d3Lmlua3NjYXBlLm9yZ5vuPBoAADh4SURBVHja7d0HcFR3nuDxscfeMLUzt57du9mqnbm7vZvdmqnbUHt1s3c3c7d7ezeWwNgG7LHIWQKUydGEAYMDBoPDDLYxyWBsoshZnZRzQp0kRJBAVgCEUkvqcO8vSy6MsUHS/71+7/VXVd8qB+j+v7/U7/dRx++EQqHvEA2mOfNf+ZFSrNIGpb1K6UoupRalEBFJq6XvtpXed1vb0Hfb+xHnIhpsbAINdOj/VGmBUqZSgBMzUVgL9N0WxW3yp5yjCACQGoP/V0oOTrhEuk7cRn/FOYsAAMkY/D9XOsKJlchQidvszzmHEQCgwQz+7yltVfJzMiUyZP6+2/D3OKcRAKBHHf4/USrmBEpkisRt+Sec2wgA0MOG/y+V6jlpEpkqcZv+Jec4AgD0TcN/slIXJ0siUyZu25M51xEAoPuH/3Be1kcUES8bHM45jwAA9Q//nynd4eRIFBGJ2/rPOPcRm8Dwf0rJy0mRKKISt/mnOAcCAIrc4f+Y0nlOhkQRmbjtP8a5EABQZAJgLCdBoohuLOdCAECRN/yfVKrmBEgU0YlzwJOcEwEARRYAUjj5EZFSMudEAECRM/y/r9TAiY+I+s4F3+fcCAAoMgCQykmPiO4plXMjAKDIAICFEx4R3ZOFcyMAIPMP/x/yCX9E9IBPDvwh50gAQOYGwCROdkT0gCZxjgQAZG4AHORER0QP6CDnSABA5gYAH/VLRA/8yGDOkQCAzDv8n+AT/4joWz4p8AnOlQCAzAmAH3OSI6Jv6cecKwEAmRMAv+AER0Tf0i84VwIAMicARnKCI6JvaSTnSgBA5gRAHCe4rz7mOTthmXfipCRHzJhZ1umxC4qS5/y2JVzrSUxedXPKtHk5v3kpzvLCi9OtZkockzg2cYz83Om6OM6VAIDMCYDZnOBeCSlD/s7zIyc7oqJealMK3VcwOnqMO3bmwmJt1rM2OG58gi06+qX6B6zFlIljFccsjp2fR901m3MlACAAYMqmzZif/4jDNjh69FRr6tw17WqtJSFpxbXhw8cWR8rgvz9x7GIPGLoAgAAAAQBVmzJtbvZAh9Qzz4wrVOM31aSU1Q0KRJojdfjfc29As9gLBi8AIABAAECVklJXNQ524I6bIO6ulrueZ5+dkBvpw78/sRcMXgBAAIAAgCqNGDExewhDqk3mXdWTJqdkMPi/mtgThi8AIABAAED6k/6GOqDEqwRkreeZZ8aVMPTvfz7AuGKGLwAgAEAAQGri5X1Dv5t6YrasZ/0rl3eXof+17vKqAABAAIAAgNTEb+9Df7JajJSHAGYnvlzDsH9wYm8YwACAAAABAGmJl/NJGFA+Gb+hzohbVMywf3BibxjAAIAAAAEAaY2fmGQf6nAaNnxspZxXI6xuZtg/OLE3DGAAQACAAIC0ZsYvcw11OI0cOUXaSwGjomJqGfhfez+A6wxfAEAAgACA1FLnre35hrf9feQmTEx2SHsPgOcmZjH073uSpbInDF8AQACAAID0xo6Ptw367v9hMW4FEd2y1hKf+PJl5TfeDgb/l7/9d4g9YfgCAAIABABU+dCdQb7vftfshGVu6SAZN9vK8P8isRcMXgBAAIAAgGolJK+8Ll7ON4Dh5P/iU+vUAcmIZydkR/rwF3vA6/8BAAEAAgCqlzJnTfuoUVPFwwHBh9ztXz1z9tJLaq9nwsTkDAUldyLvbv+YOxMmpTgYuACAAAABAE2bMXNRyajRU2zDh48p7388Xtw7IN7xT9wlnTJ3badWa0lMXlX/4m9iLSNGjCtQ1tFk4sHfJI5RHGtiyqp6fg4BAAEAAgBhf5VA8pzftujokws/T0heWWumxDHxswYACAAQACAiAEAAgAAAEQEAAgAEAIgIABAAIABARACAAAABACICAAQACAAQEQAgAEAAgIgAAAEAAgBEBAAIAAAAAEBEAIAAAAAgIgIAAIAAABERAAAABACICAAQACAAQEQAgAAAAQAiAgAEAAgAEBEAIABAAICIAAABAAIARAQACAAQACAiAEAAgAAAEQEAAgAEAIgIABAAIABARACAAAABACICAAQACAAQEQAgAEAAgIgAAAEAAgBEBAAIAJA8ACS+9nFBwuYjGUSkj8RtEgAQACDVARC7v6JkxhFviIj0kbhNAgACAAQAiAAAACAAQACACAAAAAIAAAAAEAEAAEAAAAAAACIAAAAAAAEAAEAEADhfAgACAACACAAQACAAAACIAAABAAIARAQACAAQACAiAEAAgAAAEQEAAgAEAIgIABAAIABARACAAAABACICAAQACAAQEQAgAEAAgIgAAAEAAgBEBAAIABAAIAIAAIAAAAEAIgAAAAgAEAAgAgAAgAAAAAAARAAAABAAAAAAgAgAAAAAQAAAABABAM6VAIAAAAAgAgAEAAgAAAAiAEAAgAAAJ10iAEAAgAAAEQEAAgAEAIgIABAAIABARACAAAABACICAAQACAAQEQAgAEAAgIgAAAEAAgBEBAAIABAAICIAQACAzA2AWWmuruRj5S16KS7NE9DLCT/xwKW25P3KunSQWIte9mV6mjcw8ZinRS9NTfN2AQACAAQAHmHgn8zeYb9avsrR5Ul2h6rie5RCOqqt3T2nzF26zrrDeiRXy8G2/OPcq3krN1uakhfnBuISboZilfXoKLEmsTaxRrFWLffmf1src/+itMT6B+6isu9UFbYphXRUzxOeIveflZc4/iG7wj5NJRAAAAIAZFgArD9rdylD36Ozgf+tNVQuyZ57vLRJ1d/sjniD59ZtsylDtl1vQ/9baj+37kObWLuaezP+uKfp+5XF2Tob+N+aggHPc2ddLgBAAIAAgNK5HGXAVcV3G2n49xesSmh668L5MjUGXPxBZ8fdhPlFBhr8X0msXRyDGnsTfcFZ9lhVYZORhv89df9tTrkNABAAoIgGwGvnrJU6vKt/QAW8iXWJRy+1yh5yzsXrrUYd/v2JY5C9L5OPelof9xbWGXT4f/nQwIhzrkoAQACAIhIAs9Jcvm5vstfIw7+/K+Wr7TKH3Jb3z5UqAzRgdACIYxDHInNv/ry8xG7w4d/bd72F3qlpXh8AIABAEQeAvrv+Q2ZpzZkMr6wh1zk7tdIEw783cSyy9mXkGZfXDMO/P1kPBQAAAgBkKADUXXo5w0wAOJW93S7rsX9lcPaYBQDiWGQ9F+DvsyvsZgLAn14qzgAABAAo4gDQ4026bCYAiJcvytiXNz+8WG6i4d/bhm0XK2TsjXg5nZkA8F1vYTUAIABAEQWAhKOVbcrQDJgJAF2eFLeMk/mZ9R/ZzAYAcUwy9ka8pl7NgfyH7jzfX+elX/v1hWPlf591vvoHlTmtKiMgMOWopw0AEACgiAHA/BPFDWYa/iK/N7FWxpDLXP2u1WwAEMckY28e9xbWyhzAf1Ga0bhmxwf2a3MX5AXiEpoftPZgbHzrncTU8u1b3rL+Xfb5y7IRMO6EpwEAEAAgAAAAAIAGAPiF44xHDP3BvNKiPT7ZPf3wvlwAQACAAAAAAAAGAcBfFtvrS5ctd8h4iWVz0pzSf7acrAQABAAIAAAAAKBjAIjH9QNxCZ9LPrZu8RACACAAQAAAAAAAHQJg+e6PMpR1+NQ6votr11of9xYEAAABAAIAAAAA6AQA8z7ZmanFMaYrCAAABAAIAAAAAKADAPxL+olLyvV3anWca7cP/OEAAEAAgAAAAAAAEgHw52WZzf64hHqNj7X7Xy+eqAAABAAIAAAAABAmAIjH5cNxrLeTUssAAAEAAgAAAACEAQA/zbdcV/NJfw9r5sG9OQCAAAABAAAAADQGQNHylx3h/QTEpCoAQACAAAAAAAAaAuBJT353MC7+TriPWbzbIAAgAEAAAAAAAI0A8NKJg4V6OOa9m960AAACAAQAAAAA0AgA9tW/1cWnKd5NSKkEAAQACAAAAACgEQCakueU6OS4fQCAAAABAAAAADQCgG9W0mW9HPe/K8tsBgAEAAgAAAAAoAEAgrHxd/Vy3P/dftoNAAgAEAAAAABAZQCID+TR03GPOnW4GAAQACAAAAAAgAb3AATiEpr1ctz/mHmuCgAQACAAAAAAgAYA6Jyd5NXLcf/ppewWAEAAgAAAAAAAGgCgPnVeoU6Ou41XARAAIAAAAACARgA4+vprFj0cc0PK3CIAQACAAAAAAAAaAeBf0k9c0sMxb976rg0AEAAgAAAAAIBGAHisqjDoj0uoD/cx/1WBtQ4AEAAgAAAAAICGnwZ44tX1YX0YoDF5bjGfBkgAgAAAAAAAGgPgqYqsO8G4+NvhOt7/e/F4BQAgAEAAAAAAAI0BIPrgnS1h2ceqBYuzH3WNAIAAAAEAAAAAJAPgD915vrb4ZJeWxxmMS7j113np1wAAAQACAAAAAIQJACLxRLxAXEKjRsfZ8+LJg0UDWR8AIABAAAAAAAAVACAadu5ombKGLr287A8AEAAgAAAAAIAGABANP5dWGohLaFLp+LrXf7TVPph1AQACAAQAAAAAUBEAov9cYKltj092yzwu8cFDI08fLh7smgAAAQACAAAAAKgMANEfufI6d2x5yxqMi78zxGPy561Yaf/LYnv9UNYDAAgAEAAAAABAAwD092flmbfOrltnHcQTBNvdi5Zk/UPWuWoZ6wAABAAIAAAAAKAhAPp73FsQEE8SFBhoTppT2jUr8Yr4FL++dXf1zEysa0lMrShe/rIj9tAnOX/syu2Qef0AgAAARRwAZqW5fMrQ7DYTADrcqRUyhtzRN3Y7zAYAcUwy9uYP3EUVsgfwg1Jj0H9D3VPTvD4AQACAIgYAIp8nxWkmAHhKX7HJ2JdXdjjcZgOAOCYZe/Oj0hKbRoNZk57wFDll7AsAIABAhgLAlfLVdjMB4FDG3gwZ+xJ32N2jDM0OEwGgQxyTjL35bxkVGWYCwJ+Xl9gBAAEAijgAfOb4NNNEAOhacjJfynMARHcSFxSYBQDiWGTtS8xJt3gOQJdZAPBPjkuZAIAAAEUcAGKPeIN3XfOLzACA3ILNFllDTrRyd06NSe4F6BDHInNv/lNBmcUMw/+PXEVFyvEEAQABAIo4AIjEb83KAG018vAXz2WIS5NzF/e9Wdf83vCvBhDHIHtfpqV5e570FDkNDoBWcW+GrD0BAAQAyHAAEH1kPZoXrEpoNuLw7/Iku1eckvsb7pcn9cOegHfhWpsySIMGHP5BsXZxDGrszYun3DVPeIrcRhz+j1UVNv+ztTJP6s8KACAAQEYEgGje8ZKGJufiHAMNf39x0ZuWWWmuLjUG3L1t/d3JwkBcYp1Rhr9Yq1iz2vsyLc3b9e+LSsXDAX6jDP8/cRbnjDs+9Nf9AwACAGQaAPS35cLZEkf+e9b6S8uyerxJNcGqhAa95POkuMQrF85kf2RbdTqrWu0Bd29JByru7tv0WVb50tetdxPmFwXiEm4G45R16SCxFrEmsTaxRrFWLfdm9GlX9d9ll9vEM+qf8BS5lN+wG/TS497Cmn9zqTjrb/LLrFEXnKrdbgAAAQAyPACICAAQACAAQEQAgAAAAQAiAgAEAAgAEBEAIABAAIAIAAAAAgAEAIgAAAAgAEAAgAgAAAACAAAAABABAAAAANgEAAAAiAAAAAAABAAAABEAIABAAAAAEAEAAgAEAAAAEQAgAEAAgIgAAAEAAgBEBAAIABAAICIAQACAAAARAQACAAQAiAgAEAAgANB/Mktzd889k+Fc4/jMsT5rl00vrbQdyUo+mX9FWWMwXCf6aftKb41780jhiws2216Yt1EXibWINYm1hW0AHvEEXz6UeeXTT3dmpX+y0aaXju3b6lh/8KJz5hFXNwAgAEAA4BtaeM5Suu3SyvKdziU+pZCOa9lati478URRnSYD7pC7Z3TSekv0sLHXoqJeCuk5sUaxVrFmLfZm8aHcuobds7KDO19qCe18KaTjfB27JpVvPnCyFAAQACAA0FfcUWf7lsItVmWwBnQ++O/v7tqMfXY1B9ykD6ze6BETK/U++L8GAWXNYu1q7s2Jfe/ZlcF6V+eD//4Crj2LbfGHK9sBAAEAinAAeALbKlaVGmzwf6VN+b+zqDL837e4lWHqM9rwvyefOAY19qZkzwqLwQb/V2rbNbk0VvnZBwAEAChiAfBq9k6rkYd/X/75Z+0Vsu/2jx4xwWng4d93T8AEp+yHAzYcOFuhDFG/kQEgsn6ywQoACABQRAIg+VRejTI8O0wAgND2yuVVcWkun6wT+qiEtRajD//+xLHI2pdZR5y+7p3jqow+/PvqWHkwowYAEACgiAPAxvzfW8ww/PtbcvFsgaxBFxU95qZZACCORda+bN1/qMAkw7+34r2rLACAAABFHAA+KF9TYCYAvJH7oZST+dQ9hZ+bZvj3JY5Jxt5k711nMRMAbu+ang8ACABQxAFgp3Npk5kA8H7ZK7ky9mXsa5/lmQ0A4phk7E3T7rhcMwEguDOmCQAQAKCIAsDsY+XNag3iNNfCmmz3vOxKzxzbdW+ytdGbZL/iSbGUeebYHe55eZ86F6sCjx2Vy67KOJmPTn3DajYAiGOSsTf+nWOvmgkAojmHS5oBAAEAihgAxB8vbZA5fE+5FjqVYW/xV8VXh6riQw8p0FWVUOr2pFoPuBbdlAiAWikASH7VfABQjkkOAMbUmg0A8w8VNgAAAgAEAAbYUeW3/bvexOxHGPrfVGetN9m6z7n4NgAAAAAAAAAAAgA6B8Bu55KeG8rgVgZ4zxCG/73dLnbPdQAAAAAAOFcCAAIAOgWA8tv6rc6qhGJJg/8r1Suo2OVc4gcAAAAAEAAgAKAjABxyLaoNVMVfUWP499dRlVD4sXNJJwAAAACAAAABAB0AYK9zcZu/KsGj5vDv7443MRMAAAAAQACAAECYAbDLuSTQ5k3M1WL493fZk2IBAAAAABAAIAAQRgBUelKtWg7/voJnXQvKAQAAAAAEAAgAhAEAnzgX3w1WxTeHAQAhX1VCqWEAMHxcR9SEBSVRqe9Yo1YfzIh67Uy5UsUQK++9LHGZ4rLFdQAAAEAAgACAFgC45kmxhGP495fhnperewBMWlz09IYLtVFvpofUrPc6lOsCAACAAAABAFUB8LFziU8Zwq3hBMCj3gsQFgAMG+uLenmfXRnOQbWH/z0Fe69TXDcAAAAEAAgAqAEA8d794Rz+/W8d/CifHxAOADy9dJdVw8H/1XsDxHUDAABAAIAAgBoAEB/kowMAhEo8cxx6A8DT4+eXKoM4EC4AiOvuXQMAAAAEAAgAyAZAsCr+hh4A0OJNzNIVAKJjglEbLlwN4/D/IrEGsRYAAAAIABAAkAWA3c4l3eKleHoAQHdVQoWuAPDCrJqwD//+xFoAAAAgAEAAQBYADroW1elh+IuCVfF1egLA0zNfydQLAHrXAgAAAAEAAgCyAHDOtaBcLwBQ6lLWFNQNAML45L/BPBkQAAAAAgAEAB4ZAOddC8p0BIBuPQEgavke3QCgdy0AAAAQACAAIAsAh1yLruvoIYAbunoOwKxXM3QDALEWAAAACAAQAJD4JMAuHT0JsFJXAPhNfLVuACDWAgAAAAEAAgCSXwZYrwcA3PUmZuvsfQACURsu1OngZYB1vWsBAACAAAABAJkAaPYmOfQAgHLPHLvu3glw8pLCsANArIE3AgIABAAIAMgGQJZ7Xo4OABDc71pUr8u3Al7xqS1sz/4X181bAQMAAgAEANQAwB7n4nZlALfr/U2AwvZhQMPHt0X99nCW5gAQ1ymuGwAAAAIABADU+jjgG95kazgBkOuel6X3jwOOnrE6WxnMjRoM/8be6+LjgAEAAQACAGoDYJ9z8S1lELeE6bf/S4+6znACoLcRE+9ETV+VE714uyVq/YnCqDcuXH96w4XaoSQuQ1xW72Uql917HYNYGwAAAAQACAAMGACiKk+qJRwAuOieX2wYAOg4AAAACAAQABgUAHY7l/R0ViUUazn867zJ1oGsEQAAAABAAIAAgGQAiD51Lm4OVMVf02L4t3sT83c5lwQAAAAAAAQACACEGQCi466F3mBVfIPa7/r3iXNxy0DXBgAAAAAgAEAAQCUA9H9McE9VgkuN4d/iTcz62Lm4YzDrAgAAAAAQACAAoCIA+t4foO2ONzFT4vD3iScaDmVNAAAAAAACAAQAVAbAvR8Z3FWVMJSPDQ7c9iZlHHItqh3qWgAAAAAABAAIAGgEgP7s7vn54nMDglXxzY8y+ANV8VfEs/xPuBZ6ZK0BAAAAAEAAgADAQ5p9vKxJJgD62+Vc4r/gWlBS7plju+JJsTR6k+zicf3PvUm2auXfSzxzHOKJhGpctwKAa1IAkPq6+QCgHJMcAIy9ZjYAzD1c3AQACABQxABAtNO59JYagzhcvV++Nk/Gvoxdvy/XbAAQxyRjb27tjs0z0/AP7oy5JWNfAAABADIUAD4s/22hmQCwIfcDi4x9mfpx/k2zAUAck4y9ydu71mImALTsmlYIAAgAUMQBYFP+e1YzAWDpxdP5MvZFFBUd87lpAKAci6x9+XD/gXwzAaB0zwoLACAAQBEHgDmns8UT8LrMMPx3VC67GnfU2S5r0I2MW2ExCwDEscjal/jDle3+nWOvmgQAXWsPWjwAgAAARRwAROJucxMAILjo/EVpeyKaftDpix4+rsrow18cgzgWmXvz9v5jJcrwDBodALl710qDEQAgAECGA0Bsmrvno0srnEYGwJbCzTaZA66/ie+erVCGqN/AAPCLY1Bjb9x7FtqMPPx9uyY44464ewAAAQCKWACIZh2ruPNeyRsOAw7/zteyd1hjj3gCagw50YR3Tpcrv0VXG/A3/2qxdrX2RRmeAfsnr1uVYdpptOF//ePkjOTDZXdk7gcAIABAhgRAf8vST+Vvr1xebYDB3/NhxeqilFO51WoNuPseDuh8fsZya1RUzG39D/+Y22KtYs1a7M2qg47qu7umFimDtUfvg79n57jqbfv356mxDwCAAAAZGgBfvknQsYpbSy6eLXgjd5tFvFJAL63P2m2df85aHpfm0mS4fT1PcPL2zJqYVdszR85aZXk+7mWrHhJrEWsSaxNrDMfezD7i7Nx44HT5hU82Wcv2vKybsvaut2zdf6gg9XDpLTWPHwAQACBTAICIAAABAAIARAQACAAQACAiAEAAgAAAEQEAAgAEAIgAAAAgAEAAgAgAAAACAAQAiAAAACAAAAAAABEAAAAAgAAAACACAAAAABAAAABEAIAAAAEAAEAEAAgAEAAAAEQAgAAAAQAiAgAEAAgAEBEAIABAAICIAAABAAIARAQACAAQACAiAEAAgCIeAJM/q7z80vbCjOfey7QO22Qtjd5oceul4W/Z8kf+PtsyZldxztSDrgYtT/Cz0lxdWy6cLbHkbrXWXXo5w+dJqezypLj1kFiLWJNYm1ijWKuWezPvdE3D7uKGnOIbbZbbnT35Xf6gWy+1dflL3Y0d1sOXmjJWXrx6GQAQACAAcF/TDrnvPvtOhj3qzfSQQWp/4cM8q7L2gNoD7vVzlspuT7I3VBUfMkJirWLNqv/Wm+YNpFffsSk/2+0hg3zV3PbZk05U3wUABAAIACiN31NWErUxvc5Aw//LxL0UU/Y761QZcEe8weKiNy3KUO0xyvC/px6xdnEMauzN4nNX6tq6A6UhA34FgsG6t7NvlAAAAgAU0QCYesBVrwzS20Yc/vcgoEyNewJOZW+3G3DwfyVxDGr85t/eHSgLGfgrGArdXnCmph4AEACgiAXA8M22XCMP//5e+KD34QBpQ27JyfxaZYC2Gh0A4hjEscjcG2vNHWvIBF/NHT25AIAAAEUkAMST6cww/PvqmHrAdVPWCb3JuTjXBMO/N3EssvZl4Zmam8rPckfIJF/iyYsAgAAARRwAnn3XUE/6e2gxO4oyZexLXJrHrwzONrMAQByLOCYZe7O/ojEzZKKv6uZOGwAgAEARB4DoTZZKMwFAvHRRxr6sOZPpNdHw700ck4y9cTZ2WM0EgM6eQCUAIABAEQWA6Yc93crQ9JkJAH1PBhzyyfxw5p4MswFAHJOMvTH6k/8e8OWbebSqGwAQAKCIAcDUA64GMw3/3jamS3myW2b+u1azAUAck4y98QeDtSYDQGj+6ZoGAEAAgAAAAAAAAAAAEAAgAAAAAAAAAAAEAAgAAAAAAAAAAAEAAgAAAAAAAABAAIAAAAAAAAAAABAAIAAAAAAAAAAABAAIAAAAAAAAAAABAABgBgBEb7QEZu3MvZy6t8A91KZsy64FABECgIbG2lD1ZfeQu153ORQMBgAAAQACABoAYNIHWTcKapqtdzu7S5RjapP5m1gwGGpubPXlnb900/L8Fls7ADAJALq62kPbdlpCC5blheISmkOxyppkFRffptwoSkJvvW0NNTXfAAAEAAgAqACAj7NqHMFQqEWLu2V7/MEryw+VlgIAgwOgvKI0NDvpitSh/40ltITSjjsAAAEAAgCSABD9Znrw5p2O7DA8PBs4XlJrBQAGBcDH+6zKYA5oM/zvaemK7FAwGAQABAAIAAwRAEcKr9vC+Bytnrn7Cp0AwGAA8FY7lWHco/nw7+/T/TYAQACAAMAQABC3I7dGWXt7OJ+l3dUT8I54y+oDAAYBQE+PLxSf4g3b8P+i9tCNGzUAgAAAAYBBAuBKU1uGHl6qtSe7xg4ADAKAtOP2MA//L1q5JgMAEAAgADBIAHT7AzV6AIDrZgsAMAoA1r2uDwDMTuIeAAIABAAGA4DR79jvilfn6QEAHd3+SgBgEAAkzqnUBQBi44Ohjs67AIAAAAGAAQJgyYGS8pB+vnzi1QgAQOcAEM++j4336QQAodClynIAQACAAMAAASDe9Ecv078nELzKPQAGuQdgVvJV3QDgEd4cCAAQACAA8ICUX+ga9QCA2lvtWQDAIABYtjpLF8M/LuGRfnYBAAEAAgAPqKnVl68HAJwpv2EFAAYBwI6PrboAwPyl+QCAAAABgEECYMt5V064h38wFGqd/GF2HQAwCAAaG+uU375bww4Aqz0HABAAIAAwhHcCDPd7Aex9lPcAAAD6eifAI8fsRngPAABAAIAAwLf04ruO24Fg8GY4hr/4dEA+C8CgnwUgPv0vLI/9J94MtbXdBgAEAAgASPg0wPFbM+sb7nbmajj7A3mXm6yP9BbAAECfABBvCbzlHW0/EGjRstzQ7dv1A/lBAwAEAAgAPELbHdUZPV+8O6BabxDU097VUyHeg2DA6wMA+vs4YPElXoufNLdCxQ8HCoZmJdeETp4e1ENVAIAAAAGAAfTCO/aW1WllxUeLaq3nKm4Ouc/yrtoWflZc8exma+eg1wUA9AmA/q/u7s6Q010ROnjEFtq+yzrkPvnMGioqKQ61t7cMRZwAgAAAAQCjBwD0DQCdfgEAAgAEAAAAAAAAAIAAAAEAAAAAAAAAIABAAAAAAAAAAAAIABAAAAAAAAAAAAIABAAAAAAAAACAAAABAAAAAAAAACAAQAAAAAAAAAAACAAAAD0AYNohd6syNINmAkD0RotXxpA7l7PNZjYAiGOSsTfd/qDXZPM/mHi8uhUAEACgiAGASBmYV8wEgBFvOxwy9uWtC+fLzAYAcUwy9uZ6i89hpunfEwhekbEvAIAAABkKAM9ssWeZCQAvbsuX8ltuwtHKNmVo+k0EAL84Jhl7c9Z722YmANxs7coEAAQAKOIA8MIHeVYzAWDivgqnjH0RdXmS3WYBgDgWWfuy3nbdaSYAWC7fsQIAAgAUcQCYfsjTFr3RctUMw1/cmyFryIk+sBzPNwsAxLHI3Jv61u4sMwx/fyB4NeF4dRsAIABAEQcA0fg9ZSUmeDJg47SD7maZQ050tXyVw+jDXxyD7H2Zc+pyczAYajT6k//ezr4h7XYEAAgAkOEAIBq1NcdiYAS0j91dkid7yImSj1W0+DwpLqMOf7F2cQxq7M22gvo85We63ajDP7+21SJzPwAAAQAyJAD67gkojt5ouWak4T/sLWvxlP3Oa2oMuP5mprm78wvfsigDtdtAw793zWLtau7NsvNXrt3t8hcb7G7/a+/m3CiWvRcAgAAAGRYAfc8JaB/9fq71mS32nKiN6XU6HPp+8Vr/EW87Ml7aXpihrDmo5oC7t3Vn7e7Kkletbe65JcqAbdXh0G8VaxNrFGvVal9ile/BoUtNGddbujL63iPAr7ehHwgG6xrbu3McV1qssh7zBwAEAMhUAPjamwUddN9SfsOu1UsCKFoNtm8fep7AohOFN5aezK/VQ2ItYk162BtlwLYvPXelVi+lnrx8S5OfCQBAAIDMBAAiAgAEAAgAEBEAIABAAICIAAABAAIARAAAABAAIABABAAAAAEAAgBEAAAAEAAAAACACAAAAGITAAAAIAIAAAAAEAAAAEQAgAAAAQAAQAQACAAQAAAARACAAAABACICAAQACAAQEQAgAEAAgIgAAAEAAgBEBAAIABAAICIAQACAAAARAQACAAQAiAgAEAAgAEBEAIAAAAEAIgIABAAIABABAABAAIAAABEAAAAEAAgAEAEAAEAAAAAAACIAAAAIAAAAAEAEAAAAACAAAABUbMqO7KtjXtmbM/G9sxXTDzg7w7mW1JOXm7fm3SwQiX8O51pmH6vq3OCordhd3JCz/PzVq/ysAAACAAQADN+k319wDh89vSA6OuZOVNRLoXvqiX5mvPvFBW/ZZhz2BLVYS8rJy7cv3+q0+4PB2tB9X+K/if8n/owmA+uIN3i+6ratyx90K1ffc+9agqHQnTud/oJX7ded/AwBAAIABAAM1fRD7p6R8WssYtDfN/i/1rDnpxZP2ZlzXc31bCuozwsEQ/Whh3yJPyP+rJprWXruyvXWLn9x6OFfPfl1rZa4tKoefqYAAAEAAgD6T/mNfvioaYUPG/xfLaZ18jZ7tRrrOaf8ph0a4Jf4O2qsZdXFa9XKxbcOZC0tPn+huMeAny0AQACAAICuE3frD2z4f1H0iIkVMw67/TLXsvLi1Rrle98RGvhXh/i7MtcSl+b1d/YEKgaxltB5lUACAAAAACAAAACkNHl75hXlt/n2wQBANCppvUXaUEjzBjq6A+WhQX6JvysuQ9Z6sq7dtYQG/9X+8oWrV/gZAwAEAAgA6LKRsS9bBzv8e4uOaZK1lo2ZdeWhIX4pl1Emaz3BYKhpKGspr2+38jMGAAgAEADQZcNHTisaEgCUZD0hcDCP/T/grvd0WU/8G+pa7vr8RfyMAQACAAQAdNkDXu434GLW7MqSsZbrLT7HUIdubUuXlMfePyltyBrqWsTLA/kZAwAEACiMAHjx7fSTz72XaaP72nju/FCHv2j41OWnZKyn/dFeavetX21d/hIZa8msbj4VkvA1dWfBeX7Wvp64TQIAAgCkOgCGv3GuJOrN9BA9oOiYxiEjYO67OTLW4qkf0pPuer9cN1vsMtby1llXzpDvAQgGG/kZe3DiNgkACAAQAAhnz03NHzIA1h2rl7GWT3OvWoc6dPflXpECgPFbM+uHupamVl8+P2MAgAAAAQB9NmmRZWivAhhzQ9Za5u4rrBzq0FUuwylrPYFA8MZQ1pLhabDwMwYACAAQANBn645/HhUVc2vQAJj9ml3mehpbfXmDHbiNkn/j/iTnin3wd/+Hbo3bmvk5P2MAgAAAAQD9lrQpc1DD/7kpBbLXMvH9rHrx7PnBPONe+bs3Za/nVltXwWAA8KGtKpOfLQBAAIAAgP4bPXOACIj5PGptWp0aa/nA6s1Uvv/+Acxbv/g7aqxl8ofZdYFg8POBDP+rTe0MfwBAAIAAgHGKnrVefCZA28OG/9OjYrOi1p9sVnMtCz4rutTtD1Q/bNiKPyP+rJpreek9R3PtrfZHeV+Ats/yrtr4WQIABAAIABivNUeuRb042xE1bOxlZdgH7vmNvyla3OWfsiVLq7U8u9na6fA0WNp8PeIDee79gKAO8d/E/xN/Rqv1vHfRk9Xc1lVw31sEBxSEXK5uaHVM/yjnGj9DAIAAAAEA4/f6mdaopbvL1bqrf0ADY5OlJ3lPgVsk/jnc6xEPDSw5UFI+6m1bKz8rAIAAAAEAIgIABAAIABARACAAQACAiAAAAQACAEQAAAAQACAAQAQAAAABAAIARAAAABAAAAAAgAgAAAAAwCYAAABABAAAAAAgAAAAiAAAAQACAACACAAQACAAAACIAAABAAIARAQACAAQACAiAEAAgAAAEQEAAgAEAIgIABAAIABARACAAAABgPv69ab0rn/dYmnRS09vTA/o5YQ/bJO1TalFJ7XpZl/evBh44fUzLXppxIYLXQCAAAABgEcY+H91Ksv+/cI8x3fdBe7vVBX2KIV0VNuTzoKyp3Jyrf/lQEauloNtxBbH1XEfl1qmHnDlzjjivakU0lk3xdrEGsVatdybjSs+yi1NWWltnZVaFoqNb1MK6age38wkd1XSUse+xVvsz6gEAgBAAIAMC4B/2m5zKUPfo7OB/639cWl+9v95x9Kk8oALxuwosikDtl2HQ/+bao/ZWWQTa1dzb2JeO9V0M35Bts4G/rfmi0vypK494AIABAAIACj9hzNZNmWgdhtp+Pf3mLew6b9+bC9TY8BFb7R0TDvoLjLQ4P9KYu3iGNTYm2W//aQsGJvQZKThf0/dhxa9ZQMABAAoogHwix32Sh3e1T9QBNT9382WVtlDbuInFVajDv/+xDHI3pdRb5xt9ccl1Bl0+H/50MC8NfsrAQABAIpIAPx6U7rvcXeh18jDv78fFOTZZQ6553+XVaoM0IDRASCOQRyLzL3xJC2zG3z499YVl+QdseGCDwAQAKCIA0DfXf8hs/Q/ttm8sobc9EOeShMM/97Escjal8RXDnnNMPz7k/VQAAAgAECGAsCfFOdnmAkAf3U6yy7rsX9lcPaYBQDiWGQ9F+DTxVvsZgLAlcTFGQCAAABFHAAe9xReNhMAflCY55By9/97WeUmGv69KcdUIWNvvElLHWYCQHdcYjUAIABAEQWA/7fZ0qYMzYCZACDeu0DKy9u+eNmfasM49og3OO94ScOrZ61Okfhn8d/UvE5xTDL2Rrym3kwAUAo8/8a5NgBAAIAiBgD/8q61wUzDv+/VALUyhtzY3SVSn/0/M83dvTX9ZKG3bK3N7028GqqK71YK3Ve3+H/iz4g/K/6OzDWIY5KxN/64hFqTASA07rWTDQCAAAABAAAgDQCJRy+1FRRusgSr4u88YOB/a+LviL8rLgMAAAACAAQAAIABABB7xBM4l7PNFqxKaBzo4P86BBIaxWWJywQAAIAAAAEAAKBTAIjf2Juci3OGOvjvT1zmUO4NAAAAgAAAAQAAoBIAlpzMr+3yJLtlD//+xGWL6wAAAIAAAAEAAKATAKQeL2vue4JfSM3EdYjrAgAAgAAAAQAAEGYAiGfst7rnFas9/PsT1zXQVwkAAABAAIAAAACQDAB36TqrVsO/P3GdAAAAEAAgAAAAwgSANWcyvMpA9msNAHGd4roBAAAgAEAAAACEAQC3nQvzwzD8exPXDQAAAAEAAgAAQGMAbL5wrjRcw78/sQYAAAAIABAAAAAaAsBdus4WbgCINQAAAEAAgAAAANAQAH5v4vVwA0CsAQAAAAIABAAAgEYA6HvyX0gPPcqTAQEAACAAQAAAAEgAwGeOTzP1AgCxFgAAAAgAEAAAABoAwJb3O6teACDWAgAAAAEAAgAAQAMAOEvW6wYAYi0AAAAQACAAAAA0AMD1ihUZegGAWAsAAAAEAAgAAAANAFBe/Lpu7gEQawEAAIAAAAEAAKABAC7mvq8bAIi1AAAAQACAAAAA0AAAe+0HsvUCALEWAAAACAAQAAAAGgBgycn8Wr0AQKwFAAAAAgAEAACARu8E2OVJdod7+Is18E6AAIAAAAEAAKAhAIqL3rSEGwBiDQAAABAAIAAAADQEwOrTWdXKEPaHEQB+sQYAAAAIABAAAAAaAkB0pXy1PVwAENf9qOsEAACAAAABAAAgEQALThTXK8O4LQwAaBPXDQAAAAEAAgAAIAwACNd7AjzKa/8BAAAgAEAAAACoCADRtYqVDq2Gv7iuga4PAAAAAgAEAACACgCYlebytbvnlKk9/MV1iOsCAACAAAABAACgAwCIEo9eam12LspTa/iLyxbXMZi1AQAAQACAAAAAUAkAotgjnoAaHxQkLlNc9mDXBQAAAAEAAgAAQEUA9Pe79FNFPk+Kc6iDX1yGuKyhrgcAAAACAAQAAIAGAPji3gBv8DPHp5mDgYD4O+LvisuQsRYAAAAIABAAAAAaAeDeFp8sqDuf84HtlnNhXpcn2ROsSmhSBn1QJP5Z/Dfx/8SfEX9W9vUDAABAAIAAQG+/3pTuU4Zmt5kA8ISroELGkPvNRwUO2QP4Qc1Mc3eLtLgucUwy9qZ9ZkqFyQDQPWLDBR8AIABAEQMA0XfdBU4zAeCp3FybjH159p0MtxZDWcvEMcnYm/LkFTYzAaBzZrJTxr4AAAIAZCgA/KAgz24mAPz1scwMGfsStTG9RxmaHSYCQIc4Jhl7s33p7zLMBABP0jI7ACAAQBEHgL9Jy8w0EQC6/tfvrVKeAyCaetBVYBYAiGORtS9TXj0mngPQZRYAfLBsayYAIABAEQcApeAfXCooMgMA/sKaY5E15EQj3nbUmORegA5xLDL3xjJvvcUMw//2rDlF0cptAAAQAKBIBEBI/NasDNBWIw//77oKnE9Luov73sbsKrYaHQDiGGTvy/ANF3vEY+dGHv7B2PhWcW+GtD0BAAQAyGgAEP3t/oy873gLmw05/N0F7l++b62RPeT6CkzcV2GbIem1+BoXFGsXx6DG3sStS6vxzUxyG3P4JzRvWLE9TyqKAAABADIiAL54XwBLwx+X5ecYaPj7/21GjuXXm9K7VBr+XzZqa07hjMPeOsMMf2WtYs1q78szGy50Zc9ZKx4O8Btl+NfHz88Z+9qpBun3igAAAgBkVAD094977CV/eTHb+r2S/KzHPYU1j3kLG/SS8tu+S7xy4T+ezrL9zw9s1WoPuHsbtsl698UP87Mm7C23TjvoFm/Ne1OpQSfdFGsSaxNrFGvVcm9mrTtSfWDRZpt4Rn3nzGRXIDahQS/1xCXW1CYszDoz/w3ritV7VbvdAAACAGR4ABARACAAQACAiAAAAQACAEQEAAgAEAAgIgBAAIAAABEAAAAEAAgAEAEAAEAAgAAAEQAAAAQAAAAAIAIAAAAAsAkAAAAQAQAAAAAIAAAAIgBAAIAAAAAgAgAEAAgAAAAiAEAAgAAAEQEAAgAEAIgIABAAIABARACAAAABACICAAQACAAQEQAgAEAAgIgAAAEAAgBEBAAIABAAICIAQACAAAARAQACAAQAiAAAACAAQACACAAAAAIABACIAAAAIAAAAAAAEQAAAMQmAAAAQAQAAAAAIADw8Ka9vLVgwqqdGUSkj8RtEgAQACDVAUBEpg0AAAACAEQEAAgAEAAgIgBAAIAAABEBAAIABACICAAQACAAQEQAgAAAAQAiAgAEAAgAEBEAIABAAICIAAABAAIARAQACAAQACAiAEAAgAAAEQEAAgAEAIgIABAAIABARACAAAABACICAAQACAAQEQAgAAAAiIgAAAAgAEDmLmXu2s6p0+fljho9xfbMM+Pzhg0b44qKeqlJJP5Z/Dfx/8SfEX+WPQMABAAIAJCBi5u1uHzEiInZyqBvUwo9Ym3i74i/yx4CAAIABADIQM1OXF797LMTcgYw9B+YuAxxWewpACAAQACAdN648Qk2ZXj3DHX431OPuEz2FgAQACAAQDosdd7anpGjptokDv6vJC5bXAd7DQAIABAAIP0UGPHs+By1hn9/4jrEdbHfAIAAAAEA0kEvvDjdqvbw709cF3sOAAgAEACgMDdxckqGVsO/P3Gd7D0AIABAAIDCVPKc1beUgXxbawCI6xTXzfcAABAAIABAYWj0C9OsYRj+vYnr5nsAAAgAEAAgjUtIWnFNGcRd4QKAuG6xBr4XAIAAAAEA0rDfvDTTEsbh35tYA98LAEAAgAAAadiwYWMuhRsAYg18LwAAAQACAKRRSSmr6pUBHAw3AMQaxFr4ngAAAgAEAEiDpkydm6OD4d+bWAvfEwBAAIAAAGnQ2PHxNr0AQKyF7wkAIABAAIA0eee/GRa9AECshe8JACAAQACANOj55yc59AIAsRa+JwCAAAABANKgUaOn6eYhALEWvicAgAAAAQDSoJgxs6x6AYBYC98TAEAAgAAAmfQDgPhgIABAAIAAAIW5mbOXVuoFAGItfE8AAAEAAgCkSWuDUVEx9eEHQEy9WAvfDwBAAIAAAGn1SoCRk+1hfwWAsga+FwCAAAABANKwaTPmF4QbAGINfC8AAAEAAgCkccOfGVsaruEvrpvvAQAgAEDGAEAcJzhzFTdrcUW4ACCum++B6YrjXAkAyJwAGMkJznw999wkzV8SKK6TvTdlIzlXAgAyJwB+wQnOfKXOXdM+bNgYl1bDX1yXuE723pT9gnMlACBzAuDHnODMWULyyrqoqJhGDV721yiuiz03bT/mXAkAyJwAeEIpwEnOtG8O5IyOjrmp1vAXly2ug702beLc8ATnSgBA5kVAPSc685aUsqp+2LAxl1S42/+SuGz22NTVc44EAGRuABzkRGfuUuau7Rz9wjTxYUE+CcPfJy5LXCZ7a/oOco4EAGRuAEziRBc5zwt47vnJ4hUCgUEM/oD4uzzeH1FN4hwJAMjcAPihkp+TXSQ9LLC6YfzEJPuIEePzHnKvgE/8GfFnxd9h7yIqcU74IedIAEDmR4CFE17EfoiQPzFlVf2s+KXOaTPm54nEPyf2Pr6/FhhGbhbOjQCAIgMAqZzwiOieUjk3AgCKDAB8X4m7eIko1Hcu+D7nRgBAkYOAFE58RKSUzDkRAFBkAeBJpWpOfkQRnTgHPMk5EQBQ5CFgLCdAoohuLOdCAECRCYDHlM5zEiSKyMRt/zHOhQCAIhcBTyl5ORkSRVTiNv8U50AAQCDgZ0p3OCkSRUTitv4zzn3EJlA/AobzSYFEEfGJf8M55xEAoPsRMFmpi5MkkSkTt+3JnOsIANA3IeCXfGQwkfk+6lfctjnHEQCghyHgJ0rFnDSJTJG4Lf+EcxsBAHpUBHxPaSufHEhk6E/4E7fh73FOIwBAg4HAz5WOcDIlMlTiNvtzzmEEAEgGBH6l5ODESqTrxG30V5yzCACQGhD4qdICpUxeNkiki5f1ZfbdJn/KOYoAAGmFgR8pxSptUNqrlK7kUmrhxEwktZa+21Z6321tQ99t70eci2iw/X8o8x7rTx5XpQAAAABJRU5ErkJggg==;sketch=0;" parent="1" vertex="1">
          <mxGeometry x="325" y="560" width="120" height="120" as="geometry" />
        </mxCell>
        <mxCell id="DlE1reFhoXXIZxfw-ELK-13" value="Recolecta datos biométricos" style="edgeStyle=orthogonalEdgeStyle;rounded=1;orthogonalLoop=1;jettySize=auto;html=1;shadow=0;sketch=0;" parent="1" target="DlE1reFhoXXIZxfw-ELK-10" edge="1">
          <mxGeometry x="0.0291" y="77" relative="1" as="geometry">
            <mxPoint x="60" y="680" as="sourcePoint" />
            <Array as="points">
              <mxPoint x="63" y="680" />
            </Array>
            <mxPoint as="offset" />
          </mxGeometry>
        </mxCell>
        <mxCell id="DlE1reFhoXXIZxfw-ELK-19" value="Obtiene datos del comportamiento del usuario&lt;div&gt;Visualiza estadísticas y consejos&lt;/div&gt;" style="edgeStyle=orthogonalEdgeStyle;rounded=0;orthogonalLoop=1;jettySize=auto;html=1;shadow=0;sketch=0;entryX=0.5;entryY=0;entryDx=0;entryDy=0;exitX=0;exitY=0.5;exitDx=0;exitDy=0;" parent="1" source="z63i-Olkcntedy6qG_Ib-4" edge="1">
          <mxGeometry x="0.3293" y="20" relative="1" as="geometry">
            <mxPoint x="60" y="560" as="targetPoint" />
            <Array as="points">
              <mxPoint x="-40" y="623" />
              <mxPoint x="-40" y="520" />
              <mxPoint x="60" y="520" />
            </Array>
            <mxPoint as="offset" />
            <mxPoint y="620" as="sourcePoint" />
          </mxGeometry>
        </mxCell>
        <mxCell id="z63i-Olkcntedy6qG_Ib-5" value="" style="edgeStyle=orthogonalEdgeStyle;rounded=0;sketch=0;orthogonalLoop=1;jettySize=auto;html=1;endSize=6;" parent="1" source="z63i-Olkcntedy6qG_Ib-4" target="DlE1reFhoXXIZxfw-ELK-10" edge="1">
          <mxGeometry relative="1" as="geometry" />
        </mxCell>
        <mxCell id="z63i-Olkcntedy6qG_Ib-4" value="" style="shape=image;verticalLabelPosition=bottom;labelBackgroundColor=default;verticalAlign=top;aspect=fixed;imageAspect=0;image=data:image/png,iVBORw0KGgoAAAANSUhEUgAAAVUAAAIACAYAAAAyp//3AAAABHNCSVQICAgIfAhkiAAAAAFzUkdCAK7OHOkAAAAEZ0FNQQAAsY8L/GEFAAAACXBIWXMAAA3XAAAN1wFCKJt4AAAAGXRFWHRTb2Z0d2FyZQB3d3cuaW5rc2NhcGUub3Jnm+48GgAAACF0RVh0Q3JlYXRpb24gVGltZQAyMDIyOjEwOjIwIDIzOjEyOjQ2TnfLuwAAQYhJREFUeF7t3Qd8HGedN/B5ZmaLtqg3y5Yly5Z7SbEdx3EjBC4hEJKjJNwd90Ko+RykA4EEeI+Eckcqd1xCuEA4jkvIAQm5hBqCe0/cuy1LltW7tLvaMjPPO4/9594QYnulfXZ3dvX7fj72Pv9ny8wz0vw0szs7w5QJ4tZbv16l6vw9nCmzFM5rFKZMYpydubXvLjz7KACQYFjhSgdnvF3cKoy1M64csQz2P9/5zr1d9Ji8ldehescd35jBmXm9/UO9gXNlGWOKSncBQIbZ66Blr4Nb7cbzjGsvPPLIl47TXXklL0P19ru/foX9g/uW3VxxtgcAHGijvcFzz6MP3ruJ6ryQV6F6221fm8N09Rt28/qzPQCQA17ghvWlxx77yiGqc1pehOonv/pVny/ketjewfi4PSSNugEgZ3DTXnf/PRJI3PnkP/5jhDpzUs6H6p133l9rKcqL9m7ERdQFALmK892qolz38MNfbqWenJPTH9x89s77l1tM2YFABcgT9ros1mmxblNPzsnZUL3tjgf+XlXYH+2fQhV1AUBeYFVi3RbrOHXklJzc/b/trgeuUbjyEg6RAshf4hAsO6He/dhD9/2aunJCzoXqnXd+fbapWFsZY0XUBQB5inM+pCnqsocfvvcwdTleTm3p3XLPN0tMZv0PAhVgYhDruljnxbpPXY6XQ6HKmTtuPscUNoM6AGACEOu8WPdFBlCXo+XMMZ133OW+yV66n6cSACYQxpSGy5dvPLx1y6v7qcuxciL5P/nJ77kKgt2H7b9YDdQFABMMV3jT6Ejl7Cef/FSCuhwpJ3b/C4I9tyBQASY2kQG+QPenqXQsx2+pfu5z/xRMWPET9qxWUBcATFi8x6W6p3/7218YoQ7HcfyWasKM3YxABYCzWMXZTHCuHNj9V3HGKQB4A2dngqN3/++446ulXNW77dnEmacAgHCTWUblI4/8Yz91OIqjt1TtQL0WgQoAf45pZ7PBmZy++/9eugUAeCPHZoPTQxWXQwGAt+LYbHBsqH71q1/VOcen/gDwl0Q2iIyg0lEcG6r9o0o1Tu0HAG9FZIPICCodxbGhxUxVXI8fAOAtOTUjHBuqKtNqqAkA8BecmhGOPU71trvv/wTj7EkqJzxxFvToaKQpNDLcmUgkTH8wWOgPBKfrmlZID8moRDzeGRoZaQmHQ6OWaebEiXmSpWoa9/sDBYFgsM7ldjtyFxPsdYLxTz724Je/T6VjOHZluP2uB8SJEx4/W01cpmEMtZxs2heNRi62f1x+6v4Tbvcdq62viwSDRRm4+KHFO9s7Ngz098zifGJcG4wx3lVSWnGkumbSSrFtRN3gDLc8+tB9T1DbMfBBkIMNDg7sPHp4fzQaHV3xFoEq2Cs5n9na3LyopenYOm5ZabteejwWaz184MCe/r7eVRMlUAUxVjFmMXaxDKgb4JwQqg7V39+7tb311OIkA4yFw5HVRw8fOiy2JqlPmkQi0XPi2CG/ZVkT9lLgYuxiGYhlQV0Abwmh6kBGIt7b1X56JpVJM03jks7Ojg1UStPSdPykHe6lVE5YYhmIZUElwFtCqDrQyRNNx8cbYv09PZfK3E3t7e7eFI/Hl1I54YllIZYJlQB/AaHqMOKDqUQitozKcWD+3p7uJipS1tfbE6AmEHv5vtX72wBnIFQdJhQOpRyI4VDYQ80UWdwwDFzG5k1M05yejveuIT8gVB0mPDIyTM1xM4zYZGqmJBqNtTCmBKkEIpaJWDZUAvwZhKrDJOJRao2fZSmVMrak4vHEIDXhTbBs4FwQqg7j9QdS/pmomtZk/5/ygeoFBb6p1IQ3wbKBc0GoOkwgWGhvZabG6/FIOZbS5dJL7Z3dNirh/zt9dtkA/CWEqsMUeH3TFYWHqRyXQCAo7efq8rhOUROIy+PGN6vgnBCqDqOqTC8tK3+NyjFjTDlaXlV5GZUpq62dVm2H/CiVYC+Ls8sE4K0hVB2ouqZmpaqqu6lMGuc8Pq2h0Q5W1UVdKfMWeKeVlJZtp3LCE8tCLBMqAf4CQtWRVDZtxsxye6sz6d1MO1DNsvKKrV6fb8xfb72QSZMnr3K5XFupnLDEMhDLgkqAt4RQdSiPxzNl1pwFZT6ff71dnvfwKMZYU/30GUeqa9K1wquscfbcZRWV1ZvsaQ1R54QhxmyPfaNYBmJZUDfAW0KoOpiqqT47LFfV1tXv9fl861VV3f+n9zfFVqzL5dlaUlq6zg7fGr8/MPfMk9KooqrqiumNc6KBwqK1Lpcm3vftO3tPXuoTYxRjnT5zTtQeO67sC0lx7F9dnKT6rVkWNyxuRbJ1xv83MxLxbstSElTmBVVVXLrLnfKhbZB2jjxJNUIVAHIVzvwPAJDvEKoAABIhVAEAJEKoAgBIhFAFAJAIoQoAIBFCFQBAIoQqAIBECFUAAIkQqgAAEiFUAQAkQqgCAEiEUAUAkAihCgAgEUIVAEAihCoAgEQIVQAAiRCqAAASIVQBACRCqAIASIRQBQCQCKEKACARQhUAQCKEKgCARIxuHef2ux74tH3z+Nlq/BIVU1+zvMEolQCQZWp0xOvqOXUplam45dGH7nuC2o6R96Eauuz6PdzlWUQlAGQZS8T2BLa9IGOddGSoYvcfAEAihCoAgEQIVQAAiRCqAAASIVQBACRCqAIASIRQBQCQCKEKACARQhUAQCKEKgCARAhVAACJEKoAABIhVAEAJEKoAgBIhFAFAJAIoQoAIBFCFQBAIoQqAIBECFUAAIkQqgAAEiFUAQAkQqgCAEiEUAUAkAihCgAgEUIVAEAihCoAgEQIVQAAiRCqAAASIVQBACRCqAIASIRQBQCQCKEKACARQhUAQCJGt45z+10PfNq+efxsNX6hy67fw12eRVSmjc7MuIvFo1RmXZR7Apyrjvij6THiYZWbJpVZZTFNi+luP5VZZTFuJRgPUZl1Ole9GlfcVKYNS8T2BLa9IGOdvOXRh+57gtqOgVAdJxGi11Vu2TYvcJJN8g5UutREA1OYTndnHVd4eNT0NLWOVvRvHphXsGlw/lK6K+2qQ32nrju6talhsMNXMjo8VbO76C5HsNO9c6Cg8FRT8aTIizOXNXQGyqbSXWl3pDix/VhJfHSgwCqNa1aDvQo6IuCJoVlKU3FU7Z4S0vkl3d7L1DSELEI1S5wcqtN97Ufuqv9v1a2ZjdTleD2xoq3fbLqpcdjwl1GXdIxz/sFD6zZc1fT6YsYUH3U7GudK5JWGi3c+N2fNSs7suU6TiM77/qchfCzksZZRl+NppnLsmma/VRXRZlGXFPkeqnhPdYxurF67/p7pzzbkUqAKFZ6hZQ/O+Z4yP3hyH3VJ5TITow+98r3d7zj5+qpcCVRBzOs7Tu5aJeZdjIG6pWoNJvY9O2dEyaVAFUxNaXxperhha3V0PXVBEhCqYzDDd/rQVRWvLbc3Z1zUlVPsH3bZZ+teKPOqcenv492244XthfHIxVTmHDHvYgxUSpNQeeiVukgZt5c9deUa14GK+PJOn3GIargAhGqSNMWI3TXtFy4nvW86HhrjNXc3PLeLSikWdjXtndV7aiWVOUuMQYyFSilebgjvshiroTJX6b+ZFnYZihKjGs4DoZqk91dv3OZSjRlU5rT6gu6Vdd7O41Sm7BO7XnYxxnL+d0mMQYyFypT1es3jfQVWzv+xEUyVzdhZHd1GJZwHQjVJcwubNWrmhUuLjnZQMyXifUivEc+p95fPR4xF1nurJ4sSUpaxU5wuTOTVOpAuCNUkVbkHc30X7s/MC7RI+aR7Rn/7CXsLL6ffEnkjMZbpg+1NVKakLWA49uia8Qi5+SRqwnkgVJPgZomwpph1VOaFSd7BSmqmZF5PSz8188b8rpY+aqZk0GtJWcbn4jGMWGPfYOvbm0/vX9jd1xSMJ9L6RQJT4fUG42Eq4RwQqknwabFIPrxn+EYqM6UcdB6MRzg184asMXHGpR7YXxUe7f3ahp0bWr77zA7jn57qjz74tOfo939W+8qzv5m/5wfPNww//KOA+c3vhwYf+Y/9P3hp/br53f0n6aly2OtAXOMRquAcEKoADre4o/uYCNKO7/xn6Zc37V45dSS8ROO8lO7+MypjgaJYfP5H9x9dve8Hv5gWevDpox/dc1T6oWJwbghVAIeaPBzu2vPUzzduf/qX00WQjmdvyW8YM3/w6/VLex/98d6VpzpxrGkGIFQBHEi8T9ryb8+yhT0DK2S89VQWjS1c95OXZoi3D6gL0gShCuAw927even3z/y6UVO41A+6GFNc4u2DV5751TrVsizqBskQqgAOcse2fZsfWL/zCnvr1ENd0r29pX3173/6G2yxpglCFcAhVp9qP/jQH7ddQmVaXWkH6/3r8FZAOiBUARygPDzab++WlzFF8VJX2t27efeyNc0dB6gESRCqAA7w7It/3KdzpYrKjBDvsT7/wu/w3qpkCFWALJs+MHT6yua2rJxrtTiaWPCJ3YdwohSJEKoAWfbfz7/anM4Ppi7ksVe2lFMTJECoAmSRyzITi7r7FlCZFQWGNV18a4tKSBFCFSCL3nu0ZZ+9EhZRmTV3bD/QRk1IEUIVIItu3XnQEZeofveJlox+SJbPEKoAWTS3rz/rW6lCMJZooCakCKEKkEWBuFFIzawSH5RVhEfz7ty42YBQBcgil2k55pP3hsGRXmpCChCqAFkiTmpir4BBKrNuUjiCE1BLgFAFyBJLVVWTMcfscjcXBRwT8LkMoQqQRXFVdUyoniwKVlATUoBQBciiYY97mJpZxRUeHvJ6HPGhWa5DqAJk0bbJlY4I1R6f9yg1IUUIVYAsenjJvLRexjpZz8yZPkJNSBFCFSCL1tdOmmMwpYvKrHls8fwZ1IQUIVQBsogzxn47bUpWr3La6/XuPllSWEMlpAihCpBlH75uzcUW44NUZtyN11/poiZIgFAFyLIBr7foqYWz91CZUSeKC7e+Wl8zj0qQAKEK4ACffcfly8Iu7QiVGWEpbOCaD7xzMpUgCUIVwAFiuu5ZcPP7gqbCMvL9e8658YHrr2w+VlZcS10gCUIVwCHEh0XXfuCvOriixKkrbb6zeN7mX8yedjGVIBFCFcBBfjt9yoJrP/DOw6ai9FGXVJwriW8uW7Th9ncsX0VdIBlCFcBhfj196sKZn/pgNKzrUr/lJE7ecv37rzrwpTVLVlIXpAFCFcCBmkoKJ5ff9uGpT8+fuc5SlCHqHhdu5+mO6ooNdbfclHixsf4i6oY0QagCOFTUpXk/+u5Vqytv+zvrt/WT1431Qyx7Vz9ypLRwy8U3X9+y9CPvXdlW6Md1qDIAoQrgcH0F3pKrb7pmtfvzHy29+gNX7xMB2+f17I2raos4u5R4jPhwK6Gy9iGP68CuyrKNH79mxTb/3R9hsz/5wcv3VJbj+lMZhFBNwojhLbR/aRNU5oWEqUn5Bk+vv0ijZt6QNSbdZFK/JSVOai0+yBIBW377hxd6Pn9znXrPJ/y+uz4yqt7zcbf78x+rKb7j/8y75OYbVjy1aPZloy69gJ4qS8JtqDg94AUgVJNgKronZrlOUJkXTkcrpXy6vK98miPOsiSTrDEVR9W0fIL/ZmkIz7ekWeyErigeKuEcEKpJ6oyV9FAzL+wLTZOyNdZSVNnAOR+lMueJsYgxUZmSqSFXXm3FF8dYXq0D6YJQTdL2wTl5s4KI99+2D82spzIlXFX1YW/gIJU5T4xFjInKlDQM6fYy5mk/kD9Tpg+68+6tnnRAqCbp9z2XXD6c8O2iMqftGJy1uTdeLO073w9d9v6yfNhaFWMQY6EyZcG4NnnaoGszlTnNk1B2LehxXU4lnAdCNUnivJffaLqpkis8RF05KWq5Dn+/9ZoVVErRHiyrX1+3aDuVOUuMQYyFSilWt/pW6BY7TGWO4qH3NvkrFXsdoA44D4TqGIitux+0Xn3I4s65rPBYxC396NeP/Y2XK3J2b9/ox/OvXHm8ZNJ6bq+B1JUzxDyLeRdjoC5p7P1l/b3H/F7NUnLyGlCMK/0rW32HxFY3dcEFIFTHaMvgvCWfO/RJszcR3EZdjse5Yu4amr721oP/UN8Rl7sl9r+Yqn5r+YdWfe+Sd+8yGWunXscT8yrmWcy7GAN1S1UcV+v//mBhfe2QvtZOcJO6Hc+fYNtuOhQwZw66llAXJMGxm/O33/XAp+2bx89W4xe67Po93OVZRKVUCwJNey4tPjY4o6DdXe4ZmqQyy093ZZ29VdrfGSvtPhyayrcMzpnSFq3I2AHg3kR0ZEXrgf3ze5rjU4d7Cv3xyCR7x9ERH3KIPzBht6/jVGHF8P6KevfG2nnzoy5vkO5Ouz6v0XS82DjdETDYoMeqtFReSndlnb1VGg7GtI6qUTVeN+gqnhpypWW9YYnYnsC2F2S89i2PPnTfE9R2DIQqAGRUvocqdv8BACRCqAIASIRQBQCQCKEKACARQhUAQCKEKgCARAhVAACJEKoAABIhVAEAJEKoAgBIhFAFAJAIoQoAIBFCFQBAIoQqAIBECFUAAIkQqgAAEuEk1aliViLo6T5R4m/r1fWYRb1ZF0sUugZCk2siseKp2bpgmxUND0TbTp6Md7aELNMZVxFRNU1xV9cFvJOnTVO9/hLqzijGLV7Ne07Nix9rr+L9CerOuhHmUw/ojeUn9SnTLUVzUbd0OPN/ljg9VEt9p/fOnPyq6lITjfZS9FC343DOh2NG4cG9p66ZGksEa6g7bbhpGQNrf7YxcnzfdG6ZtdTtSEzVWn0zFpwoWfP+FUyTfzHENys3+9vvCj91qszqn6syVkjdjsPtv8lRxXvse74brf2uWQupWxqc+R/+DGNGZEHty+vm1f5mvktLzHdyoAr2Rmqh1zWybGnDc8H68h0bqDst4t1tx9t++LVj4aO71zg9UAUxj2JexTyLeafutLhh9Lcbvhl6MFjBB5Y5OVAFe0vLU6BE598WeXr+3aHvr3dbiQjdBUlAqI4BVyxr2Yxnjhf7O1fbaZVby44pwdryvSvnTv7dWuqRKtZ1+mjnz75byxPxOdSVM8Q8i3kXY6AuqT4b/o+118bXrbTDKmMXGJSB2dvys82Tq74d+qb9B8dyzFtbTodQHYPG6s0bdC0ufXcok0oDrSuLfe0HqJRC7PL3vPjvFnP4Vvv5iHkXYxBjoS4pZieaDixMHFpJZU7y8+jCD4++mNa9nHyCUE1SgXugubroyFIqc5a4VPTc2t96mWLEqCtl/X/46UZuxGdTmbPEGMRYqEyZxhOx28JPexljjrg8dypWxbYtrTE6m6mE80CoJmlaxc5mO5AKqMxpGrOmlwdP7acyZeETB3I+UP9E5lguMQ7udzFjOpU5zf7DUHBD/PcI1SQgVJMUKOjNqffDLqQk2DJCzZSY4aFupljVVOY8MRYxJipTsjBxRMoydor6RGuAmnAeCNUkufXRemrmheKCLh81UxI9faKFmnlD1pgazWYpy9gpinh4GjXhPBCqSXCpo/1M4WVUSlXMjOaZLL51qRZd/3Y9tO5afWTDGjW89hJtdEODGtvhUaw+eqhULn1UytZlrKMl7w63kTWmYnMkb7bgBZXxsgAP9VMJ54BQTQbjUr8OVKGYh6/Uwmv/1jXY9F49XH+5PrpsjhpbNYWZq8uZtbJOM9YsUOMrV2rRJTfqwyU36cN7l6mj6/zM6qSXSB3ncj48ccg3paSSNiZJy9hBdJ6PP3C5EKoZVGJvlf61PrL1Xa7Q7FrVWKMrrIHuOifGmOphfOEsLb76fdpI8VX21qxH4YN0NwA4DEI1A5jCjXfYYfgePTQlyKxl1D1mjCneyfbW7I36kLJQjUo79AcA5EGopplHsQY+6BreX2OHIVOYlO+X21uvxRdrsRVX20GtcAW7YwAOglBNo6BitX1AHx72KspF1CVVlR3UH3QP7dE4j1IXAGQZQjVNXAoPX6eHIhpjddSVFgWKcsm79dDrVAJAliFU04Bxbl2njxzQGW+krrQqVq3lK9VwWk6UAgBjg1BNg8VadEOA8YyeJ2CaaqyuZoa0r54CwPjgJNVJcGmRnmWNz1RQeV5uzkdudA0nVKaUUlfGRDnb+1OjMKmzaFkWa9t09ObJVI5b/x9+ti589PXVVCZP1Ud56eSjrKJuUCmu1pWCQBHnLKXfR2bvIiijoSFlsNPgPS3FrL9tpmIZYz5fg3/mJetK3/7+sY/pTZ4YvK9NZ1bKy9hJ7g5+oWdQLUpqXTgXnKQaxuQKLfJaNgJV8DK+cDqLb6fSuSqn7eJX3tzPLnnXIqV23molWHaFonvmM5d7Xir/xGuceS37NcVri2mIadFUATICoSqRxpVYrZZYTGVWLNaiXmo6DmdajC+5YYOy6K8uYqqW9i24M9OwpyWmKaZN3QBphVCVqE6L7WUKy+qZfDyKNT9d5wtI2cVXb2Ul1SvFgbbUk372tM5M05429QCkFUJVojlqPOvHi4qvtc7W4oeodAxeXrtXKZ+avTPg29M+Mw8AaYZQlahUsWZQM6umKXFnnciDMc4uflexvXmatd83MW0xD2JeqAsgLRCqktgLMmGvuI441ZtP5Y66Wif3F7coTJ1KZfbY83BmXgDSCKEqSQGzehhzxiFqmsJLqOkIvHxqOzWzzknzAvkJoSpJkWI55uS9draXc644ZjeXlU5JUDPrnDQvkJ8QqvI46b06R2wx/wnTnPMWr5PmBfITQlWSYc4cs8ttb6X2OuWtiDN6Tks55aEUTpoXyEsIVUnCilrplF1ukzFnXRmgv2UStbLPSfMCeQmhKglXmNtOVCmXNk5VlLMhajoCH+qtV7iV/Q+I7Hk4My8AaYRQlWiAa8eomVUtXHfUhzHiCwl83+/lXbRwnMQ8iHmhEiAt8Asm0RHL5aJm1oi3IA5Z7plUOgbrbLrEGupaT2XGiWmLeaASIG0QqhKd5K4Fdqhl9Tr4BlMORrhWRaWjqDtfvJSHBrZQmTFimmLaVAKkFUJVIkNRfR2KtoPKrHjdKBimpvOYhp9tfvZy5eD6rfYmdS/1po+Yhj2tM9O0p029AGmFUJVsveFbaO+BZyXYEgo7eJi7L6fSuU4fWKas/aFLObhum9J9ci2PR17nlnna/teW4r/T4rXEa555bTENMS2ADHLUQeJvlKtn/hdWqJG107XEGioz5g9Gwe7T3J3UlVuzfuZ/B8OZ/88NZ/6/MGyppsEmq2BFVFF2U5kRbVxbl2ygAkD6IFTTgCtMfyFRONVUeCt1pVXYYjv/kPBn71ylAPC/EKppElNY6a+NQMxSeA91pUVCYYdeNAIzOY6/BHAErIhp1Mf1Gb8wChMGZ0eoS6ohi215Nh6sjzPVUedPBZjIEKppFuZqzU+N4JRBS91MXSnjCo+dMF1rXzALL7cYG/MlmAEgfRCqGWAozP9LM7j894Z/X4wr+6h7zDjnlh3Om55PFPZutHwZP7oAAC4MoZpB7Vxf8KxRtGC96dvZZ2kbLa4kdWJrk/MW8en+r8zACTucrxhR1Lw6TAcgnyBUk8CZ3OV00nItfskMrPhxoqjolYR/z37Ls77F1Nf2cnWDeJ+0i2vrm+x6t+XZ+JLhP/6fRnHdK0ZgdS/XG+klUsaYYlEzNZpjD3UeP1ljYkzOMnYQS9GQGReABZQEw/CVcYUNUCkPU7Q2RV/0muldtdbyr3nZCK4U75P+xgis2mDXe0zvCvFhFz1aqpjhk3LWKHdVXd69pytrTCPMn/Uzc8lk71kNDKuBMirhHBCqSTIM70lq5oXh0cowNVNSUDsj+1dJlUzWmI7pdVKWsVOEWCCv1oF0QagmaSRaNkLNvNA/MjVAzZRogeJqezfXESfnlsIey5kxSbBHny1lGTtFsz7FuSfrcRCEapJO9VxSwxUepzKnWVw91Ruqn0tlyrxTZx2kZs6TOZZd+vy5BtdOUZnTOOfxFz1vwwekSUCoJmkkVtHYM9wg7VjTbDlzEuu2Kwc4133UlbKyd37ockXTT1CZu+wxnBmLJHHV5fs3/4fsZe2oK+2Oyw73ws3Neq20D0rzGUJ1DI60r1lhWPphKnPScKR6Q3+oTsYZgv6Xqrs8Fe/6SNTemjGpK+eIeRdjEGOhLin2uuYuOqrXb6AyJ0WZ+/D3C25cQSVcAEJ1TFR9x4mbJoWjpRupI3dwHu0YnLVub+s1aVk5vFMa5lVcd/MhpmpN1JUzxDyLeRdjoC6pHgx8bMV696Xr7A3WKHXljFa1etPng1+YxJmKS3snCaE6RobpKXq9+YYVR9pX7bQs5weIvSIbccOz67XmG9qPd65Ybf/I0/YzL5jSOH/yx79S462duc6OKmddJvstsUExr2KexbxTp3Rc0dT/KHjf6v/rv7V9WPHv4lwx6C7HMhSt6SnfB3b8Y/DWKyKsoIi6IQk4SXWKdDU2UOJvayoJto641Khjlmc0Xqj0hqeWjYSrZliK7qXuzOEWjw/0tERbjrTHOlviimU6Y9moGvdU17m9dbNq3CUVdfZmasbny6Ukoo2J5uOLjMN9FWYf9WZfSPXxfa5ZwUPajIaQ6i+hbuny/STVCFUAyCic+R8AAJKGUAUAkAihCgAgEUIVAEAihCoAgEQIVQAAiRCqAAASIVQBACRCqAIASIRQBQCQCKEKACARQhUAQCKEKgCARAhVAACJEKoAABIhVAEAJMJJqlOQiMVPRsLR9tjoqBGPJUq4omT+DPvnoKrqsNvjCnl93oKCQEGDrukVdFfa6cyMz/G3HFoUbBpsDJ7Wy1zDparCNLo7qyyFm32Jwv5jI1OMPSMNxYfCdXMMrrnp7rQr8uo9i6r8TQuqfKP1pZ6AX1cL6a6sS5g8enokNnCwO6Lv7ozUtA3Hp9FdUuHM/1ni5FA1TWukt6N7tx2kK6nL0eywjwSL/DuKy0tWMoWlde9kpq/10B31z7tcmjGDuhwtYerHH2m+IXE0UjuHutKDcetv51duXNNQuJgxJu3y4OnUPBjb8OCmtouiCStIXVLgzP/wZyLhyJ72lraRXAlUwf7L6QsNhVe3NbXtTyQS7dQtFeOc/8PUX6793PTnGnMlUAUxr2KexbyLMVC3VOU+vf2xdzXsf9v0olW5EqhCfbFn5WPX1I8srPLvoS5IAkJ1DAzD7Orr6K2zN/1qqCun2JmxsOt0Vx9XuEVd0txQvWHjxUUn1thbwjl3KWMxz2LexRioSx57C/Urb6vt87u0hdSTUzRVrfnMsuq6Eq/eRV1wAQjVMehu62xRGCumMidxiy8Y7BnYQKUU5e7Btmsqd1xMZc4SYxBjoVKKDy+q3OBzaQuozEmq/Tv/xdVTWqiEC0CoJmlkaGSbaVhLqcxpoaHQUtMwO6lM2d3TftZmb+0FqMxZYgxiLFSmrLRA61xVV5gXvzOlBfrSVXVF26iE80CoJikSCsepmfsYKwiHwk1UpURlllnmHppHZc4TYxFjojIli6cEm5i9rKnMeVdMDcaoCeeBUE1SIpYop2ZeiIZHE9RMSa2n56S9heenMueJsYgxUZmShVU+KcvYKWqKXBk7LC+XIVSTYHGesCylgcq8EI8nSqmZkvnBk3n3AYasMU0t8khZxk7h1dQGVWV59YciHRCqSbBMc5AxxUNlXuAWl7LCV3oGDWrmDVljcmssr0KVMeYpdGuDVMI5IFQBACRCqAIASIRQBQCQCKEKACARQhUAQCKEKgCARAhVAACJcD7VJBiG0dPR0pHat0kYs6aV+lo8Li3lg6eHRhP+jqHRyVSOV1vt9NpUX0P56JTfrLui5OBqKvPCpoG56354+uqUx/TEdQ1tuqqmtIx5d0+bMhIKUzl+HrdLqZlUx1Q1pQ2pu3/T3DMYNVJaF3CS6izJh1CtKvR23PaOmUcbqwqLg159BmPyvs5pWby/Lxw7sbt1IPyvvz+6NGpYYz1PJ0L1HLIZqjwWiyj/+ex25fBRvzI0OJ1xOV/SEDjjYcXnP87q6wb5h/92JisrnUR3JQ2hemHY/U+TD18+bePTH1/mv7S+bHVhgWuRzEAVVJWVVgS9S94xd9Kan/3Dyp4l00r30l2Qo/j+A3uV2+7uYVu3rWGDA0tkBqrAOPOzcGSRcuDQauWe+/z8ly/JP38sIFRlE2ePf/pjy7b+3fL6FSpjGbn+kEtX6+6/YeH8z141cx11Qa75z2fXKY/+63xmmnXUk1b2Lmohe+lXK/gXv7KV27s91A0SIFQl+9TbZm6YVFywjMqMsbeE1WsX1lwxd3LRYeqCHMGPnzjM1667QvwMqStjWG/vMuW5n0s9aflEh1CVaGqpv/n6SyYvpjLj7JVS/6f3L9JdqorzXuYInkjElIce08XPjroy75U/Lubt7c1UQYoQqhLd+555bfbKkdULu7l1bcaHltVtpxKc7le/2c6M7F4okTHFp3zvKamXkZnIEKoSTS72pvxpugyXTiuhFjje/oPUyLLuLkf87uYDhKokfo82omtqRj5kuJCpZf68ukpBXuvodMbPyrDqeGR0hCpIAUJVkplVhS32rr8jjvst0LWGdF3DHuQ586l7NOqIK0rYv7hMOXkSV0yVAKEqSfvgaBk1s86weBd3SMDDuTFVZYruoOvpV1c75nc4lyFUJekajk6yLKuXyqzqGh7Fhw65oqzMET8rrrDe8XzDCv4SQlWigXDcEYelHGgbyp/Laec51jjDGT+rokIcUiUJQlWin2xrlnK9+FRYnId+suVUI5XgcPzav2rkihKiMnvec03Wf3fzBUJVopf3dFzW3BveRGVWPLu1ZZe9+19DJTgcq6ioUd519S4qs4LXTNrEVq+6jEpIEUJVsrt/umueaVmdVGZUz0h0x482n1xJJeQIdsN1K3lxyQ4qM4oraqfy+TvnUQkSIFQlG4kmiv/+yS2seySasW81cc6t7U196z7679sWUhfkmm/834XK/LnrxM+SetKOlxRvV/75fsb8/mLqAgkQqmnQG45XffjJLUt/sLFpk2GYzfaKkpZjRu2XNSIx48AXf7bn4Jef37s6YVkeugtyDHO5PMptn1mt3PHZg9zrPSB+tnSXVPYvIueq1syvv24T++dvLGUlJVV0F0iCk1QnIdUz//s92vCi2uKmi2rLhgo8GvWO32Akxnac7C873D48PW5aXuoeK5yk+hyccOZ/Ho9HlaaTJ5T9B/vYyHDqf5S9XoXPml2kzG5sYD7fuE9JiZNUXxhCNQlSLqfiPAjVc3DS5VScBqF6Ydj9BwCQCKEKACARQhUAQCKEKgCARAhVAACJEKoAABIhVAEAJEKoJoGpaoH4+hKVeYEpyig1UxIxvHl3MmxZY+KWnGXsFOKbgVHDKqASzgGhmgRNVQOKqp6iMi9obl3KSV8OhOvy7iqDssbUFU5k5cQ66WJY/JQdqgEq4RwQqknSdK2dmnmhoKBAyok7joamNNjb8HlzLk4xFjEmKlNyoGc0YydHyYTe0QSuKJEEhGqSCgo8eXU2/YJAQSU1UxLnLn+C6yeozHliLGJMVKbk9fYRKcvYKY50RxPUhPNAqCapuKxkMVNYXrwFoLn0LR6vZzaVKfvR6XcMUzPnyRzLif7Y7M5QfAuVOc0wrVPPHehdTCWcB0I1SUxl/tLq0oGc/8CK896qyVWzqJJi29CcxS2Rio1U5iwxBjEWKqX41vrTsyyLO+KCkOMlPqD6t+1dA3GTS9mCz3cI1THw+X2LfEH/ulwNVnumI6WVZSc1TS2lLmkePPmBhVFLP0JlzhHzLsZApTShuFX6w13dJ+1fmQh15RQRqDvbQ+v2doVlnFVqQkCojlFZVdmasuryPYwprdSVE5iq7p40dVKfv9C/hLqkGrW8hbce/EzDjqHGtXZ458x7b2JexTyLeRdjoG6ptrSOLLn3D6f6hmPmburKCfYuf+t3t3Xu+d6OrjXUBUlI/YzJabJs+ZViN+zdZ6vxi0+Z3aVoejWVUrjcrupAYdBlGeZmi1td9h9z8ccpePZeZxCfYqtMaXK5XIcCRcHWyknlSzRNK6K704IrTHttaFb9/pG6E+Xu4f0FanTIpRoBpjA3PcQRuMJDYcN76Hhk8pHvn7rGeKVv8aVi3unutAjHraLfHRuoMjjfHHBrrT5djds/nyLGmKM2bEzLau+LJA7u6gid+OeN7dPbRuJT6S5pmGV2udsOy1gnX9665dWd1HYMnKRaEsu0BizTdMwunqppJaqm+qjMIssq1UNdmmo54vAi01LVfiNQZS+hrIeZR2eRQrc2QGXWjRqWLxS30n7cMc78nyW5FqoAkByc+R8AAJKGUAUAkAihCgAgEUIVAEAihCoAgEQIVQAAiRCqAAASIVQBACRCqAIASIRQBQCQCKEKACARQhUAQCKEKgCARAhVAACJEKoAABIhVAEAJEKoAgBIhFAFAJAIoQoAIBFCFQBAIoQqAIBECFUAAIkQqgAAEiFUAQAkQqjCWzIGek+NHNi2LdredIAbiSh1Z4XfpfYvmRx4TfwTberOCpeqRGeXFRxYVVe0rdrvPkXdAP+L0a3j3H7XA5+2bx4/W41f6LLr93CXZxGVcB6xjpbDvb//SZhHwjM450XULRiK7moKzl3cWXz5tSsVVU37743PrQ7esaxmX22xu0FX1cnUfYZhWW2tg/GmR7a2L4jErWLqThtmL4wbF1ZsWFVXWO3SWANjTKe7FEtRhkai5vHHd7T7j/fFZlM3nAdLxPYEtr0gY5285dGH7nuC2o6BLVVQLNMyen73X2u7X/jeDCscuvRNgSroipGYObJ3y6rTT39zjzHYe5r60+Ly2uCOR66eFptW6l355kAVRJ+4TzxGPJa606LSr59++F0Ne66aXrzKrasz3xiogr0CFRV5tUu/sGLKjE8trVrLFGbQXTBBIVQnOsvinT/+1t7oif1r7OrPAuOt8Fj4oo5nHimO97Y3UZdUNy4oX/+xS6uWaCqroq5zEo8RjxXPoS6pJhd6mr5+VV1x0KNdRF3nJMJ2SU1wzUNX1+8VW7bUDRMQQnWCG9zy8gZzNHQJlUniga7nnxxVuGlShxQ1QXfzVQ1FS6hMmniOeC6VUqiMm/esqhm1wzJAXUkp9GqXiLcKqIQJCKE6gSUGulqG92xdTOXYGPF5fa/+XF54MG59cdXkkB1iBdSTNPEc8VzxGtSVso9cXLWhQNfmUTkmb28oWjwp4G6hEiYYhOoENrjp182McR+VYxY5tmcBNVM2t9x3sMClzadyzMRz55T7D1CZsmVTguMemx3yvhsXlEndcobcgVCdwBK9bYXUHB/Oy2R9aLWg2p/yoVILqwt6qZkS8eGUqrIyKsdlapE3tWULOQuhOoFZ0UgDNcdttPVIKzVTMqe8IOXfRXtrV6NmShZU+lMeU8CrpbxsITfl/XGqrXXLfxXT3GP6sGFCGA3H47/796uoGje1Zuav9SXX+Kkct59+bFmhL4lP2c8nFDP3fOiprUNUjtsXr54dXt5Qdg2V4/aRp197pS8SdVMJxGPGQ7Utm99FZSoceZxq3ofqkaqle0xVx8H/b+V3j4vd5fKzxTjNW7VNmTzvMqrG7V/+7tK1M6sKxWFd43a4c2jDbT95fSWV43b1/Enb7vir2SmNybKs3mseWZfass1TmmXsmdW1HQf/Qx5y+1L/MKWsrp5aKXm9eSDlP/C7Tg1QKzU7T/alPKaBcBwfVE1QCNUJjJdUhqg5LlxhHYo3cMGD9JOxvam3kprjtr2pv4KaKekNx6tM0+qgclwOdwyntGwhdyFUJzA2e9VczpXxb95Nu/g4tVJ2oH14Ts9IdNxfObWfu/Ng25C0797/dMepcY/NsvjAv/7x2FwqYYJBqE5kHn+lMvPyQ1SNjcf3Gmu8LOX3L9/ozv96fao4QQmVSRPPueOZ16dQKcWPNp1c2R+KvUblmPxgQ9Oh/lA85S1vyE0I1QmOTbtoOfeXbKYySaxbWXr9JCqk6Q7Fqp5ae+wA5zzpr7+Kx4rn9IzEqqlLmtuf2TXJtKxuKpNyqje8+b93nlpOJUxACFVQ2BU3LbfDdb0dUWHqOideULSFr/l7XSkoqqEuqX722unln39u15GEYV7whC3iMeKx4jnUJVXX8GjNTY9v0k8PhLdQ1znZ4R5+bkfL+k/8aDsCdYKTcrB0OixbfqX4Tvq7z1bj1xeY3MWZKn0rJu+U1dbx6sYuNtCxTzHiJresImY7eyfrYx7fIT7jsha28KrLmeYa8/fzx6JrOFbxs52tBbWlvo3lfk/YpbGgPSsucZ8dXqORmHl0W1PvwVt/8vqc9qGo9C3mN4oZVsGLu9pqR6KJLdMrAt0eXfOIr6GK++x5sQzTam7uixz43LO7POuO9Cw88yQ4L5VbXeXhNhnr5Mtbt7y6k9qOgeNU4a2ZsZAy0N2s+AtL07VVmixNVYwZlYVntlyPdw83mNaFT1GYTlWFBe01xd7+wx3D9aMJE18sGSMcpwoTk+YJKOW187MdqIII0SOdwzPFv2wHqiDeFth1amA+AhXeCkIVAEAihCoAgEQIVQAAiRCqAAASIVQBACRCqAIASIRQBQCQCKEKACARQhUAQCKEKgCARAhVAACJEKoAABIhVAEAJEKoAgBIhFAFAJAIJ6mWxFSVuKmyKJVZp5s8oHJn/NFUVTU8lutOpRNjTLMsy09lVjGFWz4j4ZhLWcc03Wsw1U1l2uT7SaoRquMkQvTELO+2vmqNRQJapamxBrs76ydQ/v94WI/zpuCw2V/TmiiY3JJYSnekne7STxWVFDV5Ctw+Tdem2r9mDrucDe80DfNUbDQeGRoYajAShj2PmfHOoZPbrxpqGW2IDZYGzHgDU5gjAl6w//AZdrA2nXYHu3f4q/iPy+dfZqYhZPM9VHGNqnEYLFWPbHl7YHigwnVx3KtO5Sors7sd9lYKc1saq4r6tPqeSa7JbVNcW6tPJwp0UzlzfaW0sNfKorKSDWVVpTPcHnejvYU62Z4PB54dnwXEvLk8rvpAYcDFVHVLLDI6VWzG0gOkKzZG+544+fu97xxquaw6Ean3cKvKDtS0bxWOhT18Vee8rNSITl0w2lf3vr4jTbv9Vb29Ll85PUSKfL9GFd5THaPD87zrt68KNpia2khdOSEa0Jatv6ZQ6anU91GXbKM10ybvLiwJrvrThfFygZjXwuLgKjHvdjl6tleuS0Od+545/pIyKRFeRl05watYjY82v9rwqa7d66kLkoBQHYP+Uv3QqUaPuATxmSt75hrOlLLdl/vKDE2R/j5eRU3ldk3TLqYy54h5F2OgUpoCKx76WtuGMntFE3szOcfednfd0H90+fxw7yHqggtAqCbJZErs9eU+EaYOet907DhjNTtXBHZRKYXX59nrKXCvpDJniTGIsVApxbdb1u/SuZL1iyemwt6a1795er3LZVkx6oLzQKgm6dhc7zZLZzOozGnDJdrKoWLtOJUpK6uscDGF5fzvkhiDGAuVKWscHTjeGBvI+T82gpubM27u2buNSjgPhGqS+qp0x36oNx5dNa4OaqZqlKksp95fPh8ai5T3VleGWmUtY0e4JNyZV+tAuiBUkzQaUHN6F+7N+qs0KZ90e73eE4zl9lsibyTG4i3wNlGZkkvCXY49ZHE8JifCk6gJ54FQTYKhs7DFlDoq80I4oFVSMyUen7efmmnBxGFaWrhnhq/tsPgn2qKP7k4LT4G3j5opqY2PSFnGTqFbZr3XNMJUwjkgVJNg6krE3oTJq2VlqYqUg85VXZUacCqzEouLjr5+z/Rn1j8x75FTTy58xHho7vcq7pn+09nin2iLPnGfeIx4rHgOPV0KWWPSHfLNLVnEcax+Ho9QCeeAUAVH8LB4+JapL659Yt6jkU9PfemSGb6OVXa2TbX3n//igyPRJ+4TjxGPFc8RzxWvQQ8ByBqEKmSZZd1YvXb9v8z/7uilRcfXqEwpojuSJp4jniteQ7yWeE26CyDjEKqQNWLL8luzn9rxjorXV6kKT/mrkOI1xGuJ18RWK2QLQhWyotw92PbI3Cfayl0jl1GXNOI1z7y2PQ3qAsgYhCpknF+L9D/Q+EPTrRozqUs68dpiGmJa1AWQEQhVyCjxSf0DM390SnzQRF1pI6YhpiX76ACA80GoQkbdVf/fm4P66EVUpp2YlpgmlQBph1CFjKnzdh6f6W9bQWXGiGmKaVMJkFYIVciYz9T9cpCxzJ8YXUxTTJtKgLRCqEJGzA807S1xh8XVHLJCTFvMA5UAaYNQhYy4pmJn1rcUnTAPkP8QqpAR0/1t4sKIWeWEeYD8h1CFtBMfEumMT6Eya8Q84AMrSDeEKqTdrEBbNzWzzknzAvkJoQppV+Xud8zB906aF8hPCFVIuyqPcz4fctK8QH5CqELa+fWIYy634qR5gfyEUIW0G0oEDGpmnZPmBfITQhXSritWTK3sc9K8QH5CqELadcVKPdTMOifNC+QnhCqk3d7QtFpqZp2T5gXyE0IV0q43Xjw5bulHqcwaMQ9iXqgESAuEKmTEgZG6dmpmjRPmAfIfQhUy4sXu5VM5V0wqM05MW8wDlQBpg1CFjGiNVjS0RCuzdgZ+MW0xD1QCpA1CFTLmuy3vnckVnvFLR4tpimlTCZBWCFXImIFEsOrV3ot2UpkxYppi2lQCpBVCFTLqmY63r24dLd9IZdqJaYlpUgmQdghVyLgHjv/Nkojp3kdl2ohpiGlRCZARCFXIOFPRPZ8//Mlp/fHADuqSTry2mIaYFnUBZARCFbIiarkDnz/y8Uv3j9Stoy5pxGuK1xbToC6AjEGoQhap6qPN71v9by3v3hW1XIepc9zEa4jXEq8pXpu6ATIKv3iQda8Pz7z4s/s/M+u5jtWbxxOu4jniueI1xGtRN0BWIFTBEThj7He9ly7/zIHPzr7nyM3tr/RcvH4gHtgRN7VjlqL0ca5w8U+0RZ+4TzxGPFY8RzxXvAa9HEDWOPaX8Pa7Hvi0ffP42Wr8jlQt3WOq+iIqx8VkSuwP7y0Sf4BcZ3tyn2bwA29/aXgeleMWLA5uLC4rXkFl2qjMOnNtKYuraf8ZDPYNbhwZHEl5TM8fff6AzzJSXsZOYf9RS7xn1vushKqm9OGfZhl7ZnVtT2mdJLc8+tB9T1DbMbClmgSNKx7NtE5QmRcKB40+aqYkFolVUjOtRJhmIlAFWWNqchdLWcZOEVX1E6kG6kSAUE2Sf5j3UDMvlHUbGjVTEk/EGuxtmFEq8wAfPTum1G0PVEtZxk5x2h3Mq3UgXRCqSapqi+fRCsLj1aeNeipSw5lumtZBqnLembHYY6IyJeuLptRz++8OlTlvbWFtXv2RSBeEapKmHYtd7o7yXVTmNDtQN/silrSTNfe095Tlx9YqHz07Fjk6XMHJa4NTsnZmLpkGVPeun5fOvJxKOA+EarIYY0vXhyrtFS9EPTlJS1iHF7wWlvrBUiKeqA8NhbdTmbPEGMRYqJTi2zWXrRhlesrH4GaTxXnojmlXVuLoiuQgVMdAbN3Nf330kMKVfurKKZrJj162PuxlknZv36i/d2BlbDS6/syBT7nGnmcx72IM1CONyVT91rq3e6OqlvXLyYyHpbD+hyYtOSS2uqkLLgChOkY1pxJLVv92yPRGzG3U5XxcMSs6E2vXvDxcHxixpG6J/Ym9CaN2t/es6u3q32Wviblz2RJ7XsU8i3kXY6BeqU55C+v/uvH6+i2BSWvtvzhZu/rBWHXpBdv+dsa15ivF03BSmjHAcaop6KnW9nRVuwcHy3V31Mcmcab46a6sUy2l3z9sdZf0GnzSqfiUwhErY2e9Zyob8QcC+wt83rjL6yrUNHWS3euQDzm4aZpWRyKaGB6NRN3hUGg+t3iQ7ky7+uhQ01VDLacvinSzKfHhSjc3S+murOOKGu50+ToO+CrimwKTi7cFJ6Vlvcn341QRqgCQUTj4HwAAkoZQBQCQCKEKACARQhUAQCKEKgCARAhVAACJEKoAABIhVAEAJEKoAgBIhFAFAJAIoQoAIBFCFQBAIoQqAIBECFUAAIkQqgAAEiFUAQAkQqgCAEiEUAUAkAihCgAgEUIVAEAihCoAgEQIVQAAiRCqAAASIVQBACRCqAIASMTo1nFuv+uBT9s3j5+txm/IW/5aXPdGqQSALHMbUW9RtPdSKlNxy6MP3fcEtR0j70MVAPKWI0MVu/8AABIhVAEAJEKoAgBIhFAFAJAIoQoAIBFCFQBAIoQqAIBECFUAAIkQqgAAEiFUAQAkQqgCAEiEUAUAkAihCgAgEUIVAEAihCoAgEQIVQAAiTS6dZxly69cbN+8+2wFE4ll8ujQ4MDrne2nT3R3dXb3dHeF7Ftm34729fa09vf1nhwZHjqhKKzL7faWMZXp9FSYWF7euuXVndR2DGypgmOER4b3Hzt8eOvhg3vM9rbWpZFIZJVhGEssy5pl310m/om26BP3iceIx4rniOeeeRGALEOoQtaNRkebjh85uK2l+eT8RCK2zN4C9dNdSWB+8RzxXPEa4rXoDoCsQKhCVnW2t60/eezo1Hg8cRl1jZt4DfFa4jWpCyDjEKqQFZbFjZMnjq/v7+tdZZcy3xPVxWuK1xbToD6AjEGoQsZxrlgnjh16bTQSFoGaFuK1xTTEtKgLICMQqpBxrc1NGxISdvcvRExDTItKgIxAqEJG9XZ3bwqFRlZTmXZiWmKaVAKkHUIVMsY0EwPdXR3zqMwYMU0xbSoB0gqhChlz+lTLXvum+GyVUcU0bYC0Q6hCRsRjsdbQSOhyKjNOTFvMA5UAaYNQhYzo7uo8wRhzU5lxYtpiHqgESBuEKmTEyPBwJTWzxgnzAPkPoQppl4gnuji35lCZNWIexLxQCZAWCFVIu9DwcLN9w85WWcVoXgDSBqEKaReLj8aomXVOmhfITwhVSLtYLO6Yr4o6aV4gPyFUIe1MI+6Yk0g7aV4gPyFUIe1UVXfM1qGT5gXyE0IV0s7t8XBqZp2T5gXyE0IV0s7t9jhml9tJ8wL5CaEKaefz+UupmXVOmhfITwhVSDtfoGC2feOEg+67aF4A0gahChmgMo+34CgVWXN2HlQnfAkB8hhCFTKivLzCR82sccI8QP5DqEJGFJWUXKrpatbOaSqmLeaBSoC0cWyocsZNakKemFJbr1Ez47I5bUgPp2aEY0OVKaybmpAn/IHgPLfbk/HrRYlpimlTCXnCqRnh2FC1uNlOTcgj0xtnXqyq6hEq005MS0yTSsgjTs0I5+7+a1YHNSGPMFX1TWucGbSbvWd70qpXTEtMk2rII07NCMeGammB0sm5gu9p5yGP21NT1zDdDlXWSV1pwDrFNMS0qAPyiMgGkRFUOoqjj9m7/a777YXGqqiEPCPOwn/86OE+zq251CUFY+rBGTNnl7ncLvzu5C3e9ehDX66mwlEcu6VKNtIt5CERerPmzG/wB/zr7C2PlE8eLV5DvJZ4TQRq3nNsNjg9VH9Jt5CnVI1566bNWD1j9uw+t9e7idubrXRX0sRzxHPFa4jXEq9Jd0H+cmw2ODpUmWW8bK8yOF51AhDvfc5onHXFzDnz+soqKzfour7jfFuv4j7xGPFY8RzxXLx/OlFw82w2OJPjvwd9+50P/NGeyzVUwoRimfG42WsasYF4LD4ietwed1DTPSVut1YutnPPPAwmFq6sffTh+95GleM4ffffZr1ADZhwVM3tdlUV+AKzi0pKl4h/oi36EKgTmbMzwfGh6tI8P7D/NPVQCQATGu85mwnO5fhQ/fa3vzDCFfYAlQAwkXHlfpEJVDlSDuz+K8roSMXjXOFNVALABCQyIBKqfIJKx8qJUH3yyU8lVEW9l0oAmIBEBogsoNKxcugs6JzddufXf8eYchV1AMAEwbnyymMP3/tOO7IcfzXcnNhSPYvxuFv7oL0LcJw6AGACEOu8WPdzIVCFHApVRXn8W18c0Lj6Hs75EHUBQB4T67pY58W6T12Ol1OhKjz88L2HFcY+ZO8O4AxWAHnszDpur+tn1vkckpMHUG/b8urxZcuubLab1zKWm2MAgHOzAzVu7/d/7LGH7/s5deWMnL5c72fvvH+5xpRf2MPAGYkA8gbvMrny1//y8Jc3U0dOyflroN955/21lqK8aO8mXERdAJCrON+tKsp1Dz/85VbqyTk5v+u8Zcsfhxe+c9WPXXFxgg1+sf13IufeJwYAcTY69v1I0LjxX7/11T7qzEk5v6X6Rrfd9rU5TFe/YTevP9sDADngBW5YX3rssa8cojqn5VWo/sntd3/9Cns34lt2c8XZHgBwoI0KY/c8+uC9Gb9seTrlZaj+yR13fGMGZ+b19g/uBs6VZYzl3iFkAPlCHCJlr4Nb7cbzjGsvPPLIl/Lyizx5HapvdOutX69Sdf4ezpRZ9g+1xh75JMbZmVv77sKzjwIACYYVrnRwxtvFrb1R0864csQy2P985zv3dtFj8pSi/D9N5SGkrXvNlQAAAABJRU5ErkJggg==;" parent="1" vertex="1">
          <mxGeometry x="20.88" y="560" width="83.25" height="125" as="geometry" />
        </mxCell>
      </root>
    </mxGraphModel>
  </diagram>
  <diagram id="EKInYkFJ4MSCkHDVg_vO" name="Módulos app">
    <mxGraphModel dx="1421" dy="-42" grid="1" gridSize="10" guides="1" tooltips="1" connect="1" arrows="1" fold="1" page="1" pageScale="1" pageWidth="1169" pageHeight="827" math="0" shadow="0">
      <root>
        <mxCell id="0" />
        <mxCell id="1" parent="0" />
        <mxCell id="GfoZ9Ri0A1_K0EozyGyT-5" value="App" style="html=1;dropTarget=0;sketch=0;rounded=0;shadow=0;glass=0;" vertex="1" parent="1">
          <mxGeometry x="270" y="910" width="160" height="90" as="geometry" />
        </mxCell>
        <mxCell id="GfoZ9Ri0A1_K0EozyGyT-6" value="" style="shape=module;jettyWidth=8;jettyHeight=4;" vertex="1" parent="GfoZ9Ri0A1_K0EozyGyT-5">
          <mxGeometry x="1" width="20" height="20" relative="1" as="geometry">
            <mxPoint x="-27" y="7" as="offset" />
          </mxGeometry>
        </mxCell>
        <mxCell id="GfoZ9Ri0A1_K0EozyGyT-7" value="Extracción" style="shape=module;align=left;spacingLeft=20;align=center;verticalAlign=middle;gradientColor=none;shadow=0;sketch=0;rounded=0;glass=0;" vertex="1" parent="1">
          <mxGeometry x="40" y="1110" width="120" height="50" as="geometry" />
        </mxCell>
        <mxCell id="GfoZ9Ri0A1_K0EozyGyT-8" value="Persistencia" style="shape=module;align=left;spacingLeft=20;align=center;verticalAlign=middle;gradientColor=none;shadow=0;sketch=0;rounded=0;glass=0;" vertex="1" parent="1">
          <mxGeometry x="200" y="1110" width="120" height="50" as="geometry" />
        </mxCell>
        <mxCell id="GfoZ9Ri0A1_K0EozyGyT-9" value="Presentación" style="shape=module;align=left;spacingLeft=20;align=center;verticalAlign=middle;gradientColor=none;shadow=0;sketch=0;rounded=0;glass=0;" vertex="1" parent="1">
          <mxGeometry x="350" y="1110" width="130" height="50" as="geometry" />
        </mxCell>
        <mxCell id="I23AveK0OdgEzeHTQohu-1" value="Datos del usuario" style="shape=providedRequiredInterface;html=1;verticalLabelPosition=bottom;sketch=0;shadow=0;gradientColor=none;direction=south;" vertex="1" parent="1">
          <mxGeometry x="70" y="1260" width="20" height="20" as="geometry" />
        </mxCell>
        <mxCell id="I23AveK0OdgEzeHTQohu-6" value="Guardar datos" style="shape=providedRequiredInterface;html=1;verticalLabelPosition=bottom;sketch=0;shadow=0;gradientColor=none;direction=south;" vertex="1" parent="1">
          <mxGeometry x="230" y="1260" width="20" height="20" as="geometry" />
        </mxCell>
        <mxCell id="I23AveK0OdgEzeHTQohu-7" value="Recuperar datos" style="shape=providedRequiredInterface;html=1;verticalLabelPosition=bottom;sketch=0;shadow=0;gradientColor=none;direction=south;" vertex="1" parent="1">
          <mxGeometry x="340" y="1620" width="20" height="20" as="geometry" />
        </mxCell>
        <mxCell id="I23AveK0OdgEzeHTQohu-8" value="Presentar datos" style="shape=providedRequiredInterface;html=1;verticalLabelPosition=bottom;sketch=0;shadow=0;gradientColor=none;direction=south;" vertex="1" parent="1">
          <mxGeometry x="470" y="1620" width="20" height="20" as="geometry" />
        </mxCell>
        <mxCell id="I23AveK0OdgEzeHTQohu-27" style="edgeStyle=orthogonalEdgeStyle;rounded=0;orthogonalLoop=1;jettySize=auto;html=1;endArrow=none;endFill=0;" edge="1" parent="1" source="I23AveK0OdgEzeHTQohu-9" target="I23AveK0OdgEzeHTQohu-23">
          <mxGeometry relative="1" as="geometry" />
        </mxCell>
        <mxCell id="I23AveK0OdgEzeHTQohu-9" value="Predicción" style="shape=module;align=left;spacingLeft=20;align=center;verticalAlign=middle;gradientColor=none;shadow=0;sketch=0;rounded=0;glass=0;" vertex="1" parent="1">
          <mxGeometry x="760" y="1110" width="120" height="50" as="geometry" />
        </mxCell>
        <mxCell id="I23AveK0OdgEzeHTQohu-23" value="Nube" style="html=1;dropTarget=0;sketch=0;rounded=0;shadow=0;glass=0;" vertex="1" parent="1">
          <mxGeometry x="840" y="910" width="160" height="90" as="geometry" />
        </mxCell>
        <mxCell id="I23AveK0OdgEzeHTQohu-24" value="" style="shape=module;jettyWidth=8;jettyHeight=4;" vertex="1" parent="I23AveK0OdgEzeHTQohu-23">
          <mxGeometry x="1" width="20" height="20" relative="1" as="geometry">
            <mxPoint x="-27" y="7" as="offset" />
          </mxGeometry>
        </mxCell>
        <mxCell id="I23AveK0OdgEzeHTQohu-26" style="edgeStyle=orthogonalEdgeStyle;rounded=0;orthogonalLoop=1;jettySize=auto;html=1;endArrow=none;endFill=0;" edge="1" parent="1" source="I23AveK0OdgEzeHTQohu-25" target="I23AveK0OdgEzeHTQohu-23">
          <mxGeometry relative="1" as="geometry">
            <Array as="points">
              <mxPoint x="1020" y="1055" />
              <mxPoint x="920" y="1055" />
            </Array>
          </mxGeometry>
        </mxCell>
        <mxCell id="I23AveK0OdgEzeHTQohu-25" value="Entrenamiento" style="shape=module;align=left;spacingLeft=20;align=center;verticalAlign=middle;gradientColor=none;shadow=0;sketch=0;rounded=0;glass=0;" vertex="1" parent="1">
          <mxGeometry x="950" y="1110" width="130" height="50" as="geometry" />
        </mxCell>
        <mxCell id="I23AveK0OdgEzeHTQohu-35" style="edgeStyle=orthogonalEdgeStyle;rounded=0;orthogonalLoop=1;jettySize=auto;html=1;endArrow=none;endFill=0;" edge="1" parent="1" source="I23AveK0OdgEzeHTQohu-33" target="I23AveK0OdgEzeHTQohu-9">
          <mxGeometry relative="1" as="geometry">
            <Array as="points">
              <mxPoint x="820" y="1230" />
              <mxPoint x="820" y="1230" />
            </Array>
          </mxGeometry>
        </mxCell>
        <mxCell id="I23AveK0OdgEzeHTQohu-33" value="Predicción del estado" style="shape=providedRequiredInterface;html=1;verticalLabelPosition=bottom;sketch=0;shadow=0;gradientColor=none;direction=south;" vertex="1" parent="1">
          <mxGeometry x="810" y="1260" width="20" height="20" as="geometry" />
        </mxCell>
        <mxCell id="I23AveK0OdgEzeHTQohu-36" style="edgeStyle=orthogonalEdgeStyle;rounded=0;orthogonalLoop=1;jettySize=auto;html=1;endArrow=none;endFill=0;" edge="1" parent="1" source="I23AveK0OdgEzeHTQohu-34">
          <mxGeometry relative="1" as="geometry">
            <mxPoint x="1000" y="1160" as="targetPoint" />
            <Array as="points">
              <mxPoint x="1020" y="1160" />
            </Array>
          </mxGeometry>
        </mxCell>
        <mxCell id="I23AveK0OdgEzeHTQohu-34" value="Entrenamiento del modelo" style="shape=providedRequiredInterface;html=1;verticalLabelPosition=bottom;sketch=0;shadow=0;gradientColor=none;direction=south;" vertex="1" parent="1">
          <mxGeometry x="1010" y="1260" width="20" height="20" as="geometry" />
        </mxCell>
        <mxCell id="I23AveK0OdgEzeHTQohu-50" style="edgeStyle=orthogonalEdgeStyle;rounded=0;orthogonalLoop=1;jettySize=auto;html=1;entryX=0;entryY=0.5;entryDx=0;entryDy=0;entryPerimeter=0;endArrow=classic;endFill=1;" edge="1" parent="1" source="I23AveK0OdgEzeHTQohu-41" target="I23AveK0OdgEzeHTQohu-49">
          <mxGeometry relative="1" as="geometry" />
        </mxCell>
        <mxCell id="I23AveK0OdgEzeHTQohu-41" value="IA" style="shape=module;align=left;spacingLeft=20;align=center;verticalAlign=middle;gradientColor=none;shadow=0;sketch=0;rounded=0;glass=0;" vertex="1" parent="1">
          <mxGeometry x="515" y="1110" width="125" height="50" as="geometry" />
        </mxCell>
        <mxCell id="I23AveK0OdgEzeHTQohu-48" value="Enviar datos" style="shape=providedRequiredInterface;html=1;verticalLabelPosition=bottom;sketch=0;shadow=0;gradientColor=none;direction=south;" vertex="1" parent="1">
          <mxGeometry x="530" y="1260" width="20" height="20" as="geometry" />
        </mxCell>
        <mxCell id="I23AveK0OdgEzeHTQohu-49" value="Recibir estado" style="shape=providedRequiredInterface;html=1;verticalLabelPosition=bottom;sketch=0;shadow=0;gradientColor=none;direction=south;" vertex="1" parent="1">
          <mxGeometry x="620" y="1260" width="20" height="20" as="geometry" />
        </mxCell>
      </root>
    </mxGraphModel>
  </diagram>
</mxfile>
